<svg xmlns="http://www.w3.org/2000/svg" viewBox="0 0 464.06 394.13"><defs><style>.cls-1{fill:#fff;}</style></defs><title>quizLeftTop</title><g id="Layer_2" data-name="Layer 2"><g id="Layer_1-2" data-name="Layer 1"><path class="cls-1" d="M49.32,257.54a.88.88,0,0,1,.36,0A.84.84,0,0,1,49.32,257.54Z"/><path class="cls-1" d="M96,238.09c-.39-.65-.43.83,3.38-9.58,12.55-34.65,34.77-129.31,22.56-158.22-11.55-27.14-57.21-26.25-72.1,25-5.39,18.77,2,5.21-11.4,14.69-47.94,33.87-52.3,152-5.82,173.7,16.25,7.65,34.59,4.27,50.67-20.86,3.46-5.45-.07-3.87,9.8,6,8.79,8.81,22.4-3.66,14.46-13.17C104,251.37,104.24,251.81,96,238.09ZM79.72,213.73a198.35,198.35,0,0,0-12.9-15.54C57.68,188,42.07,201.38,50.76,212c5.77,7.05,11.66,14.09,18.41,23.54-11.1,19.23-17.83,21.72-19.46,22,.79.25-12.29,3.9-10.05-48.7,1.05-21.71,3.93-46.07,13.15-65.87a46.73,46.73,0,0,0,6.27,9.36c10.59,12.86,30.75-1,22.5-15.51-1.53-2.69-5.2-8.22-5.78-15.73-1.08-14,8.73-38.77,18.7-39C99,82,104.38,152.23,79.72,213.73Z"/><path class="cls-1" d="M49.68,257.53a.84.84,0,0,1-.36,0A.88.88,0,0,1,49.68,257.53Z"/><path class="cls-1" d="M122.24,154.3c-5.87,33.14-6.33,49.11,1.3,64.52,9.32,19.13,26.19,23.91,37.88,19.58,15.11-5.59,22.17-23.19,27-38.79C198.81,167.28,206.74,121.1,210,94.3c1.92-15.78-22-18.79-23.82-2.44-6.62,60.92-24.7,111.51-28.28,111.51-6,0,14.38-106.27,15.76-111.74C176.94,73.68,152,65.4,143.9,81.74,135.45,98.74,126.15,132.24,122.24,154.3Z"/><path class="cls-1" d="M226.55,80.6a14,14,0,0,1,27.62,4.11c-2,19.32-12.18,74.2-17.81,127.06a19.15,19.15,0,1,1-37.88-5.37C208.37,153.53,223.15,98.5,226.55,80.6Z"/><path class="cls-1" d="M235.16,49.41c1.84-10.32,1.81-15.14,4.4-34.75A16.87,16.87,0,0,1,273,19.08c-.3,2.26-10.33,30.5-13.48,37.69C253.49,70.58,232.48,64.32,235.16,49.41Z"/><path class="cls-1" d="M348.75,49.37c4.05,10-4.49,14.27-39.39,94.38-8.07,18.77-7.4,16.06-5,14.32,59.7-44.41,87.7-39.76,94.42-27.26,10.55,19.63-21,27.29-51.93,44-20.21,11-72,43.35-79.5,48.73-10,7.17-23.62-1.91-20.8-13.95,8.9-38,53.64-113.84,64.92-130.5C307.15,80.59,281,90,277.75,91.71c-14,7.55-27.32-10.33-15-21.77C277.15,57,341.3,30.93,348.75,49.37Z"/><path class="cls-1" d="M81.67,371.46c-2.29,9.27-2.24,14.69-9.85,15.35-3.37.28-5.19-1.82-6.48-4.79-.17-.4-5-13.08-11.18-41.5-3.29,20.67-5.42,32.75-7.32,43.11a12.82,12.82,0,0,1-14.92,10.29c-8-1.48-12.21-9.92-10-16.24C28.6,355.15,33.22,337.6,42,304.84c2.59-9.62,16.83-8.15,17.3,1.88,12.42,45.5,5.34,45.82,13.42-17a14.38,14.38,0,1,1,28.52,3.67C101,295.74,103.69,282.42,81.67,371.46Z"/><path class="cls-1" d="M124.79,314.09c-.59,2.43-13,54-14.26,59-1.76,6.85-10.73,10-16.18,4.85-4.8-4.42-4.07-4.28,6.06-68.17a12.39,12.39,0,1,1,24.38,4.36Z"/><path class="cls-1" d="M141.79,253.59c-1.13,4.73.88-5.36-13,36.52-3.56,10.76-19.81,7-18.17-4.18.51-3.42,3.18-25.63,5.76-36.73C121,229.82,145.63,237.53,141.79,253.59Z"/><path class="cls-1" d="M211.47,310.56c-.8,11.69-21.05,78.82-50,82.38-16.86,2.07-34.17-13.7-36-36.67-3.25-40.79,18.89-124.21,61.18-123.34,16.21.34,24.2,11.64,23.63,26.5,0,0,1,10.16-11.41,31.14-4.58,7.76-16.53,2.38-13.76-6.19,2.19-6.8,4.8-13.47,5.23-20.82,1.4-24-28.76,3.46-35.51,87.75-3.14,39.19,24.44,11.75,42-32.82-11.91,3.76-18.39,9.23-22.11,10.63-11,4.16-18-10.47-8.83-16.54,4.22-2.79,21.21-9.44,40.25-8.13A5.73,5.73,0,0,1,211.47,310.56Z"/><path class="cls-1" d="M302.62,291.93c-2.48-12.5-19.36-10.13-18.79,2,.65,14-10.77,36.13-18.61,42.12-3.55-30.85,17.39-64.17-3.11-71.88a14.87,14.87,0,0,0-10.26-.27c-1.8.63-.09,1.14,2-20.87a14.8,14.8,0,0,0-29.43-3.09c-4.23,38.14-10.45,58.5-12.95,118-.54,12.67,18,15,20.54,2.48C246.26,290,245.21,285.52,249.62,280c1.16-1.5,3.88-4.23,5.6-3.88,1.9.28,1.52.87,1.22,2.87-1.29,9.51-18.44,47.43-10.55,68.1,5.75,14.92,26.14,18.83,42.7-4.3C297.81,329.93,305.77,308.14,302.62,291.93Z"/><path class="cls-1" d="M463.88,173.9c-3.38-36.1-44.92-39.4-68.43-17.28-13,12.85-16.54,29.29-10.81,39.41,6.83,12.39,24,4.95,22-5-.69-3.49-1.88-7.55.66-13.52,4.41-10.36,31.57-21.42,35.23-3.8,1.48,7.14-2.69,17.13-15.61,25.56-25.42,16.56-54.72,21.32-81.32,26.46,1.13-4.49,3.66-14.42,5.27-21,3.48-14.39-17.27-20.79-22.66-7.26-4.36,10.94-9.48,24.15-12.92,35.32-16.15,4.85-31.51,11.93-38.81,27.12-4.53,9.62,6.75,13.42,10.12,6.88,4.82-9.32,14-13.61,24.08-16.75-4.9,22.6-5.82,51.16-5.21,61.28,1.76,27.25,18.34,38.33,35.43,34.17,38.53-9.37,53-98.94,25-94a11.11,11.11,0,0,0-9,12.87c3.52,20.12-9.74,44.62-18.5,51.34-3.29-13.12-1.26-50.37,3.08-71.9,21-3.08,42.92-5.54,62.06-11.75C433.37,222.33,466.81,205.3,463.88,173.9Z"/></g></g></svg>