<svg xmlns="http://www.w3.org/2000/svg" viewBox="0 0 1569.35 324.28"><defs><style>.cls-1{fill:#fff;}</style></defs><title>quizFooter</title><g id="Layer_2" data-name="Layer 2"><g id="Layer_1-2" data-name="Layer 1"><path class="cls-1" d="M1332.13,324.28h-1.24l1.37-65.64a.71.71,0,0,1,.71-.72h.06a.72.72,0,0,1,.66.72"/><polygon class="cls-1" points="1448.57 269.03 1369.54 263.11 1361.14 324.28 1359.71 324.28 1368.21 262.24 1368.97 261.63 1449.4 267.66 1450.06 268.43 1444.65 324.28 1443.32 324.28 1448.57 269.03"/><path class="cls-1" d="M1207.16,162.29a13.52,13.52,0,0,0-.09-2.12l2.6-96.6h0c-7.75-2.61-15.78-5.48-18.72-15.93h0a38.85,38.85,0,0,1-1.08-13c.65-8.84,3.93-18.47,10.82-23.8,5.11-4,12.14-5.51,19.18-5,7.48.55,15,3.43,20.23,8.19,7.42,6.74,10.36,17.2,9.7,26.09h0a26.35,26.35,0,0,1-2.33,9.35c-4.58,9.59-15.35,12.42-25.77,15.05h0c.72,24.42-.83,59.84-2.37,95.14L1218,160c-1.85-3.31-3.49-6.14-4.34-7h0c0,.06,0,.12,0,.19h0a6.09,6.09,0,0,0,0,.62c.07,4.28,2.88,17.59,5.81,31.36l59.34-73.53h0c-3.56-4.78-7.22-9.83-6.75-16.13a15.32,15.32,0,0,1,.4-2.52c1.83-7.59,9.71-16.85,19.42-20.79a28.6,28.6,0,0,1,12.84-2.07,27.6,27.6,0,0,1,4.93.83c2.82-8.36,5.73-16.24,8.66-23.34,6.83-16.54,13.83-28.91,20.32-36.88C1344.46,3.55,1350.17-.33,1355,0h0a8.09,8.09,0,0,1,4.6,1.89c6.19,5,9,20.05,7.17,44.74a385.93,385.93,0,0,1-7.28,48.73c-11.33,54.85-36,134.46-62.3,156.41-.53.43-1.05.85-1.57,1.24a36.54,36.54,0,0,0,7.1,1.16,97.79,97.79,0,0,0,10.1.07l2-.06h0c4.47-.1,7.88,0,10.76.21s5.4.56,7.8.9h.06c39.08,3.1,78.16,6.2,101.42,8.52,17.66,1.76,26.22,3.08,36.27,5.27h0c-.62-15.22-2.87-28.29-8.15-37.44h0c-5.07.07-10.24-.11-15.25-.48-16.58-1.22-31.42-4.55-35.07-8.2a3.1,3.1,0,0,1-1.07-2.45c.32-4.34,11.52-7.24,22.71-6.41,8.88.65,18.62,3.63,25.31,10.61a31.23,31.23,0,0,1,4.18,5.5c10.58-.19,20.64-1.45,27.71-4.3,8.51-3.44,12.47-9.12,12.94-15.47.7-9.59-6.53-21.08-19.26-29.1l-.11-.07h0c-20.6-2.16-42.32-8.4-48-11.54h0a4.06,4.06,0,0,1-1.85-1.6,1.23,1.23,0,0,1-.1-.58,1.12,1.12,0,0,1,.38-.77h0c.88-.82,3.48-.9,6.58-.67h0c10,.74,29.63,5.2,43.46,13.77h0q2.19.22,4.35.39c12.37.91,23.75.09,30.09-4.1,3.93-2.6,5.92-6.53,6.27-11.31.56-7.59-3-17.25-9.45-26.69h0l-.69,0c-31.52-2.33-81.2-19.22-90.48-29.7a5.78,5.78,0,0,1-1.77-4.16c.39-5.26,11.26-7.35,24-6.41h0a99.21,99.21,0,0,1,39.94,11.83,92.38,92.38,0,0,1,29.75,27.1,76.83,76.83,0,0,0,9.45.05c8.4-.56,14-3,17.71-6.64h0c.26-1.8.51-3.59.74-5.35h0c-8.23-26-35.21-37.1-64-48.86h0l-.12-.05-.12,0h0l-.08,0h0c-22.18-9.05-45.34-18.53-60.71-26.05h0a8.49,8.49,0,0,0-1.82,4.34c0,.15,0,.3,0,.45,0,3.53,3.3,7.6,6.94,12.07,3.78,4.63,8,9.7,7.62,14.47h0a5.51,5.51,0,0,1-.06.57h0c-.61,4-4.66,7.67-8.82,11.43-5.57,5-11.63,10.58-12.56,18.28,0,.27-.06.55-.08.82h0c-.53,7.11,2.94,16,6.27,24.47,2.84,7.23,5.61,14.24,5.24,19.23a10.81,10.81,0,0,1-.14,1.16,9.36,9.36,0,0,1-.41,1.45c-1.65,4.43-6.58,6.62-11.36,8.79-5.62,2.54-11.22,5.12-13.33,10.8a17.94,17.94,0,0,0-1,5c0,.65-.08,1.32-.08,2-.06,7,2,15.81,3.87,23.63,1.44,6.05,2.76,11.6,2.73,15.15,0,.29,0,.56,0,.82a5.86,5.86,0,0,1-2.1,4.53c-1.57,1.23-3.87,1.55-6.21,1.89h0c-3.36.5-7.18,1.08-10.74,3.86-3,2.36-5.88,6.32-8.75,10.3-4,5.53-8.36,11.79-13.11,11.44a5.83,5.83,0,0,1-2.79-1c-3.71-2.41-7.49-9.6-11.07-16.38-1.62-3.06-3.17-5.94-4.63-8.38-4.63,9.33-8.68,16.26-11.45,19.34-1.22,1.36-2.47,2.26-3.58,2.18a1.94,1.94,0,0,1-1.16-.52h0c-1.3-1.16-1.5-4.18-1.26-7.38.58-7.92,4.28-20.71,9-22.38a3.52,3.52,0,0,1,1.39-.19c2.31.17,4.62,2.62,6.87,6,11-22.57,24.81-57.74,32.38-86.85a273.26,273.26,0,0,0,8.22-49.33c.33-4.43.53-8.6.66-12.53.2-6.24.21-11.83.22-16.84,0-4,0-7.62.12-10.86.06-2,.16-3.84.29-5.56h0c.36-4.85.91-8.64,1.37-11.74.31-2.17.57-4,.69-5.57a12.62,12.62,0,0,0-.86-6.43c-2.58-5.76-11.24-11.7-20.23-17.82l.7-1.24c24.15,11.19,48.27,22.38,79.09,34.09,9.5,3.61,19.64,7.27,29.8,10.94C1499,56.55,1522,64.84,1538,72.67c23.4,11.43,32.28,22,31.26,57.94-.11,3.64-.31,7.53-.61,11.63h0v0c-2.67,36.09-13,87.9-28.85,112.7-12.06,18.82-27.31,22.13-40.84,21.13a108.68,108.68,0,0,1-17.15-3l-.33-.08-.33-.08h0c-3.13-.75-5.92-1.4-8.58-2h0c.52,15.92-.75,35.16-2,53.39h-1.4c1.23-18.14,2.47-39.65,2-53.71h0c-10.16-2.22-18.66-3.53-36.48-5.31-23.24-2.32-62.29-5.42-101.38-8.52h-.13c-2.39-.34-4.77-.67-7.72-.89s-6.21-.31-10.62-.2h0l-2,.05a100.25,100.25,0,0,1-10.22-.06,36.16,36.16,0,0,1-8.51-1.55h0a30,30,0,0,1-5.11,2.75,24.12,24.12,0,0,1-11.16,1.81c-19.92-1.47-37.64-26.9-44.83-44.32a58.48,58.48,0,0,1-4.43-16.87h0c-2,1.38-3.68,2-5,1.92a2.63,2.63,0,0,1-1.77-.8,4.23,4.23,0,0,1-.92-3.35,12,12,0,0,1,.91-3.6c2.3-5.63,8.92-12.65,10.42-13.27h0a.86.86,0,0,1,.7,0,.81.81,0,0,1,.49.82s0,.07,0,.1h0l0,.11h0a6.13,6.13,0,0,1-.46,1,26.76,26.76,0,0,0-2.67,8c-.15.88-.26,1.83-.34,2.86s-.11,2.2-.08,3.42c.66-.57,1.38-1.23,2.15-2,4.71-4.63,11.07-12.64,17.85-21.61,3.63-4.82,7.36-9.87,11-14.83,3.49-4.72,6.89-9.35,10.05-13.52,3.38-4.49,6.45-8.43,9.21-12,2.59-3.32,4.85-6.24,6.78-8.82h0a19.73,19.73,0,0,1-1.48-9.48c.25-3.29,1.19-6.43,2.74-8.15a4.35,4.35,0,0,1,3.58-1.58,3.88,3.88,0,0,1,2.32,1,5.73,5.73,0,0,1,1.64,4.81,10.61,10.61,0,0,1-.43,2.21c-.89,3-3.23,6.64-6.69,11.34h0a.75.75,0,0,0,.07.12,10,10,0,0,0,4.94,4.24l1.35.49h0a18.85,18.85,0,0,0,3.89.69,32,32,0,0,0,8.3-.62c9-1.75,19.57-6.72,22.6-16.2a20.85,20.85,0,0,0,.89-4.79c.68-9.15-3.6-20.47-10.19-27.09a24.78,24.78,0,0,0-9.92-6.14l0,0-.34-.13c-.31-.1-.65-.19-1-.29h0v0a25.46,25.46,0,0,0-4.58-.76,27.18,27.18,0,0,0-12.19,2c-9.34,3.8-16.86,12.72-18.57,19.81a13.47,13.47,0,0,0-.36,2.28c-.44,5.88,3.06,10.61,6.8,15.62l0,.88-60.63,75.13-1.25-.3c-3-14.16-6.09-28.49-6.16-33.11,0-.27,0-.52,0-.74a1.87,1.87,0,0,1,.73-1.59,1,1,0,0,1,.58-.13,1.06,1.06,0,0,1,.37.09c1,.41,2.6,2.94,4.13,5.62,1.51-34.65,3-68.93,2.26-92.61h0c-9.58-3.5-19.93-7.33-19.18-17.45h0c.49-6.54,6-16.66,11.6-16.25h0c2.79.21,5,3,6.49,8.61,1.36,5.28,2.13,13.46,2.47,23.68,10.46-2.65,20.32-5.4,24.52-14.2a24.92,24.92,0,0,0,2.19-8.83c.63-8.56-2.21-18.55-9.23-24.93-5-4.56-12.22-7.29-19.35-7.82-6.73-.5-13.42,1-18.23,4.69-6.43,5-9.62,14.12-10.26,22.78a37.36,37.36,0,0,0,1,12.5c2.77,9.86,10.33,12.44,18.3,15.12l.49.7-2.66,98.62-.66.7-.66,0C1207.15,162.39,1207.15,162.34,1207.16,162.29Zm251.37,63.43c-6.36-6.63-15.71-9.53-24.38-10.17h0c-11.82-.88-21,2.42-21.18,5.09a1.7,1.7,0,0,0,.65,1.33c3.36,3.35,17.9,6.58,34.22,7.78,4.67.35,9.49.53,14.23.5h0A30.17,30.17,0,0,0,1458.53,225.72Zm-16.6-58.16h0a15.6,15.6,0,0,0-5.31.18h0a5.17,5.17,0,0,0,1.1.76h0c5.38,3,25,8.6,44.24,11C1468.63,172.14,1451.07,168.24,1441.93,167.56ZM1487.1,111a97.86,97.86,0,0,0-39.34-11.65h0c-13.52-1-22.25,1.54-22.51,5.08a4.41,4.41,0,0,0,1.42,3.11c8.88,10,57.75,26.76,89,29.19A90.65,90.65,0,0,0,1487.1,111ZM1336.88,223.5h0a2,2,0,0,0-.88.11h0c-3.72,1.31-7.48,12.94-8.08,21.14-.26,3.4.11,5.6.78,6.21a.6.6,0,0,0,.33.12c.38,0,1.11-.24,2.4-1.68,2.76-3.07,6.89-10.2,11.62-19.82C1340.78,226,1338.71,223.63,1336.88,223.5Zm197.62-41.05c-5.55,18.48-13.24,39.42-19.06,55.25-3.87,10.55-6.86,18.7-7.89,22.43,7.16-11,37.29-71.74,40.23-111.61h0c.13-1.72.2-3.4.23-5h0a62.47,62.47,0,0,0-1.21-13.43h0c-.24.29-.48.56-.74.83h0A357.24,357.24,0,0,1,1534.5,182.45Zm13-55.81a28.49,28.49,0,0,0,3.43-12.5,100.22,100.22,0,0,0-1-19.2h0c-.77,9.67-1.63,19.45-3,29.8h0C1547.11,125.36,1547.29,126,1547.47,126.64Zm-122.9-83.2c2.46-2.23,4.12-3.82,4.21-5,0-.33-.09-.7-.65-1.12-1.8-1.33-6.4-2.28-11.13-2.63h0c-5.77-.43-11.72,0-13,1.77a.83.83,0,0,0-.2.49,2.22,2.22,0,0,0,.67,1.46h0c1.91,2.33,7.52,5.66,15.5,9.6A44.25,44.25,0,0,1,1424.57,43.44Zm48,226h0c2.77.62,5.68,1.3,9,2.08h0l.33.08h0l.33.08h0a106.6,106.6,0,0,0,16.94,3c13.2,1,27.86-2.28,39.51-20.47,15.68-24.48,26-76,28.63-112h0c.3-4.09.5-8,.6-11.58,1-35.37-7.58-45.45-30.45-56.61-16-7.79-38.82-16-61.64-24.29-10.16-3.67-20.3-7.33-29.81-11-27.65-10.5-49.92-20.59-71.61-30.62,6.29,4.49,11.8,9.07,13.86,13.66a14.07,14.07,0,0,1,1,7.12c-.12,1.67-.39,3.53-.71,5.68-.45,3.09-1,6.84-1.35,11.63v0h0c-.13,1.69-.23,3.52-.29,5.49-.1,3.21-.11,6.81-.12,10.81,0,5,0,10.62-.22,16.89-.13,3.94-.33,8.14-.66,12.59a275.56,275.56,0,0,1-8.26,49.58c-7.65,29.43-21.76,65.18-32.86,87.9,1.77,2.84,3.49,6.16,5.13,9.26,3.7,7,7.28,13.7,10.59,15.85a4.5,4.5,0,0,0,2.11.75c3.69.27,7.4-4.67,11.85-10.84,2.82-3.92,5.81-8.08,9-10.59,3.89-3,8.06-3.65,11.41-4.14h0c2.48-.37,4.33-.67,5.54-1.61a4.52,4.52,0,0,0,1.56-3.5c0-.23,0-.48,0-.73,0-3.34-1.24-8.67-2.69-14.81-1.84-7.76-4-16.71-3.91-24,0-.71,0-1.41.08-2.09a19.45,19.45,0,0,1,1.08-5.39c2.36-6.33,8.6-9.12,14.08-11.61,5-2.26,9.22-4.23,10.62-8a7.52,7.52,0,0,0,.34-1.22c.06-.32.1-.65.13-1,.33-4.58-2.25-11.22-5.15-18.6-3.28-8.36-6.92-17.58-6.37-25.09,0-.3,0-.6.09-.89,1-8.32,7.54-14.21,13-19.17,4.33-3.92,7.85-7.16,8.36-10.59h0c0-.15,0-.3.06-.46.3-4.06-3.36-8.62-7.31-13.45-3.49-4.28-7.23-8.81-7.26-13,0-.19,0-.38,0-.57a9.88,9.88,0,0,1,1.95-4.87h0c-8-4-13.72-7.39-15.73-9.84a3.6,3.6,0,0,1-1-2.48h0a2.4,2.4,0,0,1,.48-1.24c1.66-2.24,7.93-2.8,14-2.35,5.18.38,10.22,1.5,12.14,2.92a2.65,2.65,0,0,1,1.23,2.37c-.14,1.9-2.5,4-4.68,5.94a47.91,47.91,0,0,0-4.24,4.18h0c15.15,7.37,38,16.76,60.35,25.87h0l.08,0h0l.12,0h0l.13.05c27.64,11.29,54.44,22.21,63.89,47C1547.3,110,1548.15,99,1549,88l1.43,0c1.23,9.09,2.49,18.29,1.9,26.26-.4,5.46-1.68,10.36-4.39,14.3h0a62.67,62.67,0,0,1,1.5,14.95v.05h0c0,1.66-.1,3.35-.23,5.08-3,41.16-34.69,104.14-41,113a5.13,5.13,0,0,1-1.08,1.23,1.06,1.06,0,0,1-.63.19.9.9,0,0,1-.41-.15h0a1,1,0,0,1-.38-.67h0a2.06,2.06,0,0,1,0-.43c.18-2.34,3.72-11.95,8.37-24.6,5.82-15.84,13.5-36.75,19-55.17a357.09,357.09,0,0,0,11.25-49.58h0c-3.88,3.23-9.44,5.31-17.28,5.82a71.06,71.06,0,0,1-8.53,0c6.2,9.37,9.65,18.95,9.08,26.69-.38,5.15-2.55,9.52-6.91,12.4-6.65,4.39-18.38,5.25-31.06,4.32l-1.61-.13h0c11.64,8.08,18.47,19.23,17.75,29-.51,7-4.9,13.1-13.82,16.7-7,2.82-16.94,4.13-27.44,4.38h0C1469.73,241.07,1471.93,254.26,1472.53,269.41Zm-241.6-88.12h0c-2.36,2.37-6.16,6.93-7.77,10.87a10.76,10.76,0,0,0-.82,3.17h0a2.93,2.93,0,0,0,.52,2.24h0a1.35,1.35,0,0,0,.87.35c.92.07,2.44-.42,4.74-2.15h0a37.47,37.47,0,0,1,0-4.65h0c.08-1.07.2-2.06.36-3A27.49,27.49,0,0,1,1230.93,181.29Zm63-71a9.18,9.18,0,0,0,.37-1.9h0a4.33,4.33,0,0,0-1.16-3.64,2.48,2.48,0,0,0-1.48-.64h0a2.93,2.93,0,0,0-2.4,1.1c-1.24,1.38-2.14,4.13-2.38,7.3a19.17,19.17,0,0,0,1,8C1291.05,116.25,1293.12,112.94,1293.91,110.31Zm-6.25,13h0c-1.86,2.48-4,5.24-6.4,8.31-2.75,3.53-5.83,7.48-9.2,11.95-3.15,4.17-6.55,8.79-10,13.51-3.66,5-7.39,10-11,14.84-6.76,9-13.19,17.06-18,21.77a39.69,39.69,0,0,1-3.08,2.76,55.86,55.86,0,0,0,4.41,17.33c7.3,17.71,24.69,42,43.65,43.43a22.72,22.72,0,0,0,10.46-1.7,26.61,26.61,0,0,0,4-2h0a19.76,19.76,0,0,1-8-5.73h0c-5.42-6.57-7.62-18.19-6.17-37.92.61-8.17,1.84-17.75,3.75-29,2.62-15.41,6.52-33.94,11.23-53h0A11.58,11.58,0,0,1,1287.66,123.3ZM1311,71.4a26.17,26.17,0,0,1,10.48,6.49c6.88,6.91,11.32,18.62,10.61,28.2a21.88,21.88,0,0,1-1,5.13c-3.28,10.27-14.6,15.4-23.69,17.17a33.13,33.13,0,0,1-8.68.63,19.55,19.55,0,0,1-4.13-.72c-4.69,19-8.57,37.41-11.18,52.76-1.9,11.21-3.13,20.74-3.73,28.86-1.45,19.69.81,30.8,5.85,36.9a18.5,18.5,0,0,0,8.35,5.67c.78-.55,1.56-1.15,2.35-1.8,25.82-21.57,50.46-100.6,61.82-155.6a383.9,383.9,0,0,0,7.25-48.54c1.84-24.86-1.12-39-6.64-43.53a6.67,6.67,0,0,0-3.8-1.54h0c-4.07-.3-9.25,2.9-15.18,10.19-6.36,7.83-13.3,20.06-20.1,36.52-2.92,7.06-5.81,14.89-8.62,23.21Zm-93.17-31.65c-1.45-5.62-3.47-7.41-5.22-7.54h0c-4.16-.31-9.56,8.32-10.06,14.93h0v0h0c-.64,8.68,7.94,12.21,17.7,15.8C1219.88,52.92,1219.13,44.9,1217.81,39.75Z"/><path class="cls-1" d="M1208.38,159c0-.66-1.06-.66-1,0a93,93,0,0,1-4,31.27c-12.57,40.46-51.11,68.32-90,80.81-26.33,8.46-54.2,10.63-81.72,10.34a572.25,572.25,0,0,1-85-7.26,600.67,600.67,0,0,1-76.87-17.82c-21.38-6.43-42.53-14.24-61.93-25.39-18.05-10.36-36.6-24.44-47.13-42.81-8-14-12.33-33.37-5.63-48.66,10-22.86,39.58-19.39,59-12.73,23.76,8.18,43.86,23.83,64,38.31,18.68,13.41,38.23,26.6,60.66,32.76,13.86,3.8,37.21,8,45.79-7.54,4.67-8.43,3.9-19.68,1-28.53-3.32-10-9.73-18.74-16.86-26.38-16.43-17.58-37.16-31.58-59.07-41.39-44.75-20-100.21-26-146.65-8.11a126.78,126.78,0,0,0-32,17.81c-10.06,7.75-19.24,16.73-28.66,25.23-19.57,17.66-39.53,34.67-63.06,46.87a218.36,218.36,0,0,1-72.58,22.71c-25.17,3.23-53.22,3.48-76.67-7.44a146.77,146.77,0,0,1-67.26-61.55,80.92,80.92,0,0,0,12-56.87c-1.59-9.69-7.11-19.4-15.89-19.4h-.17c-5.31.07-10.54,4.27-12.72,10.2-2,5.39-1.6,11.26-.89,16.8a137,137,0,0,0,16.51,49.22c-.42.64-.84,1.26-1.28,1.88a79.86,79.86,0,0,1-50.65,32.29c-33.92,6.14-67.41-10.87-89.53-26.22-11.67-8.09-22.84-17.26-33.64-26.13-11.25-9.23-22.88-18.78-35.1-27.13-28.79-19.69-56.16-28.65-81.37-26.65C113.1,58.79,97.11,65,81.65,71.05c-6.46,2.52-13.14,5.13-19.78,7.34C44.06,84.31,19.67,88.76,0,78.87V80c19.89,9.76,44.33,5.3,62.19-.64C68.85,77.12,75.55,74.51,82,72c15.39-6,31.31-12.21,47.92-13.53,25-2,52.13,6.92,80.72,26.48,12.19,8.33,23.8,17.86,35,27.08,10.82,8.88,22,18.06,33.7,26.17C298.47,151.43,326,165.88,355,165.88a82.76,82.76,0,0,0,14.72-1.3A80.87,80.87,0,0,0,421,131.88l1-1.48a147.8,147.8,0,0,0,66.62,61.13.53.53,0,0,0,.11.09c10.9,5.18,22.73,7.81,34.71,8.91,49.17,4.53,100.42-10.47,140.66-38.71,21.77-15.28,40.63-34.33,60.64-51.76S769.21,82.4,795.36,78.5c52.08-7.76,108.52,6.46,150.58,38.13,18.18,13.69,40.24,33.27,40.75,57.9.24,11.2-4.13,21.31-15.58,24.4-9.46,2.56-20,.88-29.34-1.41-48.26-11.85-80.19-54.92-126.29-71.37-17.83-6.37-44.16-10.8-57.55,6.44-9.55,12.3-8.17,30.18-3.46,44.11,5.94,17.59,19.56,31.57,34,42.66,17.55,13.46,37.83,23,58.53,30.53,49.2,17.93,101.94,28.1,154.13,31.37,49.92,3.13,102.48,1.57,146.69-24.57C1182.78,236,1210.05,201.15,1208.38,159ZM405.92,80.07c-.7-5.41-1.08-11.13.83-16.32,1.67-4.54,6.07-9.47,11.79-9.55h.16c8.19,0,13.38,9.3,14.9,18.56a79.92,79.92,0,0,1-11.55,55.72A135.88,135.88,0,0,1,405.92,80.07Z"/></g></g></svg>