<svg xmlns="http://www.w3.org/2000/svg" viewBox="0 0 302.63 152.85"><defs><style>.cls-1{fill:#fff;}</style></defs><title>quizTopRight</title><g id="Layer_2" data-name="Layer 2"><g id="Layer_1-2" data-name="Layer 1"><path class="cls-1" d="M264.91,30.7a31.37,31.37,0,0,1,5.84-1.4c2.41-.39,5.17-.71,8.14-1.06,3.39-.4,7.06-.83,10.74-1.43,4.4-.71,8.8-1.65,13-2.57V22.8c-4.3.93-8.77,1.9-13.22,2.62-3.65.59-7.29,1-10.69,1.42-3,.35-5.75.68-8.19,1.07a32.58,32.58,0,0,0-6.12,1.47,7.74,7.74,0,0,0-4.24,3.25A42.43,42.43,0,0,0,247.76,31l-1.45,0c-6.08,0-13.4.57-20.92,1.15-3.5.27-7,.55-10.54.77l-3.15.2-3,.18c-6.38.41-12.46.94-16.46,2.82a6.32,6.32,0,0,0-.72-1.1c-2.12-2.57-6.31-3.13-11.12-3.13-2.54,0-5.34.16-8.27.32-3.24.19-6.62.38-10,.38h-.94A152.78,152.78,0,0,1,143.72,31,109.17,109.17,0,0,0,132.39,30H132a21.6,21.6,0,0,0-2.76.16,8.94,8.94,0,0,0-6.19,3.13A11.41,11.41,0,0,0,121.47,31a12,12,0,0,0-6.25-3.33c-2.22-.56-4.71-.92-9.87-1.66l-.78-.11h0C98.85,25.12,90,23.83,80.82,22c-1.78-.35-3.57-.72-5.34-1.09s-3.41-.71-5-1A65.57,65.57,0,0,0,59.1,18.35a13.77,13.77,0,0,0-1.77.11,7.06,7.06,0,0,0-1.72.45,10.42,10.42,0,0,0-2.35-3c-1.63-1.36-3.5-1.76-6.25-2.36-1-.22-2.18-.48-3.53-.82-5-1.27-12.77-3.75-20.79-6.38C19.27,5.26,11.93,2.7,4.24,0H0C9,3.17,18.27,6.41,22.25,7.71c8,2.62,15.78,5.12,20.89,6.41,1.37.34,2.55.6,3.57.83,2.84.62,4.33,1,5.64,2.06a9,9,0,0,1,2.06,2.63,4.33,4.33,0,0,0-1.27,4.06,9.52,9.52,0,0,0,.54,2.09,11,11,0,0,0,.43,1,7.46,7.46,0,0,0-1.36,3.57,7.35,7.35,0,0,0,.45,2.51c.2.58.45,1.16.7,1.71a10.9,10.9,0,0,0-.47,1.68,5,5,0,0,0,0,1.46,6.69,6.69,0,0,1,0,1.94,17.69,17.69,0,0,1-.73,2.75c-1.44,4.25-5.22,12.4-9.07,20.67l-26.68-.68a.7.7,0,0,0-.41,1.28l20.59,14.1L25.05,105.11a.71.71,0,0,0,1,.88L53.18,88.6l27.33,18.81a.72.72,0,0,0,.84,0,.7.7,0,0,0,.22-.8L70.39,77.38l18-11.59a.71.71,0,0,0,.3-.78A.7.7,0,0,0,88,64.5l-23.13-.93-7.47-19h0v0a10.34,10.34,0,0,1-1.12-3.81,1.73,1.73,0,0,1,.24-.63,3.5,3.5,0,0,0,.39-1.14,3.43,3.43,0,0,0-.21-1.61,17.72,17.72,0,0,0-.91-2l-.36-.75c.07-.18.13-.36.21-.56A16.8,16.8,0,0,0,56.7,30.4a4.3,4.3,0,0,0-.25-2,9.82,9.82,0,0,0-.6-1.27c-.05-.09-.1-.18-.14-.27A7.68,7.68,0,0,0,56.8,24a8,8,0,0,0-.59-3.82,5.84,5.84,0,0,1,1.31-.32,10.68,10.68,0,0,1,1.58-.1,64.8,64.8,0,0,1,11.06,1.52l5,1c1.77.37,3.56.74,5.35,1.09,9.23,1.82,18.1,3.11,23.82,3.93h0l.78.11c5.2.75,7.6,1.1,9.73,1.63A10.76,10.76,0,0,1,120.44,32a9.66,9.66,0,0,1,1.76,2.64,11.22,11.22,0,0,0-1,5.18,14,14,0,0,0,.71,4.22,16.72,16.72,0,0,0-.79,4,8.39,8.39,0,0,0,.94,4l.17.34-.32.45a4.17,4.17,0,0,0-.76,1.3.56.56,0,0,0,0,.12,13.6,13.6,0,0,0-.14,4.26c-7.32,2.72-14.82,5.6-19.72,12.62s-7.26,18.51-3.85,28,12.48,17,21.25,19.44a26.4,26.4,0,0,0,7.2,1,31,31,0,0,0,16-4.68c5.89-3.63,9.17-8.34,12.37-12.93a.71.71,0,0,0-1.06-.92c-3.08,2.92-6,5.73-10.6,7.39a26.41,26.41,0,0,1-8.89,1.51,24.63,24.63,0,0,1-7.36-1.09,30.1,30.1,0,0,1-13.61-9.72,20.31,20.31,0,0,1-4.83-12.23,25.86,25.86,0,0,1,3-13.47,24,24,0,0,1,9.49-9.17c3.79-2.08,7.86-3.14,12-4.22a.71.71,0,0,0,.52-.72.69.69,0,0,0-.58-.66c-1.32-.22-2.65-.44-3.9-.58-1-.11-2-.16-2.88-.2a9.15,9.15,0,0,0-.89-3.87c-.19-.39-.41-.79-.63-1.18l-.24-.43a2.37,2.37,0,0,0,.14-.32,11.73,11.73,0,0,0,.14-5.76,18.31,18.31,0,0,0-.55-1.77c-.06-.16-.11-.31-.16-.48l0-.11a23.21,23.21,0,0,0,1-4.83,10.68,10.68,0,0,0-.67-4.34c1-1.54,2.69-2.81,5.69-3.2a20.16,20.16,0,0,1,2.58-.15h.35a109.09,109.09,0,0,1,11.16,1.06A156.12,156.12,0,0,0,161.13,34h1c3.42,0,6.85-.19,10.09-.38,2.93-.17,5.69-.33,8.18-.33,4.9,0,8.39.63,10,2.63a4.62,4.62,0,0,1,.56.87,7.62,7.62,0,0,0-2.49,2.39c-2.28,3.65-.7,9.48.8,14.15-.3.92-.59,1.8-.85,2.62s-.56,1.69-.77,2.39a13.85,13.85,0,0,0-.79,3.63,2.23,2.23,0,0,0,.11.73,1.17,1.17,0,0,0,.93.75h.41l-.15,0a4.4,4.4,0,0,0-3,3c-5.17,3.07-10.45,6.21-13.86,10-3.23,3.56-5.15,8.17-1.53,11.46.16.14.32.28.49.41,3.89,3,13,4.38,20.19,4.52h1.22a81.64,81.64,0,0,0,16.63-2,6.21,6.21,0,0,1-1,1.23,15.31,15.31,0,0,1-1.86,1.51A15.76,15.76,0,0,0,203.74,95c-1.71,1.69-2.25,3.87-2.24,7.39,0,.24,0,.48,0,.73,0,1.6.16,3.47.29,5.45.15,2.29.31,4.73.37,7.13.1,4.85-.26,9.39-1.49,11.87a3.93,3.93,0,0,1-3.39,2.5,2.36,2.36,0,0,1-.9-.16c-1.08-.41-1.89-1.73-1.95-5.58,0-.82,0-1.74.05-2.73.08-1.76.23-3.72.38-5.72s.32-4.11.4-6c.22-4.73,0-8.67-1.86-11a6.14,6.14,0,0,0-4.76-2.34,4.91,4.91,0,0,0-3,1c-2.28,1.73-3.12,5.72-3.41,11.34,0,.19,0,.38,0,.58-.14,3.05-.13,6.62-.12,9.89,0,2.81,0,5.4-.07,7.3-.17,4-.75,4.15-1.26,4.15a2.58,2.58,0,0,1-.49-.06,7.86,7.86,0,0,1-5.34-4.1c-.82-1.79-.88-4.24-.79-6.82l.06-1.46c0-.48,0-.94,0-1.4,0-.89,0-1.73.05-2.55a42.19,42.19,0,0,1,.49-6.94c.13-.78.3-1.61.47-2.47.6-2.92,1.31-6.31.66-9.37-.5-2.31-2-5.07-3.93-5.07-1.27,0-2.18,1.13-2.77,2.88-1.65,4.88-1.9,17.62-1.72,24.59s.82,8.57,2.05,11.37v.05l0,0c1,2.29,2.48,5.68,4.74,8a12.08,12.08,0,0,0,2.7,3.74,23.41,23.41,0,0,0,7.73,4.41l1,.36c.93.35,1.73.66,2.42,1l-.08.12c-1,2.19.83,5.07,2.12,5.67a1.3,1.3,0,0,0,.35.11l.11,0h.15a1.23,1.23,0,0,0,.9-.39,2.65,2.65,0,0,0,.55-1.8,5.51,5.51,0,0,0-.84-2.91,4.85,4.85,0,0,0-1.1-1.16,12.36,12.36,0,0,1,1.83-1c.69-.33,1.48-.67,2.34-1s2.1-.91,3.25-1.46c4.32-2.07,9.31-5.25,11.43-14.43,2-8.83,1.4-23.28.72-37.69l.08-.15c1.18-2.74.79-6.92-.63-10.47a20.35,20.35,0,0,0-7.14-8.94,46.71,46.71,0,0,0-10.31-5,18.88,18.88,0,0,0-.72-2.34c1.15-.67,1.93-2,1.29-5a47,47,0,0,0-1.33-4.53l-.39-1.18c.06-.18.11-.35.17-.52,1.48-4.84,3.09-11.13,1.82-15.37,3.54-1.69,9.27-2.29,16-2.72l3-.19,3.16-.19c3.51-.23,7.06-.5,10.56-.77,7.53-.59,14.79-1.15,20.81-1.15h1.43a41.42,41.42,0,0,1,11.91,1.57,8.31,8.31,0,0,0,.41,4.69,29.34,29.34,0,0,0,1.66,3.66l.14.26a13.74,13.74,0,0,0-1,2.68,8.25,8.25,0,0,0,.3,4.4c.08.27.18.54.28.8a11.35,11.35,0,0,0-.93,1.72c-.88,2.21-.52,4.74-.17,7.05L251,80.32l-26.19-.69a.71.71,0,0,0-.43,1.28l20.12,14.38L232,123a.71.71,0,0,0,1,.88l27.42-18,27.83,19.38a.71.71,0,0,0,.84,0,.71.71,0,0,0,.22-.81L277.8,94.52l18-11.51a.71.71,0,0,0-.36-1.3l-23-.79-8.22-21.27a14.1,14.1,0,0,0-.19-6.52c-.2-.62-.46-1.26-.72-1.88L263,50.6a7.48,7.48,0,0,0,1.66-4.21,6.34,6.34,0,0,0-.37-1.8,17.32,17.32,0,0,0-.91-2.06l.12-.25a18,18,0,0,0,1.36-3.53,4.28,4.28,0,0,0-.28-3,6.25,6.25,0,0,0-3.11-2.55A6.56,6.56,0,0,1,264.91,30.7Zm-210-2.4c.1.21.19.4.26.59a2.86,2.86,0,0,1,.17,1.36,11.5,11.5,0,0,1-.68,2.4l-.09-.23a5.8,5.8,0,0,1-.37-2A4.77,4.77,0,0,1,54.87,28.3Zm.64,10.42a2,2,0,0,1-.25.7,3.14,3.14,0,0,0-.38,1.07c-.16,1.22.61,3,1.22,4.53v0h0l7.63,19.48a.71.71,0,0,0,.63.45l21.37.85L69.14,76.5a.71.71,0,0,0-.27.85L79.44,105,53.59,87.18a.69.69,0,0,0-.78,0L27.29,103.54,38.64,77.82a.69.69,0,0,0-.25-.86L19.28,63.88,44,64.51a.69.69,0,0,0,.65-.41c3.9-8.37,7.83-16.81,9.32-21.23a18.16,18.16,0,0,0,.79-3,7.92,7.92,0,0,0,0-2.32,3.57,3.57,0,0,1,0-1.08h0a11.58,11.58,0,0,1,.55,1.26A2.06,2.06,0,0,1,55.51,38.72Zm-.11-14.9A5.08,5.08,0,0,1,55,25.23a7.9,7.9,0,0,1-.45-1.72A3.16,3.16,0,0,1,55,21,6.36,6.36,0,0,1,55.4,23.82Zm67.49,13A8.58,8.58,0,0,1,123,39a13.34,13.34,0,0,1-.34,2.17c-.05-.42-.08-.87-.09-1.37A11.07,11.07,0,0,1,122.89,36.83Zm-.19,9.74h0a10.66,10.66,0,0,1,.17,3.75,6.06,6.06,0,0,1-.36-2.24A8.42,8.42,0,0,1,122.7,46.57Zm.7,8a8.6,8.6,0,0,1,.77,3.95h0a.69.69,0,0,0,.68.68c1.13,0,2.24.09,3.44.22l.48.06A42.26,42.26,0,0,0,119.69,63a25.43,25.43,0,0,0-10,9.73,27.28,27.28,0,0,0-3.2,14.22,21.75,21.75,0,0,0,5.14,13,31.46,31.46,0,0,0,14.28,10.18,25.72,25.72,0,0,0,7.79,1.16,27.76,27.76,0,0,0,9.37-1.6,23.76,23.76,0,0,0,6.23-3.43,31.33,31.33,0,0,1-8.16,7.37,29.57,29.57,0,0,1-15.26,4.47,25,25,0,0,1-6.81-.93c-8.39-2.37-17.07-9.56-20.31-18.57s-1.07-19.9,3.68-26.7,12-9.48,19.55-12.28a.72.72,0,0,0,.46-.71,14.62,14.62,0,0,1,0-4.28.25.25,0,0,1,0-.07,3.1,3.1,0,0,1,.5-.84C123.12,54,123.28,54.3,123.4,54.56Zm53,82.85a9.3,9.3,0,0,1-.9-.78,1.76,1.76,0,0,1-.13-.57h0a10.84,10.84,0,0,1,2.61.73,32.12,32.12,0,0,0,3.78,1.12,16.14,16.14,0,0,0,3.33.33,33.14,33.14,0,0,0,6.8-.88c1-.2,1.95-.43,2.93-.65l2.75-.62a21,21,0,0,1,3.63-.55h.31a5.09,5.09,0,0,1-1.74,1.36,23,23,0,0,1-6.67,1.81,49.13,49.13,0,0,1-7.43.72h-1C181.93,139.46,178.77,139.14,176.44,137.41Zm14.4,13.25a2,2,0,0,1-.11.74c-.78-.43-2-2.49-1.38-3.77h0a3.49,3.49,0,0,1,.87.89A4.12,4.12,0,0,1,190.84,150.66Zm16.94-22.36c-2,8.63-6.57,11.52-10.66,13.48-1.12.54-2.19,1-3.2,1.43-.85.37-1.67.72-2.39,1.07a10.9,10.9,0,0,0-2.47,1.51,28.1,28.1,0,0,0-2.84-1.18l-.95-.36a21.9,21.9,0,0,1-7.25-4.11l-.48-.49a18.08,18.08,0,0,0,7.21,1.22h1a51.26,51.26,0,0,0,7.63-.74,24.29,24.29,0,0,0,7.1-2c1.17-.61,2.38-1.58,2.56-2.51,0,0,0-.08,0-.13h0a1.14,1.14,0,0,0-.59-1.13,2,2,0,0,0-.81-.24l-.41,0a21.82,21.82,0,0,0-3.92.59c-.88.18-1.83.4-2.78.62l-2.9.64a31.39,31.39,0,0,1-6.51.85,14.74,14.74,0,0,1-3-.3,27.34,27.34,0,0,1-3.6-1.08,11.53,11.53,0,0,0-3.07-.8,1.75,1.75,0,0,0-.55.08,1.19,1.19,0,0,0-.26.11,1.33,1.33,0,0,0-.26.21.94.94,0,0,0-.09.12,32.82,32.82,0,0,1-3.39-6.32l0,0v-.06c-1.14-2.6-1.75-4-1.93-10.84s.09-19.51,1.65-24.1c.57-1.68,1.17-1.92,1.43-1.92.74,0,2,1.52,2.55,4,.58,2.71,0,5.8-.66,8.79-.17.85-.35,1.7-.48,2.51a42.59,42.59,0,0,0-.5,7.16c0,.82,0,1.65,0,2.52,0,.45,0,.91-.06,1.39s0,1-.06,1.48c-.08,2.54-.05,5.32.92,7.45a9.3,9.3,0,0,0,6.36,4.9h0a4.78,4.78,0,0,0,.75.08c2.07,0,2.52-2,2.67-5.5.08-1.93.08-4.56.07-7.37,0-3.28,0-6.81.11-9.82l0-.56c.3-5.77,1.17-9,2.85-10.3a3.54,3.54,0,0,1,2.15-.69,4.76,4.76,0,0,1,3.65,1.81c1.5,1.91,1.78,5.3,1.57,10.12-.09,1.87-.24,3.92-.4,6s-.31,4-.39,5.77c0,1-.06,2-.05,2.81.06,3.82.84,6.11,2.86,6.88a3.82,3.82,0,0,0,1.4.25,5.33,5.33,0,0,0,4.65-3.28c1.41-2.84,1.74-7.7,1.63-12.53,0-2.44-.21-4.91-.36-7.19-.13-2-.26-3.83-.29-5.39,0-.24,0-.48,0-.7,0-3.41.52-5.1,1.82-6.39a15.23,15.23,0,0,1,1.59-1.27,20.41,20.41,0,0,0,2-1.64l.23-.25C209.2,106.7,209.68,120.07,207.78,128.3Zm-6.41-55.78A19,19,0,0,1,208,80.83,14.7,14.7,0,0,1,209,89.3a83.89,83.89,0,0,1-17.27,2.1h-1.19c-7.27-.14-15.88-1.55-19.36-4.23-.14-.11-.28-.22-.4-.33-2.62-2.38-1.59-5.93,1.63-9.47s8.44-6.68,13.74-9.82a.74.74,0,0,0,.29-.34c.48-1.19.85-2,2.13-2.4l.4-.1.29-.06.31-.06.3-.07A23.61,23.61,0,0,1,190.6,67a.71.71,0,0,0,.43.48C194.76,69,198.38,70.38,201.37,72.52Zm-10.3-13.25c.47,2.19.09,3.07-.57,3.5a2,2,0,0,0-1.16-.81l-.37,0c-.2,0-.4,0-.54,0l-.17,0v-.08A12.88,12.88,0,0,1,189,58.7c.21-.68.47-1.48.76-2.36.09-.26.17-.51.26-.78C190.46,57,190.86,58.26,191.07,59.27ZM190,50.85c-1.21-4.16-2-8.35-.34-11a6.09,6.09,0,0,1,1.81-1.8C192.31,41.36,191.32,46.25,190,50.85Zm72.81,8.79a.69.69,0,0,0,0,.35l8.45,21.87a.71.71,0,0,0,.63.45l21.25.73-16.61,10.6a.71.71,0,0,0-.28.85l11,28.26L260.9,104.41a.69.69,0,0,0-.79,0l-25.8,17,11.69-26a.71.71,0,0,0-.24-.86L227,81.1l24.36.64a.71.71,0,0,0,.66-.42l9.68-21.74a.73.73,0,0,0,.05-.39c-.37-2.46-.68-4.66.06-6.51a6.36,6.36,0,0,1,.28-.59c.21.51.41,1,.56,1.46A13.08,13.08,0,0,1,262.8,59.64Zm-.35-10.73a6.71,6.71,0,0,1-.19-3.37,8.15,8.15,0,0,1,.42-1.3c.12.28.23.55.32.81a4.55,4.55,0,0,1,.29,1.38A4.64,4.64,0,0,1,262.45,48.91Zm.93-12.55a3,3,0,0,1,.15,2.08,13,13,0,0,1-.92,2.49,22,22,0,0,1-1.22-2.77,6.88,6.88,0,0,1-.41-3.71A4.94,4.94,0,0,1,263.38,36.36Z"/><polygon class="cls-1" points="201.78 135.61 201.78 135.61 201.78 135.61 201.78 135.61"/></g></g></svg>