<svg xmlns="http://www.w3.org/2000/svg" xmlns:xlink="http://www.w3.org/1999/xlink" viewBox="0 0 1843.86 1003.37"><defs><style>.cls-1{fill:none;}.cls-2{isolation:isolate;}.cls-3{fill:#00a0d7;}.cls-4{opacity:0.1;mix-blend-mode:soft-light;}.cls-5{clip-path:url(#clip-path);}.cls-6{fill:url(#linear-gradient);}</style><clipPath id="clip-path" transform="translate(202.39 19.65)"><path class="cls-1" d="M30,0H1620a0,0,0,0,1,0,0V983.72a0,0,0,0,1,0,0H0a0,0,0,0,1,0,0V30A30,30,0,0,1,30,0Z"/></clipPath><linearGradient id="linear-gradient" x1="-43.7" y1="482.03" x2="1582.88" y2="482.03" gradientUnits="userSpaceOnUse"><stop offset="0" stop-color="#fff" stop-opacity="0"/><stop offset="1" stop-color="#fff"/></linearGradient></defs><title>QuizNight</title><g class="cls-2"><g id="Layer_2" data-name="Layer 2"><g id="Layer_1-2" data-name="Layer 1"><path class="cls-3" d="M232.39,19.65h1590a0,0,0,0,1,0,0v983.72a0,0,0,0,1,0,0h-1620a0,0,0,0,1,0,0V49.65A30,30,0,0,1,232.39,19.65Z"/><g class="cls-4"><g class="cls-5"><path class="cls-6" d="M1641.47,111.87V74.54a37.81,37.81,0,0,0-52.4-14c-.6.33-1.18.69-1.75,1.06l3.74-2.55-45-66.3a29.32,29.32,0,0,0,5-4.13,38.4,38.4,0,0,0,6.45-8.32h-11.87a24.32,24.32,0,0,1-15.52,5.57,24.34,24.34,0,0,1-15.53-5.57h-11a29.43,29.43,0,0,0,2.41,4.37,29.66,29.66,0,0,1-4.38-4.37h-9.71A38.14,38.14,0,0,0,1503.3-7.23l-45,66.33,3.85,2.62,45.12-66.51-.36-.25A37.62,37.62,0,0,0,1524.68-.6a37.62,37.62,0,0,0,18.12-4.67l-.71.48,45.12,66.5a29.63,29.63,0,0,0-5.07,4.2,38.58,38.58,0,0,0-5.8,7.18l-39.57-22.3-9.52-13.87h.12l0-37.52h-4.65l0,37.52-9.53,13.89-40,22.51,2.29,4.05.22-.13h0L1515,55.15H1535l39.09,22A37.94,37.94,0,0,0,1571,87.91h-92.8a37.85,37.85,0,0,0-56.93-27.32c-.6.33-1.18.69-1.75,1.06l3.75-2.55-45-66.3a29.72,29.72,0,0,0,5-4.13,38.05,38.05,0,0,0,6.44-8.32h-11.87a24.3,24.3,0,0,1-15.52,5.57,24.32,24.32,0,0,1-15.52-5.57h-11a29.38,29.38,0,0,0,2.4,4.37,30.66,30.66,0,0,1-4.38-4.37H1324a38.17,38.17,0,0,0,11.46,12.42l-45,66.33,3.85,2.62,45.12-66.51-.37-.25A37.62,37.62,0,0,0,1356.83-.6,37.56,37.56,0,0,0,1375-5.27l-.7.48,45.12,66.5a29.7,29.7,0,0,0-5.08,4.2,38.26,38.26,0,0,0-5.8,7.18l-39.57-22.3-9.52-13.87h.13l-.06-37.52h-4.65l.06,37.52-9.53,13.89L1305.4,73.32l2.28,4.05.23-.13h0l39.21-22.09h20.06l39.1,22a37.62,37.62,0,0,0-3.17,10.73h-92.8a37.85,37.85,0,0,0-56.93-27.32c-.6.33-1.19.69-1.76,1.06l3.75-2.55-45-66.3a29.32,29.32,0,0,0,5-4.13,38.4,38.4,0,0,0,6.45-8.32h-11.87a24.32,24.32,0,0,1-15.52,5.57,24.3,24.3,0,0,1-15.52-5.57h-11.05a29.43,29.43,0,0,0,2.41,4.37,29.66,29.66,0,0,1-4.38-4.37h-9.71a38.25,38.25,0,0,0,11.45,12.42l-45,66.33,3.85,2.62,45.12-66.51-.36-.25A37.62,37.62,0,0,0,1189-.6a37.56,37.56,0,0,0,18.12-4.67l-.71.48,45.12,66.5a29.63,29.63,0,0,0-5.07,4.2,38.58,38.58,0,0,0-5.8,7.18l-39.57-22.3-9.52-13.87h.12l0-37.52H1187l0,37.52-9.53,13.89-39.94,22.51,2.28,4.05.23-.13h0l39.2-22.09h20.07l39.1,22a37.63,37.63,0,0,0-3.18,10.73h-92.8a37.85,37.85,0,0,0-56.93-27.32c-.6.33-1.18.69-1.75,1.06l3.75-2.55-45-66.3a29.72,29.72,0,0,0,5-4.13,38.4,38.4,0,0,0,6.45-8.32h-11.88a24.3,24.3,0,0,1-15.52,5.57A24.32,24.32,0,0,1,1011-19.65h-11a29.38,29.38,0,0,0,2.4,4.37A30.66,30.66,0,0,1,998-19.65h-9.71A38.17,38.17,0,0,0,999.77-7.23l-45,66.33,3.85,2.62,45.12-66.51-.37-.25A37.66,37.66,0,0,0,1021.15-.6a37.55,37.55,0,0,0,18.11-4.67l-.7.48,45.12,66.5a29.7,29.7,0,0,0-5.08,4.2,38.26,38.26,0,0,0-5.8,7.18l-39.56-22.3-9.53-13.87h.13l-.06-37.52h-4.65l.06,37.52-9.53,13.89L969.71,73.32,972,77.37l.23-.13h0l39.21-22.09h20.06l39.1,22a37.62,37.62,0,0,0-3.17,10.73h-92.8a37.85,37.85,0,0,0-56.93-27.32c-.6.33-1.19.69-1.76,1.06l3.75-2.55-45-66.3a29.32,29.32,0,0,0,5-4.13,38.4,38.4,0,0,0,6.45-8.32H874.24a24.32,24.32,0,0,1-15.52,5.57,24.3,24.3,0,0,1-15.52-5.57H832.15a29.43,29.43,0,0,0,2.41,4.37,30.16,30.16,0,0,1-4.38-4.37h-9.71A38.25,38.25,0,0,0,831.92-7.23l-45,66.33,3.85,2.62L835.89-4.79,835.53-5A37.62,37.62,0,0,0,853.3-.6a37.56,37.56,0,0,0,18.12-4.67l-.7.48,45.11,66.5a30,30,0,0,0-5.07,4.2,38.58,38.58,0,0,0-5.8,7.18l-39.57-22.3-9.52-13.87H856l0-37.52h-4.65l.05,37.52-9.53,13.89L801.87,73.32l2.28,4.05.23-.13h0l39.2-22.09h20.07l39.1,22a37.63,37.63,0,0,0-3.18,10.73H806.78a38,38,0,0,0-37.53-32.69H769a37.58,37.58,0,0,0-19.33,5.33l2.14-1.45-45-66.3a29.72,29.72,0,0,0,5-4.13,38.4,38.4,0,0,0,6.45-8.32H706.18a24.34,24.34,0,0,1-15.41,5.57,24.34,24.34,0,0,1-15.42-5.57H664.1a29.55,29.55,0,0,0,2.17,4,30.94,30.94,0,0,1-3.94-4h-9.92A38.25,38.25,0,0,0,663.86-7.23l-45,66.33,3.84,2.62,14.34-21.14v.32L668-4.76A37.6,37.6,0,0,0,685.24-.6h.22a37.55,37.55,0,0,0,17.26-4.23l-.06,0,45.11,66.5a30,30,0,0,0-5.07,4.2A38.49,38.49,0,0,0,737,73L697.55,50.79,688,36.92h.13L688.09-.61h-4.86l0,37.52-9.53,13.89L633.81,73.32l2.28,4.05.23-.13h0l.73-.41V77l38.69-21.8h19.85l39.1,22a37.63,37.63,0,0,0-3.18,10.73H638.93a37.81,37.81,0,0,0-1.88-7.61v.62a37.84,37.84,0,0,0-55.27-20.33c-.6.33-1.18.69-1.75,1.06l3.75-2.55-45-66.3a29.32,29.32,0,0,0,5-4.13,38.4,38.4,0,0,0,6.45-8.32H538.34a24.34,24.34,0,0,1-15.52,5.57,24.34,24.34,0,0,1-15.53-5.57h-11a29.43,29.43,0,0,0,2.41,4.37,30.23,30.23,0,0,1-4.39-4.37h-9.7A38.14,38.14,0,0,0,496-7.23L451,59.1l3.85,2.62L500-4.79,499.63-5A37.59,37.59,0,0,0,517.4-.6a37.62,37.62,0,0,0,18.12-4.67l-.71.48,45.12,66.5a29.25,29.25,0,0,0-5.07,4.2,38.26,38.26,0,0,0-5.8,7.18l-39.57-22.3L520,36.92h.12L520-.61h-4.65l.06,37.52-9.53,13.89L466,73.32l2.28,4.05.23-.13h0l39.21-22.09h20.07l39.09,22a37.94,37.94,0,0,0-3.17,10.73h-92.8a37.85,37.85,0,0,0-56.93-27.32c-.6.33-1.18.69-1.76,1.06l3.76-2.55L371-7.2a29.72,29.72,0,0,0,5-4.13,38.36,38.36,0,0,0,6.44-8.32H370.49A24.3,24.3,0,0,1,355-14.08a24.32,24.32,0,0,1-15.52-5.57h-11a29.38,29.38,0,0,0,2.4,4.37,30.16,30.16,0,0,1-4.38-4.37h-9.71A38.17,38.17,0,0,0,328.18-7.23l-45,66.33L287,61.72,332.14-4.79,331.78-5A37.62,37.62,0,0,0,349.55-.6a37.56,37.56,0,0,0,18.12-4.67l-.7.48,45.11,66.5a30,30,0,0,0-5.07,4.2,38.58,38.58,0,0,0-5.8,7.18l-39.57-22.3-9.52-13.87h.13L352.19-.61h-4.65l.06,37.52-9.53,13.89L298.12,73.32l2.28,4.05.23-.13h0l39.2-22.09H359.9l39.1,22a37.62,37.62,0,0,0-3.17,10.73H303a37.86,37.86,0,0,0-56.94-27.32c-.59.33-1.18.69-1.75,1.06l3.75-2.55-45-66.3a29.32,29.32,0,0,0,5-4.13,38.4,38.4,0,0,0,6.45-8.32H202.65a24.34,24.34,0,0,1-15.52,5.57,24.34,24.34,0,0,1-15.53-5.57h-11A29.43,29.43,0,0,0,163-15.28a29.66,29.66,0,0,1-4.38-4.37h-9.71A38.14,38.14,0,0,0,160.33-7.23l-45,66.33,3.85,2.62L164.3-4.79,163.94-5A37.62,37.62,0,0,0,181.71-.6a37.62,37.62,0,0,0,18.12-4.67l-.71.48,45.12,66.5a29.25,29.25,0,0,0-5.07,4.2,38.26,38.26,0,0,0-5.8,7.18L193.8,50.79l-9.52-13.87h.12L184.35-.61H179.7l.05,37.52-9.53,13.89L130.27,73.32l2.29,4.05.22-.13h0L172,55.15h20.07l39.09,22A37.94,37.94,0,0,0,228,87.91h-92.8A37.85,37.85,0,0,0,78.25,60.59c-.6.33-1.18.69-1.75,1.06l3.75-2.55-45-66.3a29.72,29.72,0,0,0,5-4.13,38.05,38.05,0,0,0,6.44-8.32H34.8a24.3,24.3,0,0,1-15.52,5.57A24.32,24.32,0,0,1,3.76-19.65h-11a29.38,29.38,0,0,0,2.4,4.37,30.16,30.16,0,0,1-4.38-4.37H-19A38.17,38.17,0,0,0-7.51-7.23l-45,66.33,3.84,2.62L-3.54-4.79-3.91-5A37.65,37.65,0,0,0,13.86-.6,37.63,37.63,0,0,0,32-5.27l-.71.48L76.4,61.71a29.7,29.7,0,0,0-5.08,4.2,38.58,38.58,0,0,0-5.8,7.18L26,50.79,16.43,36.92h.13L16.5-.61H11.85l.06,37.52L2.38,50.81-37.57,73.32l2.28,4.05.23-.13h0L4.15,55.15H24.21l39.1,22a37.62,37.62,0,0,0-3.17,10.73h-92.8A37.94,37.94,0,0,0-70.19,55.22a37.6,37.6,0,0,0-19.4,5.37c-.6.33-1.18.69-1.76,1.06l3.75-2.55-45-66.3a29.32,29.32,0,0,0,5-4.13,38.4,38.4,0,0,0,6.45-8.32H-133a24.32,24.32,0,0,1-15.52,5.57,24.34,24.34,0,0,1-15.53-5.57h-11a29.43,29.43,0,0,0,2.41,4.37,29.66,29.66,0,0,1-4.38-4.37h-9.71A38.14,38.14,0,0,0-175.36-7.23l-27,39.84V40.9l31-45.69-.36-.25A37.62,37.62,0,0,0-154-.6a37.62,37.62,0,0,0,18.12-4.67l-.71.48,45.12,66.5a29.25,29.25,0,0,0-5.07,4.2,38.58,38.58,0,0,0-5.8,7.18l-39.57-22.3-9.52-13.87h.12l-.05-37.52H-156l.05,37.52-9.53,13.89-36.92,20.8V77l38.69-21.8h20.07l39.09,22a37.94,37.94,0,0,0-3.17,10.73h-92.8a37.15,37.15,0,0,0-1.88-7.61v25.81a37.67,37.67,0,0,0,2.26-12.88c0-.23,0-.45,0-.67h92.08c0,.22,0,.44,0,.67a38,38,0,0,0,2.66,14L-144.08,129h-20.07l-38.24-21.54v5.34l36.5,20.56,9.52,13.88h-.12l.1,38.84h4.65l-.1-38.83,9.53-13.89,38.84-21.89a38.13,38.13,0,0,0,11.9,13.18l-45,66.33,3.12,2.12A37.66,37.66,0,0,0-154,187a37.57,37.57,0,0,0-19.41,5.38,29.21,29.21,0,0,0-6.92,5.32,37.94,37.94,0,0,0-5.9,7.33l-16.18-9.11v5.34l14,7.88a37.5,37.5,0,0,0-3.1,10.55h-10.89v4.66h10.53c0,.22,0,.44,0,.66a38.07,38.07,0,0,0,2.65,14l-13.16,7.42v5.34l15.13-8.53a38.16,38.16,0,0,0,11.9,13.19l-27,39.84v8.28l31-45.69-.36-.24A37.61,37.61,0,0,0-154,263a37.61,37.61,0,0,0,18.12-4.66l-.71.47,45.12,66.51a28.81,28.81,0,0,0-5.07,4.2,38.19,38.19,0,0,0-5.8,7.17l-39.57-22.29-9.52-13.88h.12l-.05-37.52H-156l.05,37.52-9.53,13.89-36.92,20.8v5.34l38.69-21.8h20.07l39.1,22a37.63,37.63,0,0,0-3.18,10.73h-92.8a37,37,0,0,0-1.88-7.61v25.8a37.63,37.63,0,0,0,2.26-12.88c0-.22,0-.44,0-.66h92.08c0,.22,0,.44,0,.66a37.87,37.87,0,0,0,2.66,14l-38.65,21.78h-20.07L-202.39,371v5.35l36.5,20.56,9.52,13.88h-.12l.1,38.84h4.65l-.1-38.84,9.53-13.89L-103.47,375a38.16,38.16,0,0,0,11.9,13.19l-45,66.33,3.11,2.11A37.65,37.65,0,0,0-154,450.61,37.57,37.57,0,0,0-173.39,456a29,29,0,0,0-6.92,5.32,37.64,37.64,0,0,0-5.9,7.33l-16.18-9.12v5.34l14,7.88a37.66,37.66,0,0,0-3.1,10.56h-10.89V488h10.53c0,.23,0,.45,0,.67a38.15,38.15,0,0,0,2.65,14L-202.39,510v5.34l15.13-8.53A38.13,38.13,0,0,0-175.36,520l-27,39.85v8.28l31-45.69-.36-.24A37.73,37.73,0,0,0-154,526.63,37.44,37.44,0,0,0-135.87,522l-.7.48,45.12,66.5a28.86,28.86,0,0,0-5.07,4.21,38.19,38.19,0,0,0-5.8,7.17L-141.89,578l-9.52-13.88h.12l-.05-37.52H-156l.05,37.52L-165.47,578l-36.92,20.8v5.35l38.69-21.8h20.07l39.1,22a37.66,37.66,0,0,0-3.18,10.72h-92.8a37.06,37.06,0,0,0-1.88-7.6v25.8a37.63,37.63,0,0,0,2.26-12.88c0-.22,0-.44,0-.66h92.08c0,.22,0,.44,0,.66a38,38,0,0,0,2.66,14l-38.65,21.78h-20.07l-38.24-21.55V640l36.5,20.57,9.52,13.88h-.12l.1,38.84,4.65,0-.1-38.83,9.53-13.89,38.84-21.89a38.13,38.13,0,0,0,11.9,13.18l-45,66.33,3.12,2.12A37.65,37.65,0,0,0-154,714.23a37.66,37.66,0,0,0-19.41,5.37,29.21,29.21,0,0,0-6.92,5.32,38.24,38.24,0,0,0-5.9,7.33l-16.18-9.11v5.34l14,7.88a37.56,37.56,0,0,0-3.1,10.56h-10.89v4.65h10.53c0,.22,0,.44,0,.67a38.15,38.15,0,0,0,2.65,14l-13.16,7.41V779l15.13-8.52a38.13,38.13,0,0,0,11.9,13.18l-27,39.84v8.29l31-45.69-.36-.25A37.62,37.62,0,0,0-154,790.25a37.62,37.62,0,0,0,18.12-4.67l-.71.48,45.12,66.5a29.25,29.25,0,0,0-5.07,4.2,38.58,38.58,0,0,0-5.8,7.18l-39.57-22.3-9.52-13.87h.12l-.05-37.53H-156l.05,37.52-9.53,13.89-36.92,20.8v5.34L-163.7,846h20.07l39.1,22a37.63,37.63,0,0,0-3.18,10.73h-92.8a37.15,37.15,0,0,0-1.88-7.61V897a37.67,37.67,0,0,0,2.26-12.88c0-.23,0-.45,0-.67h92.08c0,.22,0,.44,0,.67a38,38,0,0,0,2.66,14l-38.65,21.77h-20.07l-38.24-21.54v5.34l36.5,20.56,9.52,13.88h-.12l.1,38.84h4.65l-.1-38.83,9.53-13.89,38.84-21.89a38.23,38.23,0,0,0,11.9,13.18l-45,66.33,2.83,1.93h1.49L-87.6,917.9l-.36-.25a37.62,37.62,0,0,0,17.77,4.44,37.56,37.56,0,0,0,18.12-4.67l-.7.48,44.65,65.82h1.48l2.83-1.93-45-66.3a29.32,29.32,0,0,0,5-4.13,38.41,38.41,0,0,0,6.91-9.08L2,924.18l9.53,13.88h-.13l.11,38.84h4.65L16,938.06l9.53-13.89,38.85-21.89a38.13,38.13,0,0,0,11.9,13.18l-45,66.33,2.83,1.93h1.48L80.25,917.9l-.37-.25a37.63,37.63,0,0,0,35.89-.23l-.7.48,44.65,65.82h1.49l2.83-1.93-45-66.3a29.72,29.72,0,0,0,5-4.13,38.1,38.1,0,0,0,6.9-9.08l38.88,21.9,9.52,13.88h-.13l.11,38.84H184l-.11-38.83,9.53-13.89,38.85-21.89a38.13,38.13,0,0,0,11.9,13.18l-45,66.33,2.83,1.93h1.49l44.65-65.82-.36-.25a37.63,37.63,0,0,0,35.89-.23l-.71.48,44.66,65.82h1.48l2.83-1.93-45-66.3a29.32,29.32,0,0,0,5-4.13,38.1,38.1,0,0,0,6.9-9.08l38.88,21.9,9.53,13.88H347l.11,38.84h4.65l-.11-38.83,9.53-13.89,38.85-21.89A38.13,38.13,0,0,0,412,915.46l-45,66.33,2.83,1.93h1.48l44.66-65.82-.37-.25a37.63,37.63,0,0,0,35.89-.23l-.7.48,44.65,65.82h1.49l2.83-1.93-45-66.3a29.72,29.72,0,0,0,5-4.13,38.1,38.1,0,0,0,6.9-9.08l38.88,21.9L515,938.06h-.13L515,976.9h4.65l-.11-38.83,9.53-13.89,38.85-21.89a38.13,38.13,0,0,0,11.9,13.18l-45,66.33,2.83,1.93h1.49l44.65-65.82-.36-.25a37.63,37.63,0,0,0,35.89-.23l-.71.48,44.66,65.82h1.48l2.83-1.93-45-66.3a29.32,29.32,0,0,0,5-4.13,38.1,38.1,0,0,0,6.9-9.08l38.88,21.9,9.52,13.88h-.12l.11,38.84h4.86l-.11-38.83,9.53-13.89,38.69-21.8a38.18,38.18,0,0,0,11.85,13.09l-45,66.33,2.83,1.93h1.7l44.63-65.79A37.6,37.6,0,0,0,769,922.09h.22a37.51,37.51,0,0,0,17.25-4.23l0,0,15.58,23v-.32l29.29,43.17h1.48l2.83-1.93-45-66.3a29.32,29.32,0,0,0,5-4.13,38.1,38.1,0,0,0,6.9-9.08l38.88,21.9,9.52,13.88h-.12l.11,38.84h4.65l-.11-38.83L865,924.17l38.85-21.89a38,38,0,0,0,11.9,13.18l-45,66.33,2.83,1.93H875l44.65-65.82-.36-.25a37.63,37.63,0,0,0,35.89-.23l-.7.48,44.65,65.82h1.48l2.84-1.93-45-66.3a28.93,28.93,0,0,0,5-4.13,37.88,37.88,0,0,0,6.91-9.08l38.87,21.9,9.53,13.88h-.13l.11,38.84h4.65l-.11-38.83,9.53-13.89,38.85-21.89a38.13,38.13,0,0,0,11.9,13.18l-45,66.33,2.83,1.93h1.49l44.65-65.82-.36-.25a37.63,37.63,0,0,0,35.89-.23l-.71.48L1167,983.72h1.49l2.83-1.93-45-66.3a29.72,29.72,0,0,0,5-4.13,38.1,38.1,0,0,0,6.9-9.08l38.88,21.9,9.52,13.88h-.12l.11,38.84h4.65l-.11-38.83,9.53-13.89,38.84-21.89a38.23,38.23,0,0,0,11.9,13.18l-45,66.33,2.84,1.93h1.48l44.65-65.82-.36-.25a37.63,37.63,0,0,0,35.89-.23l-.7.48,44.65,65.82h1.48l2.83-1.93-45-66.3a29.32,29.32,0,0,0,5-4.13,38.41,38.41,0,0,0,6.91-9.08l38.87,21.9,9.53,13.88h-.13l.11,38.84h4.65l-.11-38.83,9.53-13.89,38.85-21.89a38.13,38.13,0,0,0,11.9,13.18l-45,66.33,2.83,1.93h1.48l44.66-65.82-.36-.25a37.63,37.63,0,0,0,35.89-.23l-.71.48,44.65,65.82h1.49l2.83-1.93-45-66.3a29.72,29.72,0,0,0,5-4.13,38.1,38.1,0,0,0,6.9-9.08l38.88,21.9,9.52,13.88h-.12l.1,38.84h4.65l-.1-38.83,9.53-13.89,38.84-21.89a38.13,38.13,0,0,0,11.9,13.18l-45,66.33,2.83,1.93h1.49l44.65-65.82-.36-.25a37.63,37.63,0,0,0,35.89-.23l-.71.48,15.59,23v-8.29l-11.6-17.09a29.32,29.32,0,0,0,5-4.13,38.09,38.09,0,0,0,6.64-8.64V865.39a37.81,37.81,0,0,0-52.4-13.95c-.6.33-1.19.69-1.76,1.06l3.75-2.55-45-66.3a29.32,29.32,0,0,0,5-4.13,38.1,38.1,0,0,0,6.9-9.08l38.88,21.9,9.52,13.88h-.12l.11,38.84H1611l-.11-38.83,9.53-13.89,21.07-11.87v-5.35L1618.63,788h-20.07l-38.42-21.65-1.2,2.14a37.82,37.82,0,0,0,3.64-16.23c0-.23,0-.45,0-.67h78.9v-4.65h-79.26a37.85,37.85,0,0,0-4.19-12.78l1.3,2.31,39.43-22.22h20.07L1641.47,727v-5.34l-20.91-11.78L1611,696h.12l-.05-37.52h-4.65l0,37.52L1597,709.88l-39.72,22.38h0l-.22.13L1558,734a38.23,38.23,0,0,0-12-13.24l45.11-66.49-.35-.24a37.63,37.63,0,0,0,35.87-.24l-.7.48,15.59,23V669l-11.6-17.09a28.86,28.86,0,0,0,5-4.13,38,38,0,0,0,6.64-8.63V601.77a37.79,37.79,0,0,0-52.4-13.94c-.6.33-1.18.68-1.75,1l3.74-2.55-45-66.3a28.86,28.86,0,0,0,5-4.13,38.1,38.1,0,0,0,6.9-9.08l38.88,21.91,9.52,13.88h-.12l.11,38.84,4.65,0-.11-38.83,9.53-13.89,21.07-11.87V511.5l-22.84,12.87h-20.07l-38.42-21.65-1.2,2.13a37.82,37.82,0,0,0,3.64-16.23c0-.22,0-.44,0-.67h78.9V483.3h-79.26a37.72,37.72,0,0,0-4.19-12.77l1.3,2.3,39.43-22.22h20.07l22.65,12.76V458l-20.91-11.78L1611,432.37h.12l-.05-37.52h-4.65l0,37.52L1597,446.26l-39.72,22.38-.22.13.89,1.6a38,38,0,0,0-12-13.21l45.11-66.5-.36-.24a37.7,37.7,0,0,0,35.89-.23l-.71.47,15.59,23v-8.28l-11.6-17.09a29.8,29.8,0,0,0,5-4.13,38.09,38.09,0,0,0,6.64-8.64V338.16a37.78,37.78,0,0,0-52.4-14c-.6.33-1.19.69-1.76,1.06l3.75-2.55-45-66.3a29.8,29.8,0,0,0,5-4.13,38.36,38.36,0,0,0,6.9-9.09l38.88,21.91,9.52,13.88h-.12l.11,38.84H1611l-.11-38.84,9.53-13.89,21.07-11.87v-5.34l-22.84,12.87h-20.07l-38.42-21.65-1.2,2.13a37.82,37.82,0,0,0,3.64-16.23c0-.22,0-.44,0-.66h78.9v-4.66h-79.26a37.8,37.8,0,0,0-4.19-12.77l1.3,2.3L1598.75,187h20.07l22.65,12.77v-5.35l-20.91-11.78L1611,168.76h.12l-.05-37.53h-4.65l0,37.52L1597,182.65,1557.26,205h0l-.22.13.91,1.62a38.23,38.23,0,0,0-12-13.24l45.11-66.49-.35-.25a37.59,37.59,0,0,0,35.87-.23l-.7.48,15.59,23v-8.29l-11.6-17.09a29.32,29.32,0,0,0,5-4.13A38.09,38.09,0,0,0,1641.47,111.87ZM1478.53,93.23c0-.23,0-.45,0-.67h92.08c0,.22,0,.44,0,.67a38,38,0,0,0,2.66,14L1534.58,129h-20.07l-38.42-21.65-1.2,2.14A37.82,37.82,0,0,0,1478.53,93.23Zm-67.79,0c0-.11,0-.2,0-.31,0-.79.06-1.56.13-2.33a24.47,24.47,0,1,1,44.13,17,29.26,29.26,0,0,0,4.35-37.73,29.89,29.89,0,0,1,11.15,23.33h0a24.47,24.47,0,1,1-44.28-14.41,29.31,29.31,0,0,0-4.35,37.74,30,30,0,0,1-11.14-23.33Zm-100,0c0-.23,0-.45,0-.67h92.07c0,.22,0,.44,0,.67a37.94,37.94,0,0,0,2.65,14L1366.73,129h-20.06l-38.43-21.65-1.2,2.14A37.86,37.86,0,0,0,1310.69,93.23Zm34.23,40.1,9.53,13.88h-.13l.11,38.84h4.65l-.11-38.83,9.53-13.89,38.85-21.89a38.13,38.13,0,0,0,11.9,13.18l-45,66.33,3.11,2.12a37.71,37.71,0,0,0-39.93-.69,29.26,29.26,0,0,0-6.93,5.32,38.27,38.27,0,0,0-5.89,7.33l-39.74-22.39-9.52-13.87h.12l0-37.53h-4.65l0,37.52-9.53,13.89L1221.58,205h0l-.23.13.91,1.63a38.08,38.08,0,0,0-12-13.25l45.11-66.49-.36-.25a37.61,37.61,0,0,0,35.88-.23l-.69.48,45.12,66.5,3.84-2.61-45-66.3a28.93,28.93,0,0,0,5-4.13,38.41,38.41,0,0,0,6.91-9.08Zm74.45,192a29.25,29.25,0,0,0-5.08,4.2,38.19,38.19,0,0,0-5.8,7.17l-39.57-22.29-9.52-13.88h.13l-.06-37.52h-4.65l.06,37.52-9.53,13.89-39.72,22.37h0l-.23.13,2.28,4.06,39.44-22.22h20.06l39.1,22a37.62,37.62,0,0,0-3.17,10.73h-92.8a38,38,0,0,0-37.53-32.7,37.51,37.51,0,0,0-19.4,5.38c-.61.33-1.19.69-1.76,1.06l3.75-2.55-45-66.3a29.8,29.8,0,0,0,5-4.13,38.36,38.36,0,0,0,6.9-9.09l38.88,21.91,9.53,13.88h-.13l.11,38.84h4.65l-.11-38.84,9.53-13.89,38.85-21.89a38.16,38.16,0,0,0,11.9,13.19l-45,66.33,3.85,2.61,45.12-66.51-.36-.24a37.69,37.69,0,0,0,35.88-.23l-.7.47Zm45,24.5a29.11,29.11,0,0,0-5-16.32,29.92,29.92,0,0,1,11.15,23.33h0a24.47,24.47,0,1,1-44.28-14.4,29.3,29.3,0,0,0-4.35,37.73,29.93,29.93,0,0,1-11.14-23.33h0c0-.1,0-.2,0-.3,0-.79.06-1.57.13-2.34A24.47,24.47,0,1,1,1455,371.25,29.2,29.2,0,0,0,1464.34,349.83Zm-45,239.11a29.3,29.3,0,0,0-5.08,4.21,38.19,38.19,0,0,0-5.8,7.17L1368.92,578l-9.52-13.88h.13l-.06-37.52h-4.65l.06,37.52L1345.35,578l-39.95,22.51,2.28,4.06.23-.13h0l39.21-22.09h20.06l39.1,22a37.65,37.65,0,0,0-3.17,10.72h-92.8a38,38,0,0,0-37.53-32.69,37.51,37.51,0,0,0-19.4,5.38c-.6.33-1.19.68-1.76,1l3.75-2.55-45-66.3a28.86,28.86,0,0,0,5-4.13,38.1,38.1,0,0,0,6.9-9.08l38.88,21.91,9.53,13.88h-.13l.11,38.84,4.65,0-.11-38.83,9.53-13.89,38.85-21.89a38.13,38.13,0,0,0,11.9,13.18l-45,66.33,3.85,2.62,45.12-66.51-.36-.24A37.65,37.65,0,0,0,1375,522l-.7.48Zm45,24.51a29.09,29.09,0,0,0-5-16.32,29.91,29.91,0,0,1,11.15,23.33h0a24.47,24.47,0,1,1-44.28-14.4,29.3,29.3,0,0,0-4.35,37.73,29.93,29.93,0,0,1-11.14-23.33h0c0-.1,0-.2,0-.31,0-.78.06-1.56.13-2.33a24.47,24.47,0,1,1,44.13,17A29.16,29.16,0,0,0,1464.34,613.45ZM1333.12,759.24a29.2,29.2,0,0,0,5,16.33A30,30,0,0,1,1327,752.24h0a3,3,0,0,1,0-.31c0-.79.06-1.56.13-2.33a24.47,24.47,0,1,1,44.13,17,29.26,29.26,0,0,0,4.35-37.73,29.89,29.89,0,0,1,11.15,23.33h0a24.47,24.47,0,1,1-44.28-14.41A29.19,29.19,0,0,0,1333.12,759.24Zm44.24-39a37.77,37.77,0,0,0-39.93-.69,29.26,29.26,0,0,0-6.93,5.32,38.58,38.58,0,0,0-5.89,7.33l-39.74-22.38L1275.35,696h.12l0-37.52h-4.65l0,37.52-9.53,13.89-39.71,22.38h0l-.23.13.91,1.62a38.23,38.23,0,0,0-12-13.24l45.11-66.49L1255,654a37.61,37.61,0,0,0,35.88-.23l-.69.48,45.12,66.51,3.84-2.62-45-66.3a28.48,28.48,0,0,0,5-4.13,38.41,38.41,0,0,0,6.91-9.08l38.87,21.91,9.53,13.88h-.13l.11,38.84,4.65,0-.11-38.83,9.53-13.89,38.85-21.89a38.13,38.13,0,0,0,11.9,13.18l-45,66.33Zm-150.48,31.28H1319c0,.22,0,.44,0,.67a37.94,37.94,0,0,0,2.65,14L1282.94,788h-20.07l-38.42-21.65-1.19,2.13a37.91,37.91,0,0,0,3.63-16.22C1226.89,752,1226.88,751.79,1226.88,751.57Zm92.44-4.65h-92.8a37.85,37.85,0,0,0-4.19-12.78l1.3,2.31,39.43-22.22h20.07l39.28,22.13A37.88,37.88,0,0,0,1319.32,746.92Zm-154,12.32a29.12,29.12,0,0,0,5,16.33,30,30,0,0,1-11.15-23.33h0c0-.11,0-.21,0-.31,0-.79.06-1.56.13-2.33a24.47,24.47,0,1,1,44.13,17,29.28,29.28,0,0,0,4.36-37.73,29.92,29.92,0,0,1,11.14,23.33h0a24.47,24.47,0,1,1-44.27-14.41A29.19,29.19,0,0,0,1165.28,759.24ZM1059,751.57h92.08c0,.22,0,.44,0,.67a38,38,0,0,0,2.66,14L1115.09,788H1095l-38.42-21.65-1.2,2.14a37.85,37.85,0,0,0,3.64-16.23C1059.05,752,1059,751.79,1059,751.57Zm92.44-4.65h-92.8a37.49,37.49,0,0,0-4.18-12.77l1.29,2.3,39.44-22.22h20.06l39.29,22.13A37.56,37.56,0,0,0,1151.47,746.92Zm-34.44-37L1107.5,696h.13l-.06-37.52h-4.65L1103,696l-9.53,13.89-39.72,22.38h0l-.23.13.89,1.59a38.05,38.05,0,0,0-12-13.21l45.11-66.49-.36-.24a37.65,37.65,0,0,0,35.88-.24l-.7.48,45.12,66.51,3.85-2.62-45-66.3a29.24,29.24,0,0,0,5-4.13,38.1,38.1,0,0,0,6.9-9.08l38.88,21.91,9.52,13.88h-.12l.11,38.84,4.65,0-.11-38.83,9.53-13.89,38.84-21.89a38.23,38.23,0,0,0,11.9,13.18l-45,66.33,3.12,2.12a37.79,37.79,0,0,0-39.94-.69,29.21,29.21,0,0,0-6.92,5.32,38.24,38.24,0,0,0-5.9,7.33ZM997.44,759.24a29.19,29.19,0,0,0,5,16.33,30,30,0,0,1-11.14-23.33h0a3,3,0,0,1,0-.31c0-.79.06-1.56.13-2.33a24.47,24.47,0,1,1,44.13,17,29.26,29.26,0,0,0,4.35-37.73A29.89,29.89,0,0,1,1051,752.24h0a24.47,24.47,0,1,1-44.28-14.41A29.18,29.18,0,0,0,997.44,759.24Zm-106.25-7.67h92.07c0,.22,0,.44,0,.67a37.94,37.94,0,0,0,2.65,14L947.25,788H927.19l-38.43-21.65-1.19,2.13a37.92,37.92,0,0,0,3.64-16.22C891.21,752,891.19,751.79,891.19,751.57Zm92.44-4.65h-92.8a37.85,37.85,0,0,0-4.19-12.78l1.3,2.31,39.43-22.22h20.07l39.28,22.13A37.88,37.88,0,0,0,983.63,746.92Zm-34.45-37L939.66,696h.12l0-37.52h-4.65l0,37.52-9.53,13.89-39.71,22.38h0l-.23.13.92,1.63a38.19,38.19,0,0,0-12-13.25l45.11-66.49-.36-.25a37.63,37.63,0,0,0,35.89-.23l-.7.48,45.12,66.51,3.85-2.62-45-66.3a28.79,28.79,0,0,0,5-4.13,37.88,37.88,0,0,0,6.91-9.08l38.87,21.91,9.53,13.88h-.13l.11,38.84,4.65,0-.11-38.83,9.53-13.89,38.85-21.89a38.13,38.13,0,0,0,11.9,13.18l-45,66.33,3.11,2.12a37.77,37.77,0,0,0-39.93-.69,29.26,29.26,0,0,0-6.93,5.32,38.58,38.58,0,0,0-5.89,7.33ZM829.59,759.24a29.12,29.12,0,0,0,5,16.33,30,30,0,0,1-11.15-23.33h0c0-.11,0-.21,0-.31,0-.79.06-1.56.13-2.33a24.47,24.47,0,1,1,44.13,17,29.28,29.28,0,0,0,4.36-37.73,29.92,29.92,0,0,1,11.14,23.33h0a24.47,24.47,0,1,1-44.27-14.41A29.19,29.19,0,0,0,829.59,759.24ZM750.2,884.08a24.48,24.48,0,0,1,4.66-14.41c-.22.2-.42.4-.62.61.13-.2.26-.41.4-.61A29.24,29.24,0,0,0,750.05,907a29.92,29.92,0,0,1-10.69-22.94h0c0-.11,0-.2,0-.31,0-.79.06-1.56.13-2.33a24.36,24.36,0,1,1,43.92,17l.61-.6-.4.6a29.25,29.25,0,0,0,4.6-37.34,29.92,29.92,0,0,1,10.69,22.94h0a24.36,24.36,0,1,1-48.72,0Zm-2.27-31.61,0,0,0,0ZM650.82,736.36a37.56,37.56,0,0,0-3.1,10.56H554.93a37.72,37.72,0,0,0-4.19-12.77l1.3,2.3,39.43-22.22h20.07ZM555.3,752.24c0-.23,0-.45,0-.67h92.07c0,.22,0,.44,0,.67a38,38,0,0,0,2.66,14L611.35,788H591.28l-38.42-21.65-1.2,2.13A37.77,37.77,0,0,0,555.3,752.24Zm58-42.37L603.76,696h.12l0-37.52h-4.65l.05,37.52-9.53,13.89L550,732.26h0l-.23.13.89,1.58a38.21,38.21,0,0,0-12-13.2l45.11-66.49-.36-.24a37.65,37.65,0,0,0,35.88-.24l-.7.48,45.13,66.51,3.84-2.62-45-66.3a28.86,28.86,0,0,0,5-4.13,38.1,38.1,0,0,0,6.9-9.08l38.88,21.91,9.52,13.88h-.12l.11,38.84h.21l4.65,0-.11-38.83,9.53-13.89,38.69-21.8a38.18,38.18,0,0,0,11.85,13.09l-45,66.33,1.51,1a37.53,37.53,0,0,0-18.71-5h-.22a37.6,37.6,0,0,0-19.4,5.37,29.26,29.26,0,0,0-6.93,5.32,38.2,38.2,0,0,0-5.84,7.25l-16-9v.12ZM493.69,759.24a29.12,29.12,0,0,0,5,16.33,29.92,29.92,0,0,1-11.15-23.33h0c0-.11,0-.21,0-.31,0-.79.06-1.56.13-2.33a24.47,24.47,0,1,1,44.13,17,29.28,29.28,0,0,0,4.36-37.73,29.92,29.92,0,0,1,11.14,23.33h0A24.47,24.47,0,1,1,503,737.83,29.19,29.19,0,0,0,493.69,759.24Zm-106.25-7.67h92.08c0,.22,0,.44,0,.67a38.15,38.15,0,0,0,2.65,14L443.5,788H423.44L385,766.33l-1.2,2.13a37.77,37.77,0,0,0,3.64-16.22C387.46,752,387.45,751.79,387.44,751.57Zm92.44-4.65h-92.8a37.85,37.85,0,0,0-4.19-12.78l1.3,2.31,39.44-22.22h20.06L483,736.36A37.88,37.88,0,0,0,479.88,746.92Zm-34.45-37L435.91,696H436L436,658.47h-4.65l.06,37.52-9.53,13.89-39.72,22.38h0l-.23.13.91,1.62a38.2,38.2,0,0,0-12-13.24l45.11-66.49-.36-.25a37.61,37.61,0,0,0,35.88-.23l-.7.48,45.12,66.51,3.85-2.62-45-66.3a29.24,29.24,0,0,0,5-4.13,38.1,38.1,0,0,0,6.9-9.08l38.88,21.91L515,674.45h-.13l.11,38.84,4.65,0-.11-38.83,9.53-13.89,38.85-21.89a38.13,38.13,0,0,0,11.9,13.18l-45,66.33,3.11,2.12A37.77,37.77,0,0,0,498,719.6a29.47,29.47,0,0,0-6.93,5.32,38.58,38.58,0,0,0-5.89,7.33ZM325.84,759.24a29.12,29.12,0,0,0,5,16.33,30,30,0,0,1-11.14-23.33h0c0-.11,0-.21,0-.31,0-.79.07-1.56.13-2.33a24.47,24.47,0,1,1,44.14,17,29.26,29.26,0,0,0,4.35-37.73,29.92,29.92,0,0,1,11.15,23.33h0a24.47,24.47,0,1,1-44.28-14.41A29.19,29.19,0,0,0,325.84,759.24ZM219.6,751.57h92.07c0,.22,0,.44,0,.67a38,38,0,0,0,2.66,14L275.66,788H255.59l-38.42-21.65-1.2,2.14a37.85,37.85,0,0,0,3.64-16.23C219.61,752,219.6,751.79,219.6,751.57ZM312,746.92H219.24a37.72,37.72,0,0,0-4.19-12.77l1.3,2.3,39.43-22.22h20.07l39.28,22.13A37.56,37.56,0,0,0,312,746.92Zm-34.44-37L268.07,696h.12l-.05-37.52h-4.65l.05,37.52L254,709.88l-39.72,22.38h0l-.23.13L215,734a38.18,38.18,0,0,0-12-13.21l45.11-66.49-.36-.24a37.67,37.67,0,0,0,35.89-.24l-.71.48L328,720.79l3.84-2.62-45-66.3a28.86,28.86,0,0,0,5-4.13,38.1,38.1,0,0,0,6.9-9.08l38.88,21.91,9.53,13.88H347l.11,38.84,4.65,0-.11-38.83,9.53-13.89,38.85-21.89A38.13,38.13,0,0,0,412,651.84l-45,66.33,3.12,2.12a37.79,37.79,0,0,0-39.94-.69,29.26,29.26,0,0,0-6.93,5.32,38.63,38.63,0,0,0-5.9,7.33ZM158,759.24a29.12,29.12,0,0,0,5,16.33,29.92,29.92,0,0,1-11.15-23.33h0c0-.11,0-.21,0-.31,0-.79.06-1.56.13-2.33a24.47,24.47,0,1,1,44.13,17,29.28,29.28,0,0,0,4.36-37.73,29.92,29.92,0,0,1,11.14,23.33h0a24.47,24.47,0,1,1-44.27-14.41A29.19,29.19,0,0,0,158,759.24ZM51.75,751.57h92.08c0,.22,0,.44,0,.67a38.15,38.15,0,0,0,2.65,14L107.81,788H87.75L49.33,766.33l-1.2,2.13a37.77,37.77,0,0,0,3.64-16.22C51.77,752,51.76,751.79,51.75,751.57Zm92.44-4.65H51.39a37.85,37.85,0,0,0-4.19-12.78l1.3,2.31,39.44-22.22H108l39.29,22.13A37.56,37.56,0,0,0,144.19,746.92Zm-34.44-37L100.22,696h.13l-.06-37.52H95.64L95.7,696l-9.53,13.89L46.45,732.26h0l-.23.13.92,1.63a38.26,38.26,0,0,0-12-13.25l45.11-66.49-.36-.25a37.61,37.61,0,0,0,35.88-.23l-.7.48,45.12,66.51,3.85-2.62-45-66.3a29.24,29.24,0,0,0,5-4.13,38.1,38.1,0,0,0,6.9-9.08l38.88,21.91,9.52,13.88h-.13l.11,38.84,4.65,0-.11-38.83,9.53-13.89,38.85-21.89a38.13,38.13,0,0,0,11.9,13.18l-45,66.33,3.11,2.12a37.77,37.77,0,0,0-39.93-.69,29.21,29.21,0,0,0-6.92,5.32,38.24,38.24,0,0,0-5.9,7.33ZM-9.85,759.24a29.2,29.2,0,0,0,5,16.33A30,30,0,0,1-16,752.24h0c0-.11,0-.21,0-.31,0-.79.07-1.56.13-2.33a24.47,24.47,0,1,1,44.14,17,29.18,29.18,0,0,0,9.32-21.42,29.08,29.08,0,0,0-5-16.31,29.92,29.92,0,0,1,11.15,23.33h0A24.47,24.47,0,1,1-.53,737.83,29.19,29.19,0,0,0-9.85,759.24ZM35.27,520a29.24,29.24,0,0,0,5-4.13,38.1,38.1,0,0,0,6.9-9.08L86,528.73l9.52,13.88H95.4l.11,38.84,4.65,0-.11-38.83,9.53-13.89,38.85-21.89A38.13,38.13,0,0,0,160.33,520l-45,66.33,3.85,2.62,45.12-66.51-.36-.24a37.65,37.65,0,0,0,35.88-.24l-.7.48,45.12,66.5a28.86,28.86,0,0,0-5.07,4.21,38.19,38.19,0,0,0-5.8,7.17L193.8,578l-9.52-13.88h.12l-.05-37.52H179.7l.05,37.52L170.22,578l-39.95,22.51,2.29,4.06.22-.13h0L172,582.39h20.07l39.09,22A38,38,0,0,0,228,615.14h-92.8a37.84,37.84,0,0,0-56.93-27.31c-.6.33-1.18.68-1.75,1l3.75-2.55Zm-45.12-24.4a29.17,29.17,0,0,0,5,16.32A29.93,29.93,0,0,1-16,488.62h0c0-.1,0-.2,0-.31,0-.78.07-1.56.13-2.33a24.47,24.47,0,1,1,44.14,17,29.26,29.26,0,0,0,4.35-37.73,29.94,29.94,0,0,1,11.15,23.33h0A24.47,24.47,0,1,1-.53,474.22,29.16,29.16,0,0,0-9.85,495.63ZM35.27,256.42a30.21,30.21,0,0,0,5-4.13,38.36,38.36,0,0,0,6.9-9.09L86,265.11,95.53,279H95.4l.11,38.84h4.65L100.05,279l9.53-13.89,38.85-21.89a38.16,38.16,0,0,0,11.9,13.19l-45,66.33,3.85,2.61,45.12-66.51-.36-.24a37.69,37.69,0,0,0,35.88-.23l-.7.47,45.12,66.51a28.81,28.81,0,0,0-5.07,4.2,38.19,38.19,0,0,0-5.8,7.17L193.8,314.41l-9.52-13.88h.12L184.35,263H179.7l.05,37.52-9.53,13.89L130.5,336.8h0l-.23.13,2.29,4.06L172,318.77h20.07l39.09,22A37.94,37.94,0,0,0,228,351.53h-92.8a37.83,37.83,0,0,0-56.93-27.32c-.6.33-1.19.69-1.76,1.06l3.76-2.55ZM-9.85,232a29.17,29.17,0,0,0,5,16.32A29.93,29.93,0,0,1-16,225h0c0-.1,0-.2,0-.3,0-.79.07-1.57.13-2.34a24.47,24.47,0,1,1,44.14,17,29.28,29.28,0,0,0,4.35-37.74A30,30,0,0,1,43.76,225h0A24.47,24.47,0,1,1-.53,210.6,29.18,29.18,0,0,0-9.85,232Zm61.6-7.67h92.08c0,.22,0,.44,0,.66a38.07,38.07,0,0,0,2.65,14l-38.65,21.78H87.75L49.33,239.1l-1.2,2.13A37.82,37.82,0,0,0,51.77,225C51.77,224.78,51.76,224.56,51.75,224.34Zm92.44-4.66H51.39A37.85,37.85,0,0,0,47.2,206.9l1.3,2.31L87.94,187H108l39.29,22.14A37.5,37.5,0,0,0,144.19,219.68ZM205.42,218a29.19,29.19,0,0,0-5-16.32A30,30,0,0,1,211.6,225h0a24.47,24.47,0,1,1-44.27-14.4A29.26,29.26,0,0,0,163,248.33,29.91,29.91,0,0,1,151.82,225h0c0-.1,0-.2,0-.3,0-.79.06-1.57.13-2.34a24.47,24.47,0,1,1,44.13,17A29.2,29.2,0,0,0,205.42,218Zm14.18,6.35h92.07c0,.22,0,.44,0,.66a37.87,37.87,0,0,0,2.66,14l-38.65,21.78H255.59L217.17,239.1l-1.2,2.13A37.82,37.82,0,0,0,219.61,225C219.61,224.78,219.6,224.56,219.6,224.34ZM312,219.68H219.24a37.87,37.87,0,0,0-4.19-12.77l1.3,2.3L255.78,187h20.07l39.28,22.14A37.5,37.5,0,0,0,312,219.68Zm-58.18,45.43L263.37,279h-.12l.11,38.84H268L267.9,279l9.53-13.89,38.85-21.89a38.06,38.06,0,0,0,11.9,13.19l-45,66.33,3.84,2.61,45.12-66.51-.35-.24a37.65,37.65,0,0,0,35.88-.24l-.7.48,45.12,66.51a29.25,29.25,0,0,0-5.08,4.2,38.19,38.19,0,0,0-5.8,7.17l-39.57-22.29-9.52-13.88h.13L352.19,263h-4.65l.06,37.52-9.54,13.89L298.35,336.8h0l-.23.13L300.4,341l39.44-22.22H359.9l39.1,22a37.62,37.62,0,0,0-3.17,10.73H303a37.84,37.84,0,0,0-56.94-27.32c-.6.33-1.18.69-1.75,1.06l3.75-2.55-45-66.3a29.8,29.8,0,0,0,5-4.13,38.36,38.36,0,0,0,6.9-9.09ZM373.27,218a29.11,29.11,0,0,0-5-16.32A30,30,0,0,1,379.45,225h0a24.47,24.47,0,1,1-44.28-14.4,29.26,29.26,0,0,0-4.35,37.73A29.93,29.93,0,0,1,319.67,225h0c0-.1,0-.2,0-.3,0-.79.07-1.57.13-2.34a24.47,24.47,0,1,1,44.14,17A29.2,29.2,0,0,0,373.27,218Zm14.17,6.35h92.08c0,.22,0,.44,0,.66a38.07,38.07,0,0,0,2.65,14L443.5,260.75H423.44L385,239.1l-1.2,2.13A37.82,37.82,0,0,0,387.46,225C387.46,224.78,387.45,224.56,387.44,224.34Zm92.44-4.66h-92.8a37.72,37.72,0,0,0-4.19-12.77l1.3,2.3L423.63,187h20.06L483,209.13A37.81,37.81,0,0,0,479.88,219.68Zm-58.19,45.43L431.22,279h-.13l.11,38.84h4.65L435.74,279l9.53-13.89,38.85-21.89A38.16,38.16,0,0,0,496,256.39l-45,66.33,3.85,2.61L500,258.82l-.36-.24a37.69,37.69,0,0,0,35.88-.23l-.7.47,45.12,66.51a28.81,28.81,0,0,0-5.07,4.2,38.19,38.19,0,0,0-5.8,7.17l-39.57-22.29L520,300.53h.12L520,263h-4.65l.06,37.52-9.53,13.89L466.19,336.8h0l-.23.13,2.28,4.06,39.44-22.22h20.06l39.1,22a37.94,37.94,0,0,0-3.17,10.73h-92.8a37.94,37.94,0,0,0-37.53-32.7,37.56,37.56,0,0,0-19.4,5.38c-.6.33-1.19.69-1.76,1.06l3.76-2.55-45-66.3a30.21,30.21,0,0,0,5-4.13,38.36,38.36,0,0,0,6.9-9.09ZM541.11,218a29.19,29.19,0,0,0-5-16.32A30,30,0,0,1,547.29,225h0A24.47,24.47,0,1,1,503,210.6a29.26,29.26,0,0,0-4.35,37.73A29.91,29.91,0,0,1,487.51,225h0c0-.1,0-.2,0-.3,0-.79.06-1.57.13-2.34a24.47,24.47,0,1,1,44.13,17A29.2,29.2,0,0,0,541.11,218ZM747.92,61.62h0l0,0ZM877,218a29.19,29.19,0,0,0-5-16.32A30,30,0,0,1,883.19,225h0a24.47,24.47,0,1,1-44.27-14.4,29.26,29.26,0,0,0-4.35,37.73A29.94,29.94,0,0,1,823.41,225h0c0-.1,0-.2,0-.3,0-.79.06-1.57.13-2.34a24.47,24.47,0,1,1,44.13,17A29.16,29.16,0,0,0,877,218Zm14.18,6.35h92.07c0,.22,0,.44,0,.66a37.86,37.86,0,0,0,2.65,14l-38.65,21.78H927.19L888.76,239.1l-1.19,2.13A38,38,0,0,0,891.21,225C891.21,224.78,891.19,224.56,891.19,224.34Zm92.44-4.66h-92.8a37.85,37.85,0,0,0-4.19-12.78l1.3,2.31L927.37,187h20.07l39.28,22.14A37.81,37.81,0,0,0,983.63,219.68Zm-58.19,45.43L935,279h-.13l.11,38.84h4.65L939.49,279,949,265.09l38.85-21.89a38.16,38.16,0,0,0,11.9,13.19l-45,66.33,3.85,2.61,45.12-66.51-.36-.24a37.69,37.69,0,0,0,35.88-.23l-.7.47,45.12,66.51a29.25,29.25,0,0,0-5.08,4.2,38.19,38.19,0,0,0-5.8,7.17l-39.56-22.29-9.53-13.88h.13l-.06-37.52h-4.65l.06,37.52-9.53,13.89L969.94,336.8h0l-.23.13L972,341l39.44-22.22h20.06l39.1,22a37.62,37.62,0,0,0-3.17,10.73h-92.8a37.94,37.94,0,0,0-37.53-32.7,37.53,37.53,0,0,0-19.4,5.38c-.6.33-1.19.69-1.76,1.06l3.75-2.55-45-66.3a29.8,29.8,0,0,0,5-4.13,38.66,38.66,0,0,0,6.91-9.09ZM1044.86,218a29.11,29.11,0,0,0-5-16.32A29.92,29.92,0,0,1,1051,225h0a24.47,24.47,0,1,1-44.28-14.4,29.3,29.3,0,0,0-4.35,37.73A29.93,29.93,0,0,1,991.26,225h0c0-.1,0-.2,0-.3,0-.79.06-1.57.13-2.34a24.47,24.47,0,1,1,44.13,17A29.2,29.2,0,0,0,1044.86,218Zm14.17,6.35h92.08c0,.22,0,.44,0,.66a38.07,38.07,0,0,0,2.65,14l-38.65,21.78H1095l-38.42-21.65-1.2,2.13a37.82,37.82,0,0,0,3.64-16.23C1059.05,224.78,1059,224.56,1059,224.34Zm92.44-4.66h-92.8a37.64,37.64,0,0,0-4.18-12.77l1.29,2.3L1095.22,187h20.06l39.29,22.14A37.5,37.5,0,0,0,1151.47,219.68Zm-58.18,45.43,9.52,13.88h-.13l.11,38.84h4.65l-.1-38.84,9.53-13.89,38.84-21.89a38.16,38.16,0,0,0,11.9,13.19l-45,66.33,3.85,2.61,45.12-66.51-.36-.24a37.67,37.67,0,0,0,35.89-.24l-.71.48,45.12,66.51a29.18,29.18,0,0,0-5.07,4.2,38.19,38.19,0,0,0-5.8,7.17l-39.57-22.29-9.52-13.88h.12l0-37.52H1187l0,37.52-9.53,13.89-39.72,22.37h0l-.22.13,2.28,4.06,39.43-22.22h20.07l39.1,22a37.63,37.63,0,0,0-3.18,10.73h-92.8a37.83,37.83,0,0,0-56.93-27.32c-.6.33-1.18.69-1.75,1.06l3.75-2.55-45-66.3a30.21,30.21,0,0,0,5-4.13,38.36,38.36,0,0,0,6.9-9.09ZM1212.7,218a29.19,29.19,0,0,0-5-16.32A30,30,0,0,1,1218.88,225h0a24.47,24.47,0,1,1-44.27-14.4,29.26,29.26,0,0,0-4.35,37.73A29.94,29.94,0,0,1,1159.1,225h0c0-.1,0-.2,0-.3,0-.79.06-1.57.13-2.34a24.47,24.47,0,1,1,44.13,17A29.16,29.16,0,0,0,1212.7,218Zm83.79,131.84a29.19,29.19,0,0,0-5-16.32,30,30,0,0,1,11.14,23.33h0a24.47,24.47,0,1,1-44.27-14.4,29.26,29.26,0,0,0-4.35,37.73,29.93,29.93,0,0,1-11.14-23.33h0c0-.1,0-.2,0-.3,0-.79.06-1.57.13-2.34a24.47,24.47,0,1,1,44.14,17.05A29.19,29.19,0,0,0,1296.49,349.83Zm-45,239.11a29.23,29.23,0,0,0-5.07,4.21,38.19,38.19,0,0,0-5.8,7.17L1201.08,578l-9.52-13.88h.12l0-37.52H1187l0,37.52L1177.5,578l-39.94,22.51,2.28,4.06.23-.13h0l39.2-22.09h20.07l39.1,22a37.66,37.66,0,0,0-3.18,10.72h-92.8a37.84,37.84,0,0,0-56.93-27.31c-.6.33-1.18.68-1.75,1l3.75-2.55-45-66.3a29.24,29.24,0,0,0,5-4.13,38.1,38.1,0,0,0,6.9-9.08l38.88,21.91,9.52,13.88h-.13l.11,38.84,4.65,0-.1-38.83,9.53-13.89,38.84-21.89a38.13,38.13,0,0,0,11.9,13.18l-45,66.33,3.85,2.62,45.12-66.51-.35-.24a37.65,37.65,0,0,0,35.88-.24l-.71.48Zm45,24.51a29.16,29.16,0,0,0-5-16.32,29.93,29.93,0,0,1,11.14,23.33h0a24.47,24.47,0,1,1-44.27-14.4,29.26,29.26,0,0,0-4.35,37.73,29.93,29.93,0,0,1-11.14-23.33h0c0-.1,0-.2,0-.31,0-.78.06-1.56.13-2.33a24.47,24.47,0,1,1,44.14,17A29.15,29.15,0,0,0,1296.49,613.45Zm-153.66,6.35h92.07c0,.22,0,.44,0,.66a38,38,0,0,0,2.66,14l-38.65,21.78h-20.07l-38.42-21.65-1.2,2.13a37.82,37.82,0,0,0,3.64-16.23C1142.84,620.24,1142.83,620,1142.83,619.8Zm-61.6,7.67a29.16,29.16,0,0,0,5,16.32,29.93,29.93,0,0,1-11.14-23.33h0c0-.1,0-.2,0-.31,0-.78.06-1.56.13-2.33a24.47,24.47,0,1,1,44.13,17,29.26,29.26,0,0,0,4.35-37.73,29.91,29.91,0,0,1,11.15,23.33h0a24.47,24.47,0,1,1-44.27-14.4A29.18,29.18,0,0,0,1081.23,627.47Zm-57.45-100.84h-4.65l.06,37.52L1009.66,578l-39.95,22.51,2.28,4.06.23-.13h0l39.21-22.09h20.06l39.1,22a37.65,37.65,0,0,0-3.17,10.72h-92.8a37.94,37.94,0,0,0-37.53-32.69,37.53,37.53,0,0,0-19.4,5.38c-.6.33-1.18.68-1.76,1l3.75-2.55-45-66.3a28.86,28.86,0,0,0,5-4.13,38.41,38.41,0,0,0,6.91-9.08l38.87,21.91L935,542.61h-.13l.11,38.84,4.65,0-.11-38.83L949,528.71l38.85-21.89A38.13,38.13,0,0,0,999.77,520l-45,66.33,3.85,2.62,45.12-66.51-.36-.24a37.65,37.65,0,0,0,35.88-.24l-.7.48,45.12,66.5a29.3,29.3,0,0,0-5.08,4.21,38.19,38.19,0,0,0-5.8,7.17L1033.24,578l-9.53-13.88h.13ZM975,619.8h92.08c0,.22,0,.44,0,.66a38.15,38.15,0,0,0,2.65,14L1031,656.21H1011l-38.43-21.65-1.2,2.13A37.82,37.82,0,0,0,975,620.46C975,620.24,975,620,975,619.8Zm-61.6,7.67a29.09,29.09,0,0,0,5,16.32,29.93,29.93,0,0,1-11.14-23.33h0c0-.1,0-.2,0-.31,0-.78.07-1.56.13-2.33a24.47,24.47,0,1,1,44.14,17,29.26,29.26,0,0,0,4.35-37.73A29.94,29.94,0,0,1,967,620.46h0a24.47,24.47,0,1,1-44.27-14.4A29.18,29.18,0,0,0,913.38,627.47ZM855.94,526.63h-4.65l.05,37.52L841.81,578l-39.94,22.51,2.28,4.06.23-.13h0l39.2-22.09h20.07l39.1,22a37.66,37.66,0,0,0-3.18,10.72H806.78a38,38,0,0,0-37.53-32.69H769a37.65,37.65,0,0,0-19.32,5.33l2.13-1.45-45-66.3a29.24,29.24,0,0,0,5-4.13,38.42,38.42,0,0,0,6.85-9l38.71,21.82,9.53,13.88h-.13l.11,38.84h.21l4.65,0-.1-38.83,9.53-13.89L820,506.82A38.13,38.13,0,0,0,831.92,520l-45,66.33,3.85,2.62,45.12-66.51-.35-.24a37.65,37.65,0,0,0,35.88-.24l-.7.48,45.11,66.5a29.61,29.61,0,0,0-5.07,4.21,38.19,38.19,0,0,0-5.8,7.17L865.39,578l-9.52-13.88H856Zm-48.8,93.17h92.07c0,.22,0,.44,0,.66a38,38,0,0,0,2.66,14L863.2,656.21H843.13l-38.42-21.65-1.2,2.14a37.89,37.89,0,0,0,3.64-16.24C807.15,620.24,807.14,620,807.14,619.8Zm-229.66,7.67a29.09,29.09,0,0,0,5,16.32,29.94,29.94,0,0,1-11.15-23.33h0c0-.1,0-.2,0-.31,0-.78.06-1.56.13-2.33a24.47,24.47,0,1,1,44.13,17,29.28,29.28,0,0,0,4.36-37.73,29.93,29.93,0,0,1,11.14,23.33h0a24.47,24.47,0,1,1-44.27-14.4A29.18,29.18,0,0,0,577.48,627.47ZM520,526.63h-4.65l.06,37.52L505.91,578l-40,22.51,2.28,4.06.23-.13h0l39.21-22.09h20.07l39.09,22a38,38,0,0,0-3.17,10.72h-92.8a37.84,37.84,0,0,0-56.93-27.31c-.6.33-1.18.68-1.75,1l3.75-2.55L371,520a29.24,29.24,0,0,0,5-4.13,38.1,38.1,0,0,0,6.9-9.08l38.88,21.91,9.52,13.88h-.13l.11,38.84,4.65,0-.11-38.83,9.53-13.89,38.85-21.89A38.13,38.13,0,0,0,496,520l-45,66.33,3.85,2.62L500,522.44l-.36-.24a37.65,37.65,0,0,0,35.88-.24l-.7.48,45.12,66.5a28.86,28.86,0,0,0-5.07,4.21,38.19,38.19,0,0,0-5.8,7.17L529.49,578,520,564.15h.12Zm-48.8,93.17h92.08c0,.22,0,.44,0,.66a38.15,38.15,0,0,0,2.65,14L527.3,656.21H507.23l-38.42-21.65-1.2,2.13a37.82,37.82,0,0,0,3.64-16.23C471.25,620.24,471.24,620,471.23,619.8Zm-61.6,7.67a29.17,29.17,0,0,0,5,16.32,29.93,29.93,0,0,1-11.14-23.33h0c0-.1,0-.2,0-.31,0-.78.06-1.56.13-2.33a24.47,24.47,0,1,1,44.13,17,29.26,29.26,0,0,0,4.35-37.73,29.91,29.91,0,0,1,11.15,23.33h0A24.47,24.47,0,1,1,419,606.06,29.18,29.18,0,0,0,409.63,627.47ZM352.19,526.63h-4.65l.06,37.52L338.07,578l-39.95,22.51,2.28,4.06.23-.13h0l39.2-22.09H359.9l39.1,22a37.65,37.65,0,0,0-3.17,10.72H303a37.84,37.84,0,0,0-56.94-27.31c-.59.33-1.17.68-1.75,1l3.75-2.55-45-66.3a28.86,28.86,0,0,0,5-4.13,38.1,38.1,0,0,0,6.9-9.08l38.88,21.91,9.52,13.88h-.12l.11,38.84,4.65,0-.11-38.83,9.53-13.89,38.85-21.89A38,38,0,0,0,328.18,520l-45,66.33L287,589l45.12-66.51-.35-.24a37.65,37.65,0,0,0,35.88-.24l-.7.48,45.11,66.5a29.61,29.61,0,0,0-5.07,4.21,38.19,38.19,0,0,0-5.8,7.17L361.64,578l-9.52-13.88h.13Zm-48.8,93.17h92.07c0,.22,0,.44,0,.66a37.94,37.94,0,0,0,2.65,14l-38.65,21.78H339.38L301,634.56l-1.2,2.13a37.82,37.82,0,0,0,3.64-16.23C303.4,620.24,303.39,620,303.39,619.8Zm-61.6,7.67a29.09,29.09,0,0,0,5,16.32,29.94,29.94,0,0,1-11.15-23.33h0c0-.1,0-.2,0-.31,0-.78.06-1.56.13-2.33a24.47,24.47,0,1,1,44.13,17,29.28,29.28,0,0,0,4.36-37.73,29.93,29.93,0,0,1,11.14,23.33h0a24.47,24.47,0,1,1-44.27-14.4A29.18,29.18,0,0,0,241.79,627.47ZM158,495.63A29.09,29.09,0,0,0,163,512a29.91,29.91,0,0,1-11.15-23.33h0c0-.1,0-.2,0-.31,0-.78.06-1.56.13-2.33a24.47,24.47,0,1,1,44.13,17,29.28,29.28,0,0,0,4.36-37.73,29.93,29.93,0,0,1,11.14,23.33h0a24.47,24.47,0,1,1-44.27-14.4A29.16,29.16,0,0,0,158,495.63Zm131.21-145.8a29.19,29.19,0,0,0-5-16.32,30,30,0,0,1,11.14,23.33h0a24.47,24.47,0,1,1-44.27-14.4,29.26,29.26,0,0,0-4.35,37.73,29.94,29.94,0,0,1-11.15-23.33h0c0-.1,0-.2,0-.3,0-.79.06-1.57.13-2.34a24.47,24.47,0,1,1,44.13,17.05A29.16,29.16,0,0,0,289.21,349.83Zm-41.12,40.83-.36-.24a37.67,37.67,0,0,0,35.89-.24l-.71.48L328,457.17l3.84-2.61-45-66.3a29.8,29.8,0,0,0,5-4.13,38.16,38.16,0,0,0,6.9-9.09L337.64,397l9.53,13.88H347l.11,38.84h4.65l-.11-38.84,9.53-13.89L400.07,375A38.16,38.16,0,0,0,412,388.23l-45,66.33,3.11,2.11a37.74,37.74,0,0,0-39.93-.68,29,29,0,0,0-6.93,5.32,38,38,0,0,0-5.9,7.33l-39.73-22.39-9.52-13.88h.12l-.05-37.52h-4.65l.05,37.52L254,446.26l-39.72,22.38-.23.13.89,1.57a38.15,38.15,0,0,0-12-13.18Zm55.3-34.48h92.07c0,.22,0,.44,0,.66a37.86,37.86,0,0,0,2.65,14l-38.65,21.78H339.38L301,370.94l-1.2,2.14a37.86,37.86,0,0,0,3.64-16.24C303.4,356.62,303.39,356.4,303.39,356.18Zm153.67-6.35a29.11,29.11,0,0,0-5-16.32,29.92,29.92,0,0,1,11.15,23.33h0A24.47,24.47,0,1,1,419,342.44a29.26,29.26,0,0,0-4.35,37.73,29.93,29.93,0,0,1-11.14-23.33h0c0-.1,0-.2,0-.3,0-.79.06-1.57.13-2.34a24.47,24.47,0,1,1,44.13,17.05A29.2,29.2,0,0,0,457.06,349.83Zm14.17,6.35h92.08c0,.22,0,.44,0,.66a38.07,38.07,0,0,0,2.65,14l-38.65,21.78H507.23l-38.42-21.65-1.2,2.13a37.82,37.82,0,0,0,3.64-16.23C471.25,356.62,471.24,356.4,471.23,356.18ZM505.49,397,515,410.83h-.13l.11,38.84h4.65l-.11-38.84,9.53-13.89L567.91,375a38.16,38.16,0,0,0,11.9,13.19l-45,66.33,3.1,2.1A37.75,37.75,0,0,0,498,456a29.2,29.2,0,0,0-6.93,5.32,38,38,0,0,0-5.89,7.33l-39.74-22.39-9.52-13.88H436L436,394.85h-4.65l.06,37.52-9.53,13.89-39.72,22.37-.23.13.9,1.61a38.12,38.12,0,0,0-12-13.22l45.11-66.5-.37-.24a37.7,37.7,0,0,0,35.89-.23l-.7.47,45.12,66.51,3.85-2.61-45-66.3a30.21,30.21,0,0,0,5-4.13,38.16,38.16,0,0,0,6.9-9.09ZM624.9,349.83a29.19,29.19,0,0,0-5-16.32,30,30,0,0,1,11.14,23.33h0a24.47,24.47,0,1,1-44.27-14.4,29.26,29.26,0,0,0-4.35,37.73,29.94,29.94,0,0,1-11.15-23.33h0c0-.1,0-.2,0-.3,0-.79.06-1.57.13-2.34a24.47,24.47,0,1,1,44.13,17.05A29.16,29.16,0,0,0,624.9,349.83Zm14.41,7c0-.22,0-.44,0-.66h91.86c0,.22,0,.44,0,.66a37.87,37.87,0,0,0,2.66,14l-38.65,21.78H675.29L637.05,371v.13l-.4-.23-1.2,2.13a35.68,35.68,0,0,0,1.6-3.94v.59A37.87,37.87,0,0,0,639.31,356.84ZM818.06,239l-16,9v-.12l-22.84,12.87H759.34L720.92,239.1l0,.09-.16-.09-.22.38A37.89,37.89,0,0,0,723.36,225c0-.22,0-.44,0-.66h92.08c0,.22,0,.44,0,.66A37.87,37.87,0,0,0,818.06,239ZM807.14,356.18h92.07c0,.22,0,.44,0,.66a37.87,37.87,0,0,0,2.66,14L863.2,392.59H843.13l-38.42-21.65-1.2,2.14a37.86,37.86,0,0,0,3.64-16.24C807.15,356.62,807.14,356.4,807.14,356.18ZM841.39,397l9.52,13.88h-.12l.11,38.84h4.65l-.11-38.84L865,396.93,903.82,375a38.13,38.13,0,0,0,11.89,13.19l-45,66.33,3.11,2.11A37.74,37.74,0,0,0,833.9,456a28.81,28.81,0,0,0-6.93,5.32,37.64,37.64,0,0,0-5.9,7.33l-39.73-22.39-9.52-13.88h.12l-.06-37.52H767l.06,37.52-9.53,13.88-39.72,22.38-.1.06a38.21,38.21,0,0,0-11-11.54l45.09-66.47A37.6,37.6,0,0,0,769,394.85h.22a37.38,37.38,0,0,0,17.25-4.23l0,0,15.58,23v-.31l29.75,43.85,3.85-2.61-45-66.3a29.8,29.8,0,0,0,5-4.13,38.16,38.16,0,0,0,6.9-9.09Zm119.42-47.12a29.19,29.19,0,0,0-5-16.32A30,30,0,0,1,967,356.84h0a24.47,24.47,0,1,1-44.27-14.4,29.26,29.26,0,0,0-4.35,37.73,29.93,29.93,0,0,1-11.14-23.33h0c0-.1,0-.2,0-.3,0-.79.07-1.57.13-2.34a24.47,24.47,0,1,1,44.14,17.05A29.2,29.2,0,0,0,960.81,349.83ZM975,356.18h92.08c0,.22,0,.44,0,.66a38.07,38.07,0,0,0,2.65,14L1031,392.59H1011l-38.43-21.65-1.19,2.13A38,38,0,0,0,975,356.84C975,356.62,975,356.4,975,356.18ZM1009.23,397l9.53,13.88h-.13l.11,38.84h4.65l-.11-38.84,9.53-13.89L1071.66,375a38.16,38.16,0,0,0,11.9,13.19l-45,66.33,3.1,2.11a37.72,37.72,0,0,0-39.92-.68,29,29,0,0,0-6.93,5.32,38,38,0,0,0-5.89,7.33l-39.74-22.39-9.52-13.88h.12l0-37.52h-4.65l0,37.52-9.53,13.89-39.71,22.37-.23.13.9,1.62a38,38,0,0,0-12-13.23l45.11-66.5-.36-.24a37.7,37.7,0,0,0,35.89-.23l-.7.47,45.12,66.51,3.85-2.61-45-66.3a29.4,29.4,0,0,0,5-4.13,37.93,37.93,0,0,0,6.91-9.09Zm119.42-47.12a29.11,29.11,0,0,0-5-16.32,29.92,29.92,0,0,1,11.15,23.33h0a24.47,24.47,0,1,1-44.27-14.4,29.28,29.28,0,0,0-4.36,37.73,29.93,29.93,0,0,1-11.14-23.33h0c0-.1,0-.2,0-.3,0-.79.06-1.57.13-2.34a24.47,24.47,0,1,1,44.13,17.05A29.2,29.2,0,0,0,1128.65,349.83ZM997.44,495.63a29.16,29.16,0,0,0,5,16.32,29.93,29.93,0,0,1-11.14-23.33h0c0-.1,0-.2,0-.31,0-.78.06-1.56.13-2.33a24.47,24.47,0,1,1,44.13,17,29.26,29.26,0,0,0,4.35-37.73A29.91,29.91,0,0,1,1051,488.62h0a24.47,24.47,0,1,1-44.28-14.4A29.15,29.15,0,0,0,997.44,495.63ZM891.19,488h92.07c0,.23,0,.45,0,.67a37.94,37.94,0,0,0,2.65,14l-38.65,21.78H927.18l-38.42-21.65-1.19,2.13a38,38,0,0,0,3.64-16.23C891.21,488.4,891.19,488.18,891.19,488Zm92.44-4.65h-92.8a37.72,37.72,0,0,0-4.19-12.77l1.3,2.3,39.43-22.22h20.07l39.28,22.13A38,38,0,0,0,983.63,483.3Zm-154,12.33a29.09,29.09,0,0,0,5,16.32,29.94,29.94,0,0,1-11.15-23.33h0c0-.1,0-.2,0-.31,0-.78.06-1.56.13-2.33a24.47,24.47,0,1,1,44.13,17,29.28,29.28,0,0,0,4.36-37.73,29.93,29.93,0,0,1,11.14,23.33h0a24.47,24.47,0,1,1-44.27-14.4A29.16,29.16,0,0,0,829.59,495.63ZM750.2,620.46a24.45,24.45,0,0,1,4.66-14.4c-.22.19-.42.4-.62.6.13-.2.26-.41.4-.6a29.23,29.23,0,0,0-4.59,37.34,29.9,29.9,0,0,1-10.69-22.94h0c0-.1,0-.2,0-.31,0-.78.06-1.56.13-2.33a24.36,24.36,0,1,1,43.92,17c.21-.19.41-.4.61-.6-.13.2-.26.41-.4.6a29.25,29.25,0,0,0,4.6-37.34,29.93,29.93,0,0,1,10.69,22.94h0a24.36,24.36,0,1,1-48.72,0Zm-2.27-31.61,0,0,0,0ZM650.82,472.74a37.66,37.66,0,0,0-3.1,10.56H554.93a38,38,0,0,0-4.18-12.76l1.29,2.29,39.43-22.22h20.07ZM555.3,488.62c0-.22,0-.44,0-.67h92.07c0,.23,0,.45,0,.67a38,38,0,0,0,2.66,14l-38.65,21.78H591.28l-38.42-21.65-1.2,2.13A37.82,37.82,0,0,0,555.3,488.62Zm115.15-13.8c.13-.2.26-.41.4-.6a29.23,29.23,0,0,0-4.59,37.34,29.92,29.92,0,0,1-10.69-22.94h0c0-.1,0-.2,0-.31,0-.78.06-1.56.13-2.33a24.36,24.36,0,1,1,43.92,17c.21-.19.41-.4.61-.6-.13.2-.26.41-.4.6a29.25,29.25,0,0,0,4.6-37.34,29.93,29.93,0,0,1,10.69,22.94h0a24.36,24.36,0,1,1-44.06-14.4C670.85,474.41,670.65,474.62,670.45,474.82ZM784,370.64c-.13.2-.26.41-.4.61a29.26,29.26,0,0,0,4.6-37.35,30,30,0,0,1,10.69,22.94h0a24.36,24.36,0,1,1-44.06-14.4c-.22.2-.42.4-.62.6.13-.2.26-.41.4-.6a29.23,29.23,0,0,0-4.59,37.34,29.89,29.89,0,0,1-10.69-22.94h0c0-.1,0-.2,0-.3,0-.79.06-1.57.13-2.34a24.36,24.36,0,1,1,43.92,17.05C783.64,371.05,783.84,370.84,784,370.64Zm-4.85,153.73H759.34l-38.42-21.65,0,.09-.16-.09-.22.38a37.93,37.93,0,0,0,2.87-14.48c0-.22,0-.44,0-.67h92.08c0,.23,0,.45,0,.67a38,38,0,0,0,2.66,14l-16,9v-.12Zm36.59-41.07H723a37.37,37.37,0,0,0-3.06-10.49l.12-.07.05.09,39.44-22.22h19.85L802,463.37v-.12l16.85,9.49A37.66,37.66,0,0,0,815.78,483.3ZM700.25,238.8c-.13.2-.26.41-.4.61a29.26,29.26,0,0,0,4.6-37.35A30,30,0,0,1,715.14,225h0a24.36,24.36,0,1,1-44.06-14.4l-.61.6c.13-.2.26-.41.4-.6a29.23,29.23,0,0,0-4.59,37.34A29.9,29.9,0,0,1,655.57,225h0c0-.1,0-.2,0-.3,0-.79.06-1.57.13-2.34a24.36,24.36,0,1,1,43.92,17C699.85,239.21,700.05,239,700.25,238.8Zm47.67,86.43h0l0,0ZM673.33,397l9.52,13.88h-.12l.11,38.84h4.86l-.11-38.84,9.53-13.89,38.69-21.79a38.27,38.27,0,0,0,11.85,13.09l-45,66.33,1.51,1a37.53,37.53,0,0,0-18.71-5h-.22a37.51,37.51,0,0,0-19.4,5.38,29,29,0,0,0-6.93,5.32,38.14,38.14,0,0,0-5.84,7.24l-16-9v.12l-23.77-13.39-9.52-13.88h.12l0-37.52h-4.65l.05,37.52-9.53,13.88L550,468.64l-.23.13.88,1.56a38.18,38.18,0,0,0-12-13.17l45.11-66.5-.36-.24a37.67,37.67,0,0,0,35.89-.24l-.71.48,45.13,66.51,3.84-2.61-45-66.3a29.8,29.8,0,0,0,5-4.13,38.16,38.16,0,0,0,6.9-9.09ZM493.69,495.63a29.09,29.09,0,0,0,5,16.32,29.91,29.91,0,0,1-11.15-23.33h0c0-.1,0-.2,0-.31,0-.78.06-1.56.13-2.33a24.47,24.47,0,1,1,44.13,17,29.28,29.28,0,0,0,4.36-37.73,29.93,29.93,0,0,1,11.14,23.33h0A24.47,24.47,0,1,1,503,474.22,29.16,29.16,0,0,0,493.69,495.63ZM387.44,488h92.08c0,.23,0,.45,0,.67a38.15,38.15,0,0,0,2.65,14L443.5,524.37H423.44L385,502.72l-1.2,2.13a37.82,37.82,0,0,0,3.64-16.23C387.46,488.4,387.45,488.18,387.44,488Zm92.44-4.65h-92.8a37.93,37.93,0,0,0-4.18-12.77l1.29,2.3,39.44-22.22h20.06L483,472.74A38,38,0,0,0,479.88,483.3Zm-154,12.33a29.09,29.09,0,0,0,5,16.32,29.93,29.93,0,0,1-11.14-23.33h0c0-.1,0-.2,0-.31,0-.78.07-1.56.13-2.33A24.47,24.47,0,1,1,364,503a29.26,29.26,0,0,0,4.35-37.73,29.94,29.94,0,0,1,11.15,23.33h0a24.47,24.47,0,1,1-44.28-14.4A29.16,29.16,0,0,0,325.84,495.63ZM219.6,488h92.07c0,.23,0,.45,0,.67a38,38,0,0,0,2.66,14l-38.65,21.78H255.59l-38.42-21.65-1.2,2.13a37.82,37.82,0,0,0,3.64-16.23C219.61,488.4,219.6,488.18,219.6,488ZM312,483.3H219.24a38,38,0,0,0-4.18-12.76l1.29,2.29,39.43-22.22h20.07l39.28,22.13A37.66,37.66,0,0,0,312,483.3Zm289.16,99.15a37.57,37.57,0,0,0-19.41,5.38c-.59.33-1.18.68-1.75,1l3.75-2.55-45-66.3a28.86,28.86,0,0,0,5-4.13,38.1,38.1,0,0,0,6.9-9.08l38.88,21.91,9.52,13.88h-.12l.11,38.84,4.65,0-.11-38.83,9.53-13.89,23.93-13.48v.12l15-8.44A38.05,38.05,0,0,0,663.86,520l-45,66.33,3.84,2.62,14.34-21.13v.31l31-45.66a37.6,37.6,0,0,0,17.21,4.16h.22a37.41,37.41,0,0,0,17.25-4.23l-.05,0,45.11,66.5a29.61,29.61,0,0,0-5.07,4.21,38.42,38.42,0,0,0-5.74,7.08L697.55,578,688,564.15h.13l-.06-37.52h-4.86l0,37.52L673.75,578l-39.94,22.51,2.28,4.06.23-.13h0l.73-.42v.13l38.69-21.8h19.85l39.1,22a37.66,37.66,0,0,0-3.18,10.72H638.93a37.72,37.72,0,0,0-1.88-7.6v.62A37.91,37.91,0,0,0,601.19,582.45Zm35.86,50.3v.59a37.87,37.87,0,0,0,2.26-12.88c0-.22,0-.44,0-.66h91.86c0,.22,0,.44,0,.66a38,38,0,0,0,2.66,14l-38.65,21.78H675.29l-38.24-21.55v.12l-.4-.22-1.2,2.13A37.75,37.75,0,0,0,637.05,632.75Zm33.4,105.69c.13-.2.26-.41.4-.61a29.24,29.24,0,0,0-4.59,37.35,29.92,29.92,0,0,1-10.69-22.94h0c0-.11,0-.21,0-.31,0-.79.06-1.56.13-2.33a24.36,24.36,0,1,1,43.92,17l.61-.6c-.13.2-.26.4-.4.6a29.25,29.25,0,0,0,4.6-37.34,29.92,29.92,0,0,1,10.69,22.94h0a24.36,24.36,0,1,1-44.06-14.41C670.85,738,670.65,738.23,670.45,738.44Zm96.57-80,.06,37.52-9.53,13.89-39.72,22.38h0l-.1.06a38.13,38.13,0,0,0-11-11.55l45.09-66.46A37.6,37.6,0,0,0,769,658.47h-2ZM1059,488h92.08c0,.23,0,.45,0,.67a38.15,38.15,0,0,0,2.65,14l-38.64,21.78H1095l-38.42-21.65-1.2,2.13a37.82,37.82,0,0,0,3.64-16.23C1059.05,488.4,1059,488.18,1059,488Zm92.44-4.65h-92.8a37.51,37.51,0,0,0-4.18-12.76l1.29,2.29,39.44-22.22h20.07l39.28,22.13A37.66,37.66,0,0,0,1151.47,483.3Zm42.94,29.86a24.55,24.55,0,0,1-19.81-38.94,29.26,29.26,0,0,0-4.35,37.73,29.94,29.94,0,0,1-11.15-23.33h0c0-.1,0-.2,0-.31,0-.78.06-1.56.13-2.33a24.47,24.47,0,1,1,44.13,17,29.28,29.28,0,0,0,4.36-37.73,29.93,29.93,0,0,1,11.14,23.33h0A24.5,24.5,0,0,1,1194.41,513.16Zm15.1-56.49a37.74,37.74,0,0,0-39.93-.68,29,29,0,0,0-6.92,5.32,37.64,37.64,0,0,0-5.9,7.33L1117,446.25l-9.53-13.88h.13l-.06-37.52h-4.65l.06,37.52-9.53,13.88-39.72,22.38-.23.13.88,1.57a38.12,38.12,0,0,0-12-13.18l45.11-66.5-.36-.24a37.67,37.67,0,0,0,35.89-.24l-.71.48,45.12,66.51,3.85-2.61-45-66.3a30.21,30.21,0,0,0,5-4.13,38.16,38.16,0,0,0,6.9-9.09L1177.08,397l9.52,13.88h-.12l.11,38.84h4.65l-.11-38.84,9.53-13.89L1239.5,375a38.26,38.26,0,0,0,11.9,13.19l-45,66.33Zm-66.68-100.49h92.07c0,.22,0,.44,0,.66a37.87,37.87,0,0,0,2.66,14l-38.65,21.78h-20.07l-38.42-21.65-1.2,2.14a37.86,37.86,0,0,0,3.64-16.24C1142.84,356.62,1142.83,356.4,1142.83,356.18ZM831.92,256.39l-45,66.33,3.85,2.61,45.12-66.51-.36-.24a37.67,37.67,0,0,0,35.89-.24l-.7.48,45.11,66.51a29.55,29.55,0,0,0-5.07,4.2,38.19,38.19,0,0,0-5.8,7.17l-39.57-22.29-9.52-13.88H856l0-37.52h-4.65l.05,37.52-9.53,13.89L802.1,336.8h0l-.23.13,2.28,4.06,39.43-22.22h20.07l39.1,22a37.63,37.63,0,0,0-3.18,10.73H806.78a38,38,0,0,0-37.53-32.7H769a37.59,37.59,0,0,0-19.33,5.34l2.14-1.45-45-66.3a30.21,30.21,0,0,0,5-4.13,38.47,38.47,0,0,0,6.85-9l38.71,21.82L766.91,279h-.13l.11,38.84h4.86l-.1-38.84,9.53-13.89L820,243.2A38.16,38.16,0,0,0,831.92,256.39Zm-16.14-36.71H723a37.46,37.46,0,0,0-3.06-10.49l.12-.07.05.09L759.53,187h19.85L802,199.76v-.13l16.85,9.5A37.5,37.5,0,0,0,815.78,219.68ZM767,131.24l.06,37.52-9.53,13.89L717.83,205h0l-.1.05a38.21,38.21,0,0,0-11-11.54l45.09-66.46A37.6,37.6,0,0,0,769,131.24h-2Zm21.06-38a24.47,24.47,0,0,1-4.65,14.4l.61-.6c-.13.2-.26.4-.4.6a29.25,29.25,0,0,0,4.6-37.34,29.92,29.92,0,0,1,10.69,22.94h0a24.36,24.36,0,1,1-44.06-14.41c-.22.2-.42.4-.62.61.13-.2.26-.41.4-.61a29.24,29.24,0,0,0-4.59,37.35,29.92,29.92,0,0,1-10.69-22.94h0c0-.11,0-.2,0-.31,0-.79.06-1.56.13-2.33a24.35,24.35,0,0,1,48.57,2.64ZM555.29,224.34h92.07c0,.22,0,.44,0,.66A37.87,37.87,0,0,0,650,239l-38.65,21.78H591.28L552.86,239.1l-1.2,2.13A37.82,37.82,0,0,0,555.3,225C555.3,224.78,555.29,224.56,555.29,224.34Zm95.53-15.21a37.5,37.5,0,0,0-3.1,10.55H554.93a37.87,37.87,0,0,0-4.19-12.77l1.3,2.3L591.47,187h20.07Zm-61.28,56L599.06,279h-.12l.11,38.84h4.65L603.59,279l9.53-13.89,23.93-13.48v.12l15-8.43a38.14,38.14,0,0,0,11.84,13.09l-45,66.33,3.84,2.61,14.34-21.13v.31l31-45.66A37.6,37.6,0,0,0,685.24,263h.22a37.38,37.38,0,0,0,17.25-4.23l-.05,0,45.11,66.51a29.55,29.55,0,0,0-5.07,4.2,38.49,38.49,0,0,0-5.74,7.09l-39.41-22.21L688,300.53h.13L688.09,263h-4.86l0,37.52-9.53,13.89L634,336.8h0l-.23.13,2.28,4.06,1-.54v.12l38.69-21.8h19.85l39.1,22a37.63,37.63,0,0,0-3.18,10.73H638.93a37.65,37.65,0,0,0-1.88-7.61v.62a37.82,37.82,0,0,0-55.27-20.33c-.6.33-1.18.69-1.75,1.06l3.75-2.55-45-66.3a29.8,29.8,0,0,0,5-4.13,38.36,38.36,0,0,0,6.9-9.09Zm-454,91.07h92.08c0,.22,0,.44,0,.66a38.07,38.07,0,0,0,2.65,14l-38.64,21.78H171.54l-38.42-21.65-1.2,2.13a37.82,37.82,0,0,0,3.64-16.23C135.56,356.62,135.55,356.4,135.54,356.18ZM92.24,332.3a24.56,24.56,0,0,1,19.81,38.95,29.28,29.28,0,0,0,4.35-37.74,29.92,29.92,0,0,1,11.15,23.33h0a24.47,24.47,0,1,1-44.28-14.4,29.3,29.3,0,0,0-4.35,37.73,29.93,29.93,0,0,1-11.14-23.33h0c0-.1,0-.2,0-.3,0-.79.06-1.57.13-2.34A24.49,24.49,0,0,1,92.24,332.3Zm-12,58.36-.36-.24a37.69,37.69,0,0,0,35.88-.23l-.7.47,45.12,66.51,3.85-2.61-45-66.3a30.21,30.21,0,0,0,5-4.13,38.16,38.16,0,0,0,6.9-9.09L169.8,397l9.52,13.88h-.13l.11,38.84H184l-.11-38.84,9.54-13.89L232.22,375a38.16,38.16,0,0,0,11.9,13.19l-45,66.33,3.1,2.11A37.72,37.72,0,0,0,162.3,456a29,29,0,0,0-6.92,5.32,37.64,37.64,0,0,0-5.9,7.33l-39.73-22.39-9.53-13.88h.13l-.06-37.52H95.64l.06,37.52-9.53,13.89L46.45,468.64l-.23.13.91,1.62a38.18,38.18,0,0,0-12-13.23ZM51.75,488h92.08c0,.23,0,.45,0,.67a38.15,38.15,0,0,0,2.65,14l-38.65,21.78H87.75L49.33,502.72l-1.2,2.13a37.82,37.82,0,0,0,3.64-16.23C51.77,488.4,51.76,488.18,51.75,488Zm92.44-4.65H51.39a37.93,37.93,0,0,0-4.18-12.77l1.29,2.3,39.44-22.22H108l39.29,22.13A37.66,37.66,0,0,0,144.19,483.3Zm-8.65,136.5h92.08c0,.22,0,.44,0,.66a38.15,38.15,0,0,0,2.65,14l-38.64,21.78H171.54l-38.42-21.65-1.2,2.13a37.82,37.82,0,0,0,3.64-16.23C135.56,620.24,135.55,620,135.54,619.8Zm-43.3-23.88a24.55,24.55,0,0,1,19.81,38.94,29.26,29.26,0,0,0,4.35-37.73,29.91,29.91,0,0,1,11.15,23.33h0a24.47,24.47,0,1,1-44.28-14.4,29.3,29.3,0,0,0-4.35,37.73,29.93,29.93,0,0,1-11.14-23.33h0c0-.1,0-.2,0-.31,0-.78.06-1.56.13-2.33A24.49,24.49,0,0,1,92.24,595.92ZM779.19,788H759.34l-38.42-21.65,0,.1-.16-.1-.22.38a37.84,37.84,0,0,0,2.87-14.47c0-.23,0-.45,0-.67h92.08c0,.22,0,.44,0,.67a38,38,0,0,0,2.66,14l-16,9v-.12Zm36.59-41.06H723a37.53,37.53,0,0,0-3.06-10.5l.12-.07.05.1,39.44-22.22h19.85L802,727v-.12l16.85,9.49A37.56,37.56,0,0,0,815.78,746.92Zm-34.44-37L771.82,696h.12l-.06-37.52h-2.63a37.38,37.38,0,0,0,17.25-4.23l0,0,15.58,23v-.32l29.75,43.86,3.85-2.62-45-66.3a28.86,28.86,0,0,0,5-4.13,38.1,38.1,0,0,0,6.9-9.08l38.88,21.91,9.52,13.88h-.12l.11,38.84,4.65,0-.11-38.83L865,660.55l38.85-21.89a38.1,38.1,0,0,0,11.89,13.18l-45,66.33,3.12,2.12a37.79,37.79,0,0,0-39.94-.69,29.06,29.06,0,0,0-6.93,5.32,38.24,38.24,0,0,0-5.9,7.33Zm529.33-90.07h92.07c0,.22,0,.44,0,.66a37.94,37.94,0,0,0,2.65,14l-38.65,21.78h-20.07l-38.42-21.65-1.2,2.13a37.82,37.82,0,0,0,3.65-16.23C1310.69,620.24,1310.67,620,1310.67,619.8ZM1226.88,488H1319c0,.23,0,.45,0,.67a37.94,37.94,0,0,0,2.65,14l-38.65,21.78h-20.07l-38.42-21.65-1.19,2.13a38,38,0,0,0,3.63-16.23C1226.89,488.4,1226.88,488.18,1226.88,488Zm92.44-4.65h-92.8a37.72,37.72,0,0,0-4.19-12.77l1.3,2.3,39.43-22.22h20.07l39.28,22.13A38,38,0,0,0,1319.32,483.3Zm42.93,29.86a24.55,24.55,0,0,1-19.81-38.94,29.26,29.26,0,0,0-4.35,37.73A29.93,29.93,0,0,1,1327,488.62h0c0-.1,0-.2,0-.31,0-.78.06-1.56.13-2.33a24.47,24.47,0,1,1,44.13,17,29.26,29.26,0,0,0,4.35-37.73,29.91,29.91,0,0,1,11.15,23.33h0A24.5,24.5,0,0,1,1362.25,513.16Zm15.1-56.5a37.75,37.75,0,0,0-39.92-.67,29,29,0,0,0-6.93,5.32,38,38,0,0,0-5.89,7.33l-39.74-22.39-9.52-13.88h.12l0-37.52h-4.65l0,37.52-9.53,13.89-39.71,22.37-.23.13.9,1.61a38.05,38.05,0,0,0-12-13.22l45.11-66.5-.36-.24a37.7,37.7,0,0,0,35.89-.23l-.7.47,45.12,66.51,3.84-2.61-45-66.3a29.8,29.8,0,0,0,5-4.13,38.46,38.46,0,0,0,6.91-9.09L1344.92,397l9.53,13.88h-.13l.11,38.84h4.65l-.11-38.84,9.53-13.89L1407.35,375a38.16,38.16,0,0,0,11.9,13.19l-45,66.33Zm-66.68-100.48h92.07c0,.22,0,.44,0,.66a37.86,37.86,0,0,0,2.65,14l-38.65,21.78h-20.06l-38.43-21.65-1.19,2.13a38,38,0,0,0,3.64-16.23C1310.69,356.62,1310.67,356.4,1310.67,356.18Zm-83.79-131.84H1319c0,.22,0,.44,0,.66a37.86,37.86,0,0,0,2.65,14l-38.65,21.78h-20.07l-38.42-21.65-1.19,2.13a38,38,0,0,0,3.63-16.23C1226.89,224.78,1226.88,224.56,1226.88,224.34Zm92.44-4.66h-92.8a37.72,37.72,0,0,0-4.19-12.77l1.3,2.3L1263.06,187h20.07l39.28,22.14A37.81,37.81,0,0,0,1319.32,219.68Zm42.93,29.86a24.55,24.55,0,0,1-19.81-38.94,29.26,29.26,0,0,0-4.35,37.73A29.93,29.93,0,0,1,1327,225h0c0-.1,0-.2,0-.3,0-.79.06-1.57.13-2.34a24.47,24.47,0,1,1,44.13,17,29.28,29.28,0,0,0,4.35-37.74A29.92,29.92,0,0,1,1386.73,225h0A24.5,24.5,0,0,1,1362.25,249.54ZM1242.9,93.23c0-.11,0-.2,0-.31,0-.79.06-1.56.13-2.33a24.47,24.47,0,1,1,44.14,17,29.3,29.3,0,0,0,4.35-37.73,29.92,29.92,0,0,1,11.14,23.33h0a24.47,24.47,0,1,1-44.27-14.41,29.28,29.28,0,0,0-4.35,37.74,30,30,0,0,1-11.14-23.33Zm-100.06,0c0-.23,0-.45,0-.67h92.07c0,.22,0,.44,0,.67a38,38,0,0,0,2.66,14L1198.89,129h-20.07l-38.42-21.65-1.2,2.14A37.82,37.82,0,0,0,1142.84,93.23Zm34.24,40.1,9.52,13.88h-.12l.11,38.84h4.65l-.11-38.83,9.53-13.89,38.84-21.89a38.23,38.23,0,0,0,11.9,13.18l-45,66.33,3.13,2.12a37.75,37.75,0,0,0-40-.69,29.21,29.21,0,0,0-6.92,5.32,37.94,37.94,0,0,0-5.9,7.33L1117,182.63l-9.53-13.87h.13l-.06-37.53h-4.65l.06,37.52-9.53,13.89L1053.73,205h0l-.23.13.9,1.59a38.18,38.18,0,0,0-12-13.21l45.11-66.49-.36-.25a37.61,37.61,0,0,0,35.88-.23l-.7.48,45.12,66.5,3.85-2.61-45-66.3a29.72,29.72,0,0,0,5-4.13,38.1,38.1,0,0,0,6.9-9.08Zm-102-40.1c0-.11,0-.2,0-.31,0-.79.06-1.56.13-2.33a24.47,24.47,0,1,1,44.13,17,29.26,29.26,0,0,0,4.35-37.73,29.89,29.89,0,0,1,11.15,23.33h0a24.47,24.47,0,1,1-44.27-14.41,29.3,29.3,0,0,0-4.36,37.74,30,30,0,0,1-11.14-23.33Zm-100,0c0-.23,0-.45,0-.67h92.08c0,.22,0,.44,0,.67a38.15,38.15,0,0,0,2.65,14L1031,129H1011l-38.43-21.65-1.19,2.14A38,38,0,0,0,975,93.23Zm34.23,40.1,9.53,13.88h-.13l.11,38.84h4.65l-.11-38.83,9.53-13.89,38.85-21.89a38.13,38.13,0,0,0,11.9,13.18l-45,66.33,3.12,2.12a37.73,37.73,0,0,0-39.94-.69,29.26,29.26,0,0,0-6.93,5.32,38.27,38.27,0,0,0-5.89,7.33l-39.74-22.39-9.52-13.87h.12l0-37.53h-4.65l0,37.52-9.53,13.89L885.89,205h0l-.23.13.92,1.64a38.13,38.13,0,0,0-12-13.26l45.11-66.49-.35-.25a37.59,37.59,0,0,0,35.87-.23l-.69.48,45.12,66.5,3.85-2.61-45-66.3a29.25,29.25,0,0,0,5-4.13,37.88,37.88,0,0,0,6.91-9.08Zm-102-40.1c0-.11,0-.2,0-.31,0-.79.07-1.56.13-2.33a24.47,24.47,0,1,1,44.14,17,29.26,29.26,0,0,0,4.35-37.73A29.92,29.92,0,0,1,967,93.23h0A24.47,24.47,0,1,1,922.7,78.82a29.28,29.28,0,0,0-4.35,37.74,30,30,0,0,1-11.14-23.33Zm-100.06,0c0-.23,0-.45,0-.67h92.07c0,.22,0,.44,0,.67a38,38,0,0,0,2.66,14L863.2,129H843.13l-38.42-21.65-1.2,2.14A37.82,37.82,0,0,0,807.15,93.23Zm34.24,40.1,9.52,13.88h-.12l.11,38.84h4.65l-.11-38.83L865,133.32l38.85-21.89a38.1,38.1,0,0,0,11.89,13.18l-45,66.33,3.12,2.12a37.73,37.73,0,0,0-39.94-.69,29.06,29.06,0,0,0-6.93,5.32,37.94,37.94,0,0,0-5.9,7.33l-39.73-22.39-9.52-13.87h.12l-.06-37.53h-2.62A37.59,37.59,0,0,0,786.5,127l0,0L802,150v-.32l29.75,43.85,3.85-2.61-45-66.3a29.32,29.32,0,0,0,5-4.13,38.1,38.1,0,0,0,6.9-9.08ZM637.05,105.52v.59a37.91,37.91,0,0,0,2.26-12.88c0-.23,0-.45,0-.67h91.86c0,.22,0,.44,0,.67a38,38,0,0,0,2.66,14L695.14,129H675.29l-38.24-21.54v.12l-.4-.23-1.2,2.14A38.66,38.66,0,0,0,637.05,105.52Zm36.28,27.81,9.52,13.88h-.12l.11,38.84h4.86l-.11-38.83,9.53-13.89,38.69-21.8a38.18,38.18,0,0,0,11.85,13.09l-45,66.33,1.52,1a37.7,37.7,0,0,0-18.72-5h-.22a37.51,37.51,0,0,0-19.4,5.38,29.26,29.26,0,0,0-6.93,5.32,38.14,38.14,0,0,0-5.84,7.24l-16-9V196l-23.77-13.4-9.52-13.87h.12l0-37.53h-4.65l.05,37.52-9.53,13.89L550,205h0l-.23.13.9,1.58a38.23,38.23,0,0,0-12-13.2l45.11-66.49-.36-.25a37.61,37.61,0,0,0,35.88-.23l-.7.48,45.13,66.5,3.84-2.61-45-66.3a29.32,29.32,0,0,0,5-4.13,38.1,38.1,0,0,0,6.9-9.08Zm-102-40.1c0-.11,0-.2,0-.31,0-.79.06-1.56.13-2.33a24.47,24.47,0,1,1,44.13,17,29.28,29.28,0,0,0,4.36-37.73,29.92,29.92,0,0,1,11.14,23.33h0A24.47,24.47,0,1,1,586.8,78.82a29.28,29.28,0,0,0-4.35,37.74A30,30,0,0,1,571.3,93.23Zm-100,0c0-.23,0-.45,0-.67h92.08c0,.22,0,.44,0,.67a38.15,38.15,0,0,0,2.65,14L527.29,129H507.23l-38.42-21.65-1.2,2.14A37.85,37.85,0,0,0,471.25,93.23Zm34.24,40.1L515,147.21h-.13l.11,38.84h4.65l-.11-38.83,9.53-13.89,38.85-21.89a38.13,38.13,0,0,0,11.9,13.18l-45,66.33,3.12,2.12a37.73,37.73,0,0,0-39.94-.69,29.47,29.47,0,0,0-6.93,5.32,38.27,38.27,0,0,0-5.89,7.33l-39.74-22.39-9.52-13.87H436L436,131.23h-4.65l.06,37.52-9.53,13.89L382.14,205h0l-.23.13.92,1.63a38.17,38.17,0,0,0-12-13.25l45.11-66.49-.36-.25a37.61,37.61,0,0,0,35.88-.23l-.7.48,45.12,66.5,3.85-2.61-45-66.3a29.72,29.72,0,0,0,5-4.13,38.1,38.1,0,0,0,6.9-9.08Zm-102-40.1c0-.11,0-.2,0-.31,0-.79.06-1.56.13-2.33a24.47,24.47,0,1,1,44.13,17,29.26,29.26,0,0,0,4.35-37.73,29.89,29.89,0,0,1,11.15,23.33h0A24.47,24.47,0,1,1,419,78.82a29.28,29.28,0,0,0-4.35,37.74,30,30,0,0,1-11.14-23.33Zm-100.06,0c0-.23,0-.45,0-.67h92.07c0,.22,0,.44,0,.67a37.94,37.94,0,0,0,2.65,14L359.45,129H339.38L301,107.32l-1.2,2.14A37.82,37.82,0,0,0,303.4,93.23Zm34.24,40.1,9.53,13.88H347l.11,38.84h4.65l-.11-38.83,9.53-13.89,38.85-21.89A38.13,38.13,0,0,0,412,124.61l-45,66.33,3.12,2.12a37.73,37.73,0,0,0-39.94-.69,29.26,29.26,0,0,0-6.93,5.32,38.32,38.32,0,0,0-5.9,7.33l-39.73-22.39-9.52-13.87h.12l-.05-37.53h-4.65l.05,37.52L254,182.65,214.29,205h0l-.23.13.9,1.59a38.18,38.18,0,0,0-12-13.21l45.11-66.49-.36-.25a37.61,37.61,0,0,0,35.88-.23l-.7.48L328,193.55l3.84-2.61-45-66.3a29.32,29.32,0,0,0,5-4.13,38.1,38.1,0,0,0,6.9-9.08Zm-102-40.1c0-.11,0-.2,0-.31,0-.79.06-1.56.13-2.33a24.47,24.47,0,1,1,44.13,17,29.28,29.28,0,0,0,4.36-37.73,29.92,29.92,0,0,1,11.14,23.33h0a24.47,24.47,0,1,1-44.27-14.41,29.28,29.28,0,0,0-4.35,37.74,30,30,0,0,1-11.15-23.33Zm-100.06,0c0-.23,0-.45,0-.67h92.08c0,.22,0,.44,0,.67a38.15,38.15,0,0,0,2.65,14L191.61,129H171.54l-38.42-21.65-1.2,2.14A37.82,37.82,0,0,0,135.56,93.23Zm34.24,40.1,9.52,13.88h-.13l.11,38.84H184l-.11-38.83,9.53-13.89,38.85-21.89a38.13,38.13,0,0,0,11.9,13.18l-45,66.33,3.12,2.12a37.73,37.73,0,0,0-39.94-.69,29.21,29.21,0,0,0-6.92,5.32,37.94,37.94,0,0,0-5.9,7.33l-39.73-22.39-9.53-13.87h.13l-.06-37.53H95.64l.06,37.52-9.53,13.89L46.45,205h0l-.23.13.92,1.64a38.2,38.2,0,0,0-12-13.26l45.11-66.49-.36-.25a37.61,37.61,0,0,0,35.88-.23l-.7.48,45.12,66.5,3.85-2.61-45-66.3a29.72,29.72,0,0,0,5-4.13,38.1,38.1,0,0,0,6.9-9.08Zm-102-40.1c0-.11,0-.2,0-.31,0-.79.06-1.56.13-2.33a24.47,24.47,0,1,1,44.13,17A29.26,29.26,0,0,0,116.4,69.9a29.89,29.89,0,0,1,11.15,23.33h0A24.47,24.47,0,1,1,83.26,78.82a29.31,29.31,0,0,0-4.35,37.74A30,30,0,0,1,67.77,93.23Zm-100,0c0-.23,0-.45,0-.67H59.77c0,.22,0,.44,0,.67a37.94,37.94,0,0,0,2.65,14L23.76,129H3.69l-38.42-21.65-1.2,2.14A37.82,37.82,0,0,0-32.28,93.23Zm-67.8,0h0c0-.11,0-.2,0-.31,0-.79.06-1.56.13-2.33a24.5,24.5,0,0,1,24.32-21.9A24.5,24.5,0,0,1-51.14,93.23a24.48,24.48,0,0,1-4.66,14.4,29.14,29.14,0,0,0,9.32-21.42,29.15,29.15,0,0,0-5-16.31A29.92,29.92,0,0,1-40.3,93.23h0a24.49,24.49,0,0,1-24.46,24.53A24.5,24.5,0,0,1-89.24,93.23a24.48,24.48,0,0,1,4.66-14.41,29.19,29.19,0,0,0-9.32,21.41,29.12,29.12,0,0,0,5,16.33A30,30,0,0,1-100.08,93.23Zm12.48,33.82-.35-.25a37.58,37.58,0,0,0,17.76,4.44,37.62,37.62,0,0,0,18.12-4.67l-.7.48,45.12,66.5,3.84-2.61-45-66.3a29.32,29.32,0,0,0,5-4.13,38.41,38.41,0,0,0,6.91-9.08L2,133.33l9.53,13.88h-.13l.11,38.84h4.65L16,147.21l9.53-13.89,38.85-21.89a38.13,38.13,0,0,0,11.9,13.18l-45,66.33,3.12,2.12a37.73,37.73,0,0,0-39.94-.69,29.26,29.26,0,0,0-6.93,5.32,38.71,38.71,0,0,0-5.9,7.33L-58.1,182.63l-9.52-13.87h.12l0-37.53H-72.2l0,37.52-9.53,13.89L-121.4,205h0l-.22.13.9,1.6a38.14,38.14,0,0,0-12-13.22Zm-28.49,97.29H-24c0,.22,0,.44,0,.66a37.86,37.86,0,0,0,2.65,14L-60,260.75H-80.1l-38.42-21.65-1.2,2.13A37.82,37.82,0,0,0-116.08,225C-116.08,224.78-116.09,224.56-116.09,224.34Zm92.43-4.66h-92.79a37.87,37.87,0,0,0-4.19-12.77l1.3,2.3L-79.91,187h20.07l39.28,22.14A37.83,37.83,0,0,0-23.66,219.68Zm-124.9,29.86A24.5,24.5,0,0,1-173,225a24.48,24.48,0,0,1,4.66-14.4A29.18,29.18,0,0,0-177.69,232a29.09,29.09,0,0,0,5,16.32A29.94,29.94,0,0,1-183.87,225h0c0-.1,0-.2,0-.3,0-.79.06-1.57.13-2.34a24.5,24.5,0,0,1,24.32-21.9A24.5,24.5,0,0,1-134.93,225a24.51,24.51,0,0,1-4.66,14.41A29.16,29.16,0,0,0-130.27,218a29.19,29.19,0,0,0-5-16.32A30,30,0,0,1-124.09,225h0A24.49,24.49,0,0,1-148.56,249.54Zm16,6.88a29.8,29.8,0,0,0,5-4.13,38.36,38.36,0,0,0,6.9-9.09l38.88,21.91L-72.32,279h-.12l.11,38.84h4.65L-67.79,279l9.53-13.89,38.85-21.89a38.16,38.16,0,0,0,11.9,13.19l-45,66.33,3.84,2.61,45.13-66.51-.36-.24A37.65,37.65,0,0,0,32,258.34l-.7.48L76.4,325.33a29.25,29.25,0,0,0-5.08,4.2,38.19,38.19,0,0,0-5.8,7.17L26,314.41l-9.52-13.88h.13L16.5,263H11.85l.06,37.52L2.38,314.43-37.34,336.8h0l-.23.13,2.28,4.06L4.15,318.77H24.21l39.1,22a37.62,37.62,0,0,0-3.17,10.73h-92.8a38,38,0,0,0-37.53-32.7,37.51,37.51,0,0,0-19.4,5.38c-.6.33-1.19.69-1.76,1.06l3.75-2.55ZM-32.3,356.18H59.77c0,.22,0,.44,0,.66a37.86,37.86,0,0,0,2.65,14L23.76,392.59H3.69l-38.42-21.65-1.2,2.14a37.87,37.87,0,0,0,3.65-16.24C-32.28,356.62-32.3,356.4-32.3,356.18Zm-67.78.66h0c0-.1,0-.2,0-.3,0-.79.06-1.57.13-2.34a24.5,24.5,0,0,1,24.32-21.9,24.5,24.5,0,0,1,24.47,24.54,24.48,24.48,0,0,1-4.66,14.41,29.16,29.16,0,0,0,9.32-21.42,29.19,29.19,0,0,0-5-16.32A30,30,0,0,1-40.3,356.84h0a24.49,24.49,0,0,1-24.46,24.54,24.5,24.5,0,0,1-24.47-24.54,24.48,24.48,0,0,1,4.66-14.4,29.18,29.18,0,0,0-9.32,21.41,29.07,29.07,0,0,0,5,16.32A29.94,29.94,0,0,1-100.08,356.84Zm12.48,33.82-.36-.24a37.61,37.61,0,0,0,17.77,4.43,37.51,37.51,0,0,0,18.12-4.67l-.7.48,45.12,66.51,3.84-2.61-45-66.3a29.8,29.8,0,0,0,5-4.13A38.46,38.46,0,0,0-36.92,375L2,397l9.53,13.88h-.13l.11,38.84h4.65L16,410.82l9.53-13.89L64.38,375a38.16,38.16,0,0,0,11.9,13.19l-45,66.33,3.11,2.11A37.74,37.74,0,0,0-5.54,456a29,29,0,0,0-6.93,5.32,38,38,0,0,0-5.9,7.33L-58.1,446.25l-9.52-13.88h.12l0-37.52H-72.2l0,37.52-9.53,13.88-39.72,22.38-.22.13.88,1.58a38.08,38.08,0,0,0-12-13.19ZM-116.09,488H-24c0,.23,0,.45,0,.67a37.94,37.94,0,0,0,2.65,14L-60,524.37H-80.1l-38.42-21.65-1.2,2.13a37.82,37.82,0,0,0,3.64-16.23C-116.08,488.4-116.09,488.18-116.09,488Zm92.43-4.65h-92.79a38.08,38.08,0,0,0-4.18-12.77l1.29,2.3,39.43-22.22h20.07l39.28,22.13A38,38,0,0,0-23.66,483.3Zm-124.9,29.86A24.5,24.5,0,0,1-173,488.62a24.45,24.45,0,0,1,4.66-14.4,29.16,29.16,0,0,0-9.32,21.41,29.09,29.09,0,0,0,5,16.32,29.94,29.94,0,0,1-11.15-23.33h0c0-.1,0-.2,0-.31,0-.78.06-1.56.13-2.33a24.5,24.5,0,0,1,24.32-21.9,24.5,24.5,0,0,1,24.47,24.54,24.45,24.45,0,0,1-4.66,14.4,29.12,29.12,0,0,0,9.32-21.41,29.16,29.16,0,0,0-5-16.32,29.93,29.93,0,0,1,11.14,23.33h0A24.5,24.5,0,0,1-148.56,513.16Zm16,6.87a28.86,28.86,0,0,0,5-4.13,38.1,38.1,0,0,0,6.9-9.08l38.88,21.91,9.53,13.88h-.13l.11,38.84,4.65,0-.11-38.83,9.53-13.89,38.85-21.89A38.13,38.13,0,0,0-7.51,520l-45,66.33,3.84,2.62,45.13-66.51-.36-.24A37.65,37.65,0,0,0,32,522l-.7.48,45.12,66.5a29.3,29.3,0,0,0-5.08,4.21,38.19,38.19,0,0,0-5.8,7.17L26,578l-9.52-13.88h.13l-.06-37.52H11.85l.06,37.52L2.38,578l-39.95,22.51,2.28,4.06.23-.13h0L4.15,582.39H24.21l39.1,22a37.65,37.65,0,0,0-3.17,10.72h-92.8a38,38,0,0,0-37.53-32.69,37.51,37.51,0,0,0-19.4,5.38c-.6.33-1.18.68-1.75,1l3.74-2.55ZM-32.3,619.8H59.77c0,.22,0,.44,0,.66a37.94,37.94,0,0,0,2.65,14L23.76,656.21H3.69l-38.42-21.65-1.2,2.14a37.9,37.9,0,0,0,3.65-16.24C-32.28,620.24-32.3,620-32.3,619.8Zm-67.78.66h0c0-.1,0-.2,0-.31,0-.78.06-1.56.13-2.33a24.5,24.5,0,0,1,24.32-21.9,24.5,24.5,0,0,1,24.47,24.54,24.45,24.45,0,0,1-4.66,14.4,29.12,29.12,0,0,0,9.32-21.41,29.16,29.16,0,0,0-5-16.32A29.93,29.93,0,0,1-40.3,620.46h0A24.5,24.5,0,0,1-64.77,645a24.51,24.51,0,0,1-24.47-24.54,24.45,24.45,0,0,1,4.66-14.4,29.18,29.18,0,0,0-9.32,21.41,29.09,29.09,0,0,0,5,16.32A29.94,29.94,0,0,1-100.08,620.46Zm12.48,33.82L-88,654a37.73,37.73,0,0,0,17.77,4.43,37.51,37.51,0,0,0,18.12-4.67l-.7.48,45.12,66.51,3.84-2.62-45-66.3a28.86,28.86,0,0,0,5-4.13,38.41,38.41,0,0,0,6.91-9.08L2,660.57l9.53,13.88h-.13l.11,38.84,4.65,0L16,674.44l9.53-13.89,38.85-21.89a38.13,38.13,0,0,0,11.9,13.18l-45,66.33,3.12,2.12a37.79,37.79,0,0,0-39.94-.69,29.26,29.26,0,0,0-6.93,5.32,39,39,0,0,0-5.9,7.33L-58.1,709.87-67.62,696h.12l0-37.52H-72.2l0,37.52-9.53,13.89-39.72,22.38h0l-.22.13.89,1.6a38,38,0,0,0-12-13.22Zm-28.49,97.29H-24c0,.22,0,.44,0,.67a37.94,37.94,0,0,0,2.65,14L-60,788H-80.1l-38.42-21.65-1.2,2.14a37.85,37.85,0,0,0,3.64-16.23C-116.08,752-116.09,751.79-116.09,751.57Zm92.43-4.65h-92.79a37.72,37.72,0,0,0-4.19-12.77l1.3,2.3,39.43-22.22h20.07l39.28,22.13A37.89,37.89,0,0,0-23.66,746.92Zm-124.9,29.85A24.49,24.49,0,0,1-173,752.24a24.48,24.48,0,0,1,4.66-14.41,29.19,29.19,0,0,0-9.32,21.41,29.12,29.12,0,0,0,5,16.33,30,30,0,0,1-11.15-23.33h0c0-.11,0-.21,0-.31,0-.79.06-1.56.13-2.33a24.5,24.5,0,0,1,24.32-21.9,24.5,24.5,0,0,1,24.47,24.54,24.48,24.48,0,0,1-4.66,14.4,29.14,29.14,0,0,0,9.32-21.42,29.15,29.15,0,0,0-5-16.31,29.92,29.92,0,0,1,11.14,23.33h0A24.49,24.49,0,0,1-148.56,776.77ZM-40.31,884.08a24.49,24.49,0,0,1-24.46,24.53,24.5,24.5,0,0,1-24.47-24.53,24.48,24.48,0,0,1,4.66-14.41,29.19,29.19,0,0,0-9.32,21.41,29.12,29.12,0,0,0,5,16.33,30,30,0,0,1-11.15-23.33h0c0-.11,0-.2,0-.31,0-.79.06-1.56.13-2.33a24.5,24.5,0,0,1,24.32-21.9,24.5,24.5,0,0,1,24.47,24.54,24.48,24.48,0,0,1-4.66,14.4,29.14,29.14,0,0,0,9.32-21.42,29.15,29.15,0,0,0-5-16.31A29.92,29.92,0,0,1-40.3,884.08Zm64.07,35.74H3.69l-38.42-21.65-1.2,2.14a37.82,37.82,0,0,0,3.65-16.23c0-.23,0-.45,0-.67H59.77c0,.22,0,.44,0,.67a37.94,37.94,0,0,0,2.65,14ZM26,841.64l-9.52-13.87h.13l-.06-37.53H11.85l.06,37.52L2.38,841.66-37.34,864l-.23.13,2.28,4.05L4.15,846H24.21l39.1,22a37.62,37.62,0,0,0-3.17,10.73h-92.8a37.94,37.94,0,0,0-37.53-32.69,37.6,37.6,0,0,0-19.4,5.37c-.6.33-1.19.69-1.76,1.06L-87.6,850l-45-66.3a29.32,29.32,0,0,0,5-4.13,38.1,38.1,0,0,0,6.9-9.08l38.88,21.9,9.52,13.88h-.12l.11,38.84h4.65l-.11-38.83,9.53-13.89,38.85-21.89a38.13,38.13,0,0,0,11.9,13.18l-45,66.33,3.84,2.62,45.13-66.51-.36-.25A37.61,37.61,0,0,0,32,785.58l-.7.48,45.12,66.5a29.7,29.7,0,0,0-5.08,4.2,38.58,38.58,0,0,0-5.8,7.18Zm101.59,42.44a24.47,24.47,0,1,1-44.28-14.41,29.31,29.31,0,0,0-4.35,37.74,30,30,0,0,1-11.14-23.33h0c0-.11,0-.2,0-.31,0-.79.06-1.56.13-2.33a24.47,24.47,0,1,1,44.13,17,29.26,29.26,0,0,0,4.35-37.73,29.89,29.89,0,0,1,11.15,23.33Zm64.07,35.74H171.54l-38.42-21.65-1.2,2.14a37.85,37.85,0,0,0,3.64-16.23c0-.23,0-.45,0-.67h92.08c0,.22,0,.44,0,.67a38.15,38.15,0,0,0,2.65,14Zm2.19-78.18-9.52-13.87h.12l-.05-37.53H179.7l.05,37.52-9.53,13.89L130.5,864h0l-.23.13,2.29,4.05L172,846h20.07l39.09,22A37.94,37.94,0,0,0,228,878.76h-92.8a37.85,37.85,0,0,0-56.93-27.32c-.6.34-1.19.69-1.76,1.06L80.25,850l-45-66.3a29.72,29.72,0,0,0,5-4.13,38.1,38.1,0,0,0,6.9-9.08L86,792.34l9.52,13.88H95.4l.11,38.84h4.65l-.11-38.83,9.53-13.89,38.85-21.89a38.13,38.13,0,0,0,11.9,13.18l-45,66.33,3.85,2.62,45.12-66.51-.36-.25a37.61,37.61,0,0,0,35.88-.23l-.7.48,45.12,66.5a29.25,29.25,0,0,0-5.07,4.2,38.58,38.58,0,0,0-5.8,7.18Zm101.58,42.44a24.47,24.47,0,1,1-44.27-14.41,29.28,29.28,0,0,0-4.35,37.74,30,30,0,0,1-11.15-23.33h0c0-.11,0-.2,0-.31,0-.79.06-1.56.13-2.33a24.47,24.47,0,1,1,44.13,17,29.28,29.28,0,0,0,4.36-37.73,29.92,29.92,0,0,1,11.14,23.33Zm64.07,35.74H339.38L301,898.17l-1.2,2.14a37.82,37.82,0,0,0,3.64-16.23c0-.23,0-.45,0-.67h92.07c0,.22,0,.44,0,.67a37.94,37.94,0,0,0,2.65,14Zm2.19-78.18-9.52-13.87h.13l-.06-37.53h-4.65l.06,37.52-9.53,13.89L298.35,864l-.23.13,2.28,4.05L339.83,846H359.9L399,868a37.62,37.62,0,0,0-3.17,10.73H303a37.86,37.86,0,0,0-56.94-27.32c-.6.33-1.18.69-1.75,1.06l3.75-2.55-45-66.3a29.32,29.32,0,0,0,5-4.13,38.1,38.1,0,0,0,6.9-9.08l38.88,21.9,9.52,13.88h-.12l.11,38.84H268l-.11-38.83,9.53-13.89,38.85-21.89a38,38,0,0,0,11.9,13.18l-45,66.33,3.84,2.62,45.12-66.51-.35-.25a37.61,37.61,0,0,0,35.88-.23l-.7.48,45.11,66.5a30,30,0,0,0-5.07,4.2,38.58,38.58,0,0,0-5.8,7.18Zm101.59,42.44A24.47,24.47,0,1,1,419,869.67a29.28,29.28,0,0,0-4.35,37.74,30,30,0,0,1-11.14-23.33h0c0-.11,0-.2,0-.31,0-.79.06-1.56.13-2.33a24.47,24.47,0,1,1,44.13,17,29.26,29.26,0,0,0,4.35-37.73,29.89,29.89,0,0,1,11.15,23.33Zm64.06,35.74H507.23l-38.42-21.65-1.2,2.13a37.77,37.77,0,0,0,3.64-16.22c0-.23,0-.45,0-.67h92.08c0,.22,0,.44,0,.67a38.15,38.15,0,0,0,2.65,14Zm2.2-78.18L520,827.77h.12L520,790.24h-4.65l.06,37.52-9.53,13.89L466.19,864h0l-.23.13,2.28,4.05L507.68,846h20.07l39.09,22a37.94,37.94,0,0,0-3.17,10.73h-92.8a37.85,37.85,0,0,0-56.93-27.32c-.6.34-1.19.69-1.76,1.06l3.76-2.55-45-66.3a29.72,29.72,0,0,0,5-4.13,38.1,38.1,0,0,0,6.9-9.08l38.87,21.9,9.53,13.88h-.13l.11,38.84h4.65l-.11-38.83,9.53-13.89,38.85-21.89A38.13,38.13,0,0,0,496,783.62L451,850l3.85,2.62L500,786.06l-.36-.25a37.61,37.61,0,0,0,35.88-.23l-.7.48,45.12,66.5a29.25,29.25,0,0,0-5.07,4.2,38.58,38.58,0,0,0-5.8,7.18Zm101.58,42.44a24.47,24.47,0,1,1-44.27-14.41,29.28,29.28,0,0,0-4.35,37.74,30,30,0,0,1-11.15-23.33h0c0-.11,0-.2,0-.31,0-.79.06-1.56.13-2.33a24.47,24.47,0,1,1,44.13,17,29.28,29.28,0,0,0,4.36-37.73,29.92,29.92,0,0,1,11.14,23.33Zm-29.88-38a37.66,37.66,0,0,0-19.41,5.37c-.6.33-1.18.69-1.75,1.06l3.75-2.55-45-66.3a29.32,29.32,0,0,0,5-4.13,38.1,38.1,0,0,0,6.9-9.08l38.88,21.9,9.52,13.88h-.12l.11,38.84h4.65l-.11-38.83,9.53-13.89,23.93-13.49V779l15-8.43a38.05,38.05,0,0,0,11.84,13.09l-45,66.33,3.84,2.62,14.34-21.14v.32l31-45.66a37.6,37.6,0,0,0,17.21,4.16h.22A37.48,37.48,0,0,0,702.71,786l-.05,0,45.11,66.5a30,30,0,0,0-5.07,4.2,38.49,38.49,0,0,0-5.74,7.09l-39.41-22.21L688,827.77h.13l-.06-37.53h-4.86l0,37.52-9.53,13.89L634,864l-.23.13,2.28,4.05,1-.54v.12L675.74,846h19.85l39.1,22a37.63,37.63,0,0,0-3.18,10.73H638.93a37.81,37.81,0,0,0-1.88-7.61v.62A37.91,37.91,0,0,0,601.19,846.07Zm34.26,54.24a36.49,36.49,0,0,0,1.6-3.94V897a37.91,37.91,0,0,0,2.26-12.88c0-.23,0-.45,0-.67h91.86c0,.22,0,.44,0,.67a38,38,0,0,0,2.66,14l-38.65,21.77H675.29l-38.24-21.54v.12l-.4-.23ZM863.2,919.82H843.13l-38.42-21.65-1.2,2.14a37.82,37.82,0,0,0,3.64-16.23c0-.23,0-.45,0-.67h92.07c0,.22,0,.44,0,.67a38,38,0,0,0,2.66,14Zm2.19-78.18-9.52-13.87H856l0-37.53h-4.65l.05,37.52-9.53,13.89L802.1,864l-.23.13,2.28,4.05L843.58,846h20.07l39.1,22a37.63,37.63,0,0,0-3.18,10.73H806.78a37.94,37.94,0,0,0-37.53-32.69H769a37.58,37.58,0,0,0-19.33,5.33l2.14-1.45-45-66.3a29.72,29.72,0,0,0,5-4.13,38.63,38.63,0,0,0,6.85-9l38.71,21.81,9.53,13.88h-.13l.11,38.84h4.86l-.1-38.83,9.53-13.89L820,770.44a38.13,38.13,0,0,0,11.9,13.18l-45,66.33,3.85,2.62,45.12-66.51-.36-.25a37.63,37.63,0,0,0,35.89-.23l-.7.48,45.11,66.5a30,30,0,0,0-5.07,4.2,38.58,38.58,0,0,0-5.8,7.18ZM967,884.08a24.47,24.47,0,1,1-44.27-14.41,29.28,29.28,0,0,0-4.35,37.74,30,30,0,0,1-11.14-23.33h0c0-.11,0-.2,0-.31,0-.79.07-1.56.13-2.33a24.47,24.47,0,1,1,44.14,17,29.26,29.26,0,0,0,4.35-37.73A29.92,29.92,0,0,1,967,884.08ZM1031,919.82H1011l-38.43-21.65-1.19,2.14A38,38,0,0,0,975,884.08c0-.23,0-.45,0-.67h92.08c0,.22,0,.44,0,.67a38.15,38.15,0,0,0,2.65,14Zm2.19-78.18-9.52-13.87h.13l-.06-37.53h-4.65l.06,37.52-9.53,13.89L969.94,864h0l-.23.13,2.28,4.05L1011.43,846h20.06l39.1,22a37.62,37.62,0,0,0-3.17,10.73h-92.8a37.85,37.85,0,0,0-56.93-27.32c-.6.34-1.19.69-1.76,1.06l3.75-2.55-45-66.3a29.32,29.32,0,0,0,5-4.13,38.41,38.41,0,0,0,6.91-9.08l38.87,21.9L935,806.22h-.13l.11,38.84h4.65l-.11-38.83L949,792.33l38.85-21.89a38.13,38.13,0,0,0,11.9,13.18l-45,66.33,3.85,2.62,45.12-66.51-.36-.25a37.61,37.61,0,0,0,35.88-.23l-.7.48,45.12,66.5a29.7,29.7,0,0,0-5.08,4.2,38.58,38.58,0,0,0-5.8,7.18Zm101.59,42.44a24.47,24.47,0,1,1-44.27-14.41,29.3,29.3,0,0,0-4.36,37.74,30,30,0,0,1-11.14-23.33h0c0-.11,0-.2,0-.31,0-.79.06-1.56.13-2.33a24.47,24.47,0,1,1,44.13,17,29.26,29.26,0,0,0,4.35-37.73,29.89,29.89,0,0,1,11.15,23.33Zm64.07,35.74h-20.07l-38.42-21.65-1.2,2.14a37.82,37.82,0,0,0,3.64-16.23c0-.23,0-.45,0-.67h92.07c0,.22,0,.44,0,.67a38,38,0,0,0,2.66,14Zm2.19-78.18-9.52-13.87h.12l0-37.53H1187l0,37.52-9.53,13.89L1137.78,864l-.22.13,2.28,4.05L1179.27,846h20.07l39.1,22a37.63,37.63,0,0,0-3.18,10.73h-92.8a37.85,37.85,0,0,0-56.93-27.32c-.6.33-1.18.69-1.75,1.06l3.75-2.55-45-66.3a29.72,29.72,0,0,0,5-4.13,38.1,38.1,0,0,0,6.9-9.08l38.88,21.9,9.52,13.88h-.13l.11,38.84h4.65l-.1-38.83,9.53-13.89,38.84-21.89a38.13,38.13,0,0,0,11.9,13.18l-45,66.33,3.85,2.62,45.12-66.51-.36-.25a37.63,37.63,0,0,0,35.89-.23l-.71.48,45.12,66.5a29.63,29.63,0,0,0-5.07,4.2,38.58,38.58,0,0,0-5.8,7.18Zm101.58,42.44a24.47,24.47,0,1,1-44.27-14.41,29.28,29.28,0,0,0-4.35,37.74,30,30,0,0,1-11.14-23.33h0c0-.11,0-.2,0-.31,0-.79.06-1.56.13-2.33a24.47,24.47,0,1,1,44.14,17,29.3,29.3,0,0,0,4.35-37.73,29.92,29.92,0,0,1,11.14,23.33Zm64.07,35.74h-20.06l-38.43-21.65-1.19,2.13a37.92,37.92,0,0,0,3.64-16.22c0-.23,0-.45,0-.67h92.07c0,.22,0,.44,0,.67a37.94,37.94,0,0,0,2.65,14Zm2.19-78.18-9.52-13.87h.13l-.06-37.53h-4.65l.06,37.52-9.53,13.89L1305.63,864h0l-.23.13,2.28,4.05L1347.12,846h20.06l39.1,22a37.62,37.62,0,0,0-3.17,10.73h-92.8a37.85,37.85,0,0,0-56.93-27.32c-.6.34-1.19.69-1.76,1.06l3.75-2.55-45-66.3a29.32,29.32,0,0,0,5-4.13,38.1,38.1,0,0,0,6.9-9.08l38.88,21.9,9.53,13.88h-.13l.11,38.84h4.65l-.11-38.83,9.53-13.89,38.85-21.89a38.13,38.13,0,0,0,11.9,13.18l-45,66.33,3.85,2.62,45.12-66.51-.37-.25a37.63,37.63,0,0,0,35.89-.23l-.7.48,45.12,66.5a29.7,29.7,0,0,0-5.08,4.2,38.58,38.58,0,0,0-5.8,7.18Zm101.59,42.44a24.47,24.47,0,1,1-44.28-14.41,29.31,29.31,0,0,0-4.35,37.74,30,30,0,0,1-11.14-23.33h0c0-.11,0-.2,0-.31,0-.79.06-1.56.13-2.33a24.47,24.47,0,1,1,44.13,17,29.26,29.26,0,0,0,4.35-37.73,29.89,29.89,0,0,1,11.15,23.33Zm64.07,35.74h-20.07l-38.42-21.65-1.2,2.14a37.82,37.82,0,0,0,3.64-16.23c0-.23,0-.45,0-.67h92.08c0,.22,0,.44,0,.67a38,38,0,0,0,2.66,14Zm68.47-60.28a24.55,24.55,0,0,1,19.81,38.94,29.28,29.28,0,0,0,4.36-37.73,29.92,29.92,0,0,1,11.14,23.33h0a24.47,24.47,0,1,1-44.27-14.41,29.28,29.28,0,0,0-4.35,37.74,30,30,0,0,1-11.15-23.33h0c0-.11,0-.2,0-.31,0-.79.06-1.56.13-2.33A24.5,24.5,0,0,1,1603.05,859.54Zm-15.84-7a29.63,29.63,0,0,0-5.07,4.2,38.58,38.58,0,0,0-5.8,7.18l-39.57-22.3-9.52-13.87h.12l0-37.53h-4.65l0,37.52-9.53,13.89L1473.47,864l-.23.13,2.29,4.05L1515,846H1535l39.09,22a37.94,37.94,0,0,0-3.17,10.73h-92.8a37.85,37.85,0,0,0-56.93-27.32c-.6.33-1.18.69-1.76,1.06l3.76-2.55-45-66.3a29.72,29.72,0,0,0,5-4.13,38.1,38.1,0,0,0,6.9-9.08l38.88,21.9,9.52,13.88h-.13l.11,38.84h4.65l-.11-38.83,9.53-13.89,38.85-21.89a38.13,38.13,0,0,0,11.9,13.18l-45,66.33,3.85,2.62,45.12-66.51-.36-.25a37.63,37.63,0,0,0,35.89-.23l-.71.48Zm-192.49-101h92.08c0,.22,0,.44,0,.67a38.15,38.15,0,0,0,2.65,14L1450.78,788h-20.06l-38.42-21.65-1.2,2.13a37.77,37.77,0,0,0,3.64-16.22C1394.74,752,1394.73,751.79,1394.72,751.57Zm92.44-4.65h-92.8a37.71,37.71,0,0,0-4.18-12.77l1.29,2.3,39.44-22.22H1451l39.29,22.13A37.56,37.56,0,0,0,1487.16,746.92Zm67.41,5.32h0a24.47,24.47,0,1,1-44.27-14.41,29.28,29.28,0,0,0-4.35,37.74,30,30,0,0,1-11.15-23.33h0c0-.11,0-.21,0-.31,0-.79.06-1.56.13-2.33a24.47,24.47,0,1,1,44.13,17,29.28,29.28,0,0,0,4.36-37.73A29.92,29.92,0,0,1,1554.57,752.24Zm-12.48-34.07,3.12,2.12a37.79,37.79,0,0,0-39.94-.69,29.21,29.21,0,0,0-6.92,5.32,38.24,38.24,0,0,0-5.9,7.33l-39.73-22.38L1443.19,696h.13l-.06-37.52h-4.65l.06,37.52-9.53,13.89-39.72,22.38h0l-.23.13.89,1.58a38.21,38.21,0,0,0-12-13.2l45.11-66.49-.36-.24a37.65,37.65,0,0,0,35.88-.24l-.7.48,45.12,66.51,3.85-2.62-45-66.3a29.24,29.24,0,0,0,5-4.13,38.1,38.1,0,0,0,6.9-9.08l38.88,21.91,9.52,13.88h-.12l.1,38.84,4.65,0-.1-38.83,9.53-13.89,38.84-21.89a38.13,38.13,0,0,0,11.9,13.18Zm-63.58-98.37h92.08c0,.22,0,.44,0,.66a38,38,0,0,0,2.66,14l-38.65,21.78h-20.07l-38.42-21.65-1.2,2.13a37.82,37.82,0,0,0,3.64-16.23C1478.53,620.24,1478.52,620,1478.51,619.8Zm124.54-23.88a24.55,24.55,0,0,1,19.81,38.94,29.28,29.28,0,0,0,4.36-37.73,29.93,29.93,0,0,1,11.14,23.33h0a24.47,24.47,0,1,1-44.27-14.4,29.26,29.26,0,0,0-4.35,37.73,29.94,29.94,0,0,1-11.15-23.33h0c0-.1,0-.2,0-.31,0-.78.06-1.56.13-2.33A24.5,24.5,0,0,1,1603.05,595.92Zm-15.84-7a29.23,29.23,0,0,0-5.07,4.21,38.19,38.19,0,0,0-5.8,7.17L1536.77,578l-9.52-13.88h.12l0-37.52h-4.65l0,37.52L1513.19,578l-40,22.51,2.29,4.06.22-.13h0L1515,582.39H1535l39.1,22a37.66,37.66,0,0,0-3.18,10.72h-92.8a37.84,37.84,0,0,0-56.93-27.31c-.6.33-1.18.68-1.75,1l3.75-2.55-45-66.3a29.24,29.24,0,0,0,5-4.13,38.1,38.1,0,0,0,6.9-9.08L1429,528.73l9.52,13.88h-.13l.11,38.84,4.65,0L1443,542.6l9.53-13.89,38.85-21.89A38.13,38.13,0,0,0,1503.3,520l-45,66.33,3.85,2.62,45.12-66.51-.36-.24a37.65,37.65,0,0,0,35.88-.24l-.7.48ZM1394.72,488h92.08c0,.23,0,.45,0,.67a38.15,38.15,0,0,0,2.65,14l-38.65,21.78h-20.06l-38.42-21.65-1.2,2.13a37.82,37.82,0,0,0,3.64-16.23C1394.74,488.4,1394.73,488.18,1394.72,488Zm92.44-4.65h-92.8a37.73,37.73,0,0,0-4.18-12.76l1.29,2.29,39.44-22.22H1451l39.29,22.13A37.66,37.66,0,0,0,1487.16,483.3Zm67.41,5.32h0a24.47,24.47,0,1,1-44.27-14.4,29.26,29.26,0,0,0-4.35,37.73,29.94,29.94,0,0,1-11.15-23.33h0c0-.1,0-.2,0-.31,0-.78.06-1.56.13-2.33a24.47,24.47,0,1,1,44.13,17,29.28,29.28,0,0,0,4.36-37.73A29.93,29.93,0,0,1,1554.57,488.62Zm-12.48-34.06,3.11,2.11a37.74,37.74,0,0,0-39.93-.68,29,29,0,0,0-6.92,5.32,37.64,37.64,0,0,0-5.9,7.33l-39.73-22.39-9.53-13.88h.13l-.06-37.52h-4.65l.06,37.52-9.53,13.88-39.72,22.38-.23.13.88,1.56a38.18,38.18,0,0,0-12-13.17l45.11-66.5-.36-.24a37.65,37.65,0,0,0,35.88-.24l-.7.48,45.12,66.51,3.85-2.61-45-66.3a30.21,30.21,0,0,0,5-4.13,38.16,38.16,0,0,0,6.9-9.09L1512.77,397l9.52,13.88h-.12l.1,38.84h4.65l-.1-38.84,9.53-13.89L1575.19,375a38.16,38.16,0,0,0,11.9,13.19Zm-63.58-98.38h92.08c0,.22,0,.44,0,.66a37.87,37.87,0,0,0,2.66,14l-38.65,21.78h-20.07l-38.42-21.65-1.2,2.13a37.82,37.82,0,0,0,3.64-16.23C1478.53,356.62,1478.52,356.4,1478.51,356.18Zm124.54-23.88a24.56,24.56,0,0,1,19.81,38.95,29.3,29.3,0,0,0,4.36-37.74,30,30,0,0,1,11.14,23.33h0a24.47,24.47,0,1,1-44.27-14.4,29.26,29.26,0,0,0-4.35,37.73,29.94,29.94,0,0,1-11.15-23.33h0c0-.1,0-.2,0-.3,0-.79.06-1.57.13-2.34A24.5,24.5,0,0,1,1603.05,332.3Zm-15.84-7a29.18,29.18,0,0,0-5.07,4.2,38.19,38.19,0,0,0-5.8,7.17l-39.57-22.29-9.52-13.88h.12l0-37.52h-4.65l0,37.52-9.53,13.89-39.72,22.37h0l-.23.13,2.29,4.06L1515,318.77H1535l39.09,22a37.94,37.94,0,0,0-3.17,10.73h-92.8a37.83,37.83,0,0,0-56.93-27.32c-.6.33-1.18.69-1.76,1.06l3.76-2.55-45-66.3a30.21,30.21,0,0,0,5-4.13,38.36,38.36,0,0,0,6.9-9.09L1429,265.11,1438.5,279h-.13l.11,38.84h4.65L1443,279l9.53-13.89,38.85-21.89a38.16,38.16,0,0,0,11.9,13.19l-45,66.33,3.85,2.61,45.12-66.51-.36-.24a37.67,37.67,0,0,0,35.89-.24l-.71.48Zm-192.49-101h92.08c0,.22,0,.44,0,.66a38.07,38.07,0,0,0,2.65,14l-38.65,21.78h-20.06L1392.3,239.1l-1.2,2.13a37.82,37.82,0,0,0,3.64-16.23C1394.74,224.78,1394.73,224.56,1394.72,224.34Zm92.44-4.66h-92.8a37.85,37.85,0,0,0-4.18-12.77l1.29,2.3L1430.91,187H1451l39.29,22.14A37.5,37.5,0,0,0,1487.16,219.68Zm67.41,5.32h0a24.47,24.47,0,1,1-44.27-14.4,29.26,29.26,0,0,0-4.35,37.73A29.94,29.94,0,0,1,1494.79,225h0c0-.1,0-.2,0-.3,0-.79.06-1.57.13-2.34a24.47,24.47,0,1,1,44.13,17,29.3,29.3,0,0,0,4.36-37.74A30,30,0,0,1,1554.57,225Zm-12.48-34.06,3.13,2.12a37.75,37.75,0,0,0-40-.69,29.21,29.21,0,0,0-6.92,5.32,37.94,37.94,0,0,0-5.9,7.33l-39.73-22.39-9.53-13.87h.13l-.06-37.53h-4.65l.06,37.52-9.53,13.89L1389.42,205h0l-.23.13.89,1.58a38.11,38.11,0,0,0-12-13.2l45.11-66.49-.36-.25a37.61,37.61,0,0,0,35.88-.23l-.7.48,45.12,66.5,3.85-2.61-45-66.3a29.72,29.72,0,0,0,5-4.13,38.1,38.1,0,0,0,6.9-9.08l38.88,21.9,9.52,13.88h-.12l.1,38.84h4.65l-.1-38.83,9.53-13.89,38.84-21.89a38.13,38.13,0,0,0,11.9,13.18Zm71.8-73.18a24.55,24.55,0,0,1-19.81-38.94,29.28,29.28,0,0,0-4.35,37.74,30,30,0,0,1-11.15-23.33h0c0-.11,0-.2,0-.31,0-.79.06-1.56.13-2.33a24.47,24.47,0,1,1,44.13,17,29.28,29.28,0,0,0,4.36-37.73,29.92,29.92,0,0,1,11.14,23.33h0A24.49,24.49,0,0,1,1613.89,117.76Z" transform="translate(202.39 19.65)"/></g></g></g></g></g></svg>