<svg xmlns="http://www.w3.org/2000/svg" viewBox="0 0 1520 352.09"><defs><style>.cls-1{isolation:isolate;}.cls-2{fill:#fff;}.cls-3{fill:#ef4d94;}.cls-4{fill:#f2f2f2;}.cls-11,.cls-5{fill:#666;}.cls-10,.cls-5{opacity:0.5;}.cls-5{mix-blend-mode:color-burn;}.cls-6{fill:#8c9599;}.cls-7{fill:#a9625e;}.cls-8{fill:#ffe600;}.cls-9{fill:#535759;}.cls-10{fill:#8e9ee6;mix-blend-mode:multiply;}.cls-12{fill:gray;}.cls-13{fill:#00a0d7;}.cls-14{fill:#4dbeee;}.cls-15{fill:#495257;}.cls-16{fill:#8f9395;}</style></defs><title>Asset 11</title><g class="cls-1"><g id="Layer_2" data-name="Layer 2"><g id="Layer_1-2" data-name="Layer 1"><rect class="cls-2" y="51.97" width="1520" height="300" rx="19.99"/><path d="M38.38,111.89a1.7,1.7,0,0,1,.55-1.28,1.75,1.75,0,0,1,1.26-.52h9.55a11.31,11.31,0,0,1,8,3.28,11.68,11.68,0,0,1,2.43,3.54,11,11,0,0,1-.84,10.31,11.24,11.24,0,0,1-4.53,4L61,138.45a1.82,1.82,0,0,1,.43,1.19,1.85,1.85,0,0,1-.52,1.31,1.74,1.74,0,0,1-1.29.55,1.91,1.91,0,0,1-1.37-.62l-6.47-7.46a3,3,0,0,0-.9-.71,2.25,2.25,0,0,0-1.09-.29H42v7.22a1.73,1.73,0,0,1-.54,1.29,1.82,1.82,0,0,1-1.26.52,1.79,1.79,0,0,1-1.81-1.81ZM42,113.7v15.11h7.75a7.47,7.47,0,0,0,3-.6,7.66,7.66,0,0,0,4.11-4,7.16,7.16,0,0,0,.62-3,7.47,7.47,0,0,0-2.24-5.34,7.88,7.88,0,0,0-2.44-1.62,7.78,7.78,0,0,0-3-.59Z"/><path d="M64.9,111.89a1.78,1.78,0,0,1,1.8-1.8H85.76A1.8,1.8,0,0,1,87,113.15a1.7,1.7,0,0,1-1.28.55H68.51v10.74H78.63a1.73,1.73,0,0,1,1.28.52,1.79,1.79,0,0,1,0,2.54,1.68,1.68,0,0,1-1.28.55H68.51v9.79H85.76A1.8,1.8,0,0,1,87,140.9a1.7,1.7,0,0,1-1.28.55H66.7a1.82,1.82,0,0,1-1.26-.52,1.73,1.73,0,0,1-.54-1.29Z"/><path d="M102.44,111a1.67,1.67,0,0,1,1.66-1.09,1.9,1.9,0,0,1,.71.14,1.77,1.77,0,0,1,1,.95l12,28a2.22,2.22,0,0,1,.14.76,1.83,1.83,0,0,1-.48,1.19,1.57,1.57,0,0,1-1.28.57,1.68,1.68,0,0,1-1.66-1.1l-3.38-7.88h-14l-3.37,7.88a1.83,1.83,0,0,1-.69.81,1.78,1.78,0,0,1-1,.29,1.6,1.6,0,0,1-1.29-.57,1.87,1.87,0,0,1-.47-1.19,2.22,2.22,0,0,1,.14-.76Zm1.66,5.23L98.63,128.9h10.89Z"/><path d="M120.49,111.89a1.78,1.78,0,0,1,.52-1.28,1.75,1.75,0,0,1,1.29-.52h9.5a11.21,11.21,0,0,1,4.42.88,11,11,0,0,1,3.61,2.4,11.48,11.48,0,0,1,2.42,3.54,10.36,10.36,0,0,1,.91,4.34v9a10.44,10.44,0,0,1-.91,4.35,11.48,11.48,0,0,1-2.42,3.54,11.31,11.31,0,0,1-3.59,2.4,11,11,0,0,1-4.39.88H122.3a1.79,1.79,0,0,1-1.26-.52,1.7,1.7,0,0,1-.55-1.29Zm3.61,1.81v24.14h7.75a7.8,7.8,0,0,0,5.46-2.21,7.47,7.47,0,0,0,2.24-5.35v-9a7.47,7.47,0,0,0-2.24-5.34,7.79,7.79,0,0,0-2.47-1.62,7.92,7.92,0,0,0-3-.59Z"/><path d="M143.82,111.89a1.75,1.75,0,0,1,.53-1.28,1.71,1.71,0,0,1,1.28-.52,1.78,1.78,0,0,1,1.26.52,1.72,1.72,0,0,1,.54,1.28v9.27a7.35,7.35,0,0,0,.62,3,7.64,7.64,0,0,0,1.67,2.42,8,8,0,0,0,2.47,1.64,7.59,7.59,0,0,0,6,0,8.11,8.11,0,0,0,2.44-1.64,7.25,7.25,0,0,0,1.64-2.42,7.51,7.51,0,0,0,.6-3v-9.27a1.8,1.8,0,0,1,3.06-1.28,1.7,1.7,0,0,1,.55,1.28v9.27a10.85,10.85,0,0,1-.74,4,11.39,11.39,0,0,1-2,3.35,11.83,11.83,0,0,1-3,2.47,11.17,11.17,0,0,1-3.73,1.33v7.36a1.79,1.79,0,0,1-1.81,1.81,1.8,1.8,0,0,1-1.26-.52,1.74,1.74,0,0,1-.55-1.29v-7.36a11.36,11.36,0,0,1-3.75-1.33,11.64,11.64,0,0,1-3-2.47,11.39,11.39,0,0,1-2-3.35,10.85,10.85,0,0,1-.74-4Z"/><path d="M182.64,111.89a1.74,1.74,0,0,1,.5-1.23,1.8,1.8,0,0,1,1.22-.57H203.5a1.8,1.8,0,0,1,1.29,3.06,1.7,1.7,0,0,1-1.29.55H186.26v10.74h10.12a1.8,1.8,0,0,1,1.28,3.06,1.7,1.7,0,0,1-1.28.55H186.26v11.59a1.79,1.79,0,0,1-1.81,1.81,1.79,1.79,0,0,1-1.26-.52,1.74,1.74,0,0,1-.55-1.29Z"/><path d="M207.26,120.35a10.72,10.72,0,0,1,.9-4.37,12,12,0,0,1,2.42-3.59,11,11,0,0,1,3.59-2.42,11.18,11.18,0,0,1,4.45-.88A10.9,10.9,0,0,1,223,110a11.27,11.27,0,0,1,3.58,2.42A11.74,11.74,0,0,1,229,116a10.72,10.72,0,0,1,.9,4.37v10.83a10.76,10.76,0,0,1-.9,4.38,12,12,0,0,1-2.42,3.58,11.33,11.33,0,0,1-12.38,2.43,11.37,11.37,0,0,1-3.61-2.43,11.69,11.69,0,0,1-2.45-3.58,10.76,10.76,0,0,1-.9-4.38Zm3.61,10.83a7.28,7.28,0,0,0,.62,3,7.55,7.55,0,0,0,1.66,2.43,8.13,8.13,0,0,0,2.47,1.64,7.49,7.49,0,0,0,3,.61,7.4,7.4,0,0,0,3-.61,8.16,8.16,0,0,0,2.45-1.64,7.34,7.34,0,0,0,1.64-2.43,7.6,7.6,0,0,0,.59-3V120.35a7.34,7.34,0,0,0-.61-3A7.81,7.81,0,0,0,224,115a8.16,8.16,0,0,0-2.45-1.64,7.27,7.27,0,0,0-3-.62,7.63,7.63,0,0,0-3.05.62A8.13,8.13,0,0,0,213.1,115a7.56,7.56,0,0,0-1.64,2.42,7.68,7.68,0,0,0-.59,3Z"/><path d="M233.44,111.89a1.7,1.7,0,0,1,.55-1.28,1.75,1.75,0,0,1,1.26-.52h9.55a11.31,11.31,0,0,1,8,3.28,11.66,11.66,0,0,1,2.42,3.54,11,11,0,0,1-.83,10.31,11.33,11.33,0,0,1-4.54,4l6.23,7.22a1.87,1.87,0,0,1,.43,1.19A1.82,1.82,0,0,1,256,141a1.7,1.7,0,0,1-1.28.55,1.91,1.91,0,0,1-1.38-.62l-6.46-7.46a3,3,0,0,0-.9-.71,2.29,2.29,0,0,0-1.1-.29h-7.79v7.22a1.7,1.7,0,0,1-.55,1.29,1.81,1.81,0,0,1-2.54,0,1.75,1.75,0,0,1-.52-1.29Zm3.61,1.81v15.11h7.75a7.51,7.51,0,0,0,3-.6,7.68,7.68,0,0,0,2.44-1.61,7.83,7.83,0,0,0,1.67-2.4,7.16,7.16,0,0,0,.62-3,7.29,7.29,0,0,0-.6-2.94,7.42,7.42,0,0,0-1.64-2.4,7.93,7.93,0,0,0-2.45-1.62,7.73,7.73,0,0,0-3-.59Z"/><path d="M283.71,111a1.68,1.68,0,0,1,1.67-1.09,1.94,1.94,0,0,1,.71.14,1.77,1.77,0,0,1,1,.95l12,28a2,2,0,0,1,.15.76,1.83,1.83,0,0,1-.48,1.19,1.58,1.58,0,0,1-1.28.57,1.68,1.68,0,0,1-1.66-1.1l-3.38-7.88h-14L275,140.4a1.83,1.83,0,0,1-.69.81,1.81,1.81,0,0,1-1,.29,1.59,1.59,0,0,1-1.28-.57,1.82,1.82,0,0,1-.47-1.19,2,2,0,0,1,.14-.76Zm1.67,5.23-5.47,12.68h10.88Z"/><path class="cls-3" d="M32.57,212.57a32.46,32.46,0,0,1,2.75-13.28,36.13,36.13,0,0,1,7.36-10.9A33.62,33.62,0,0,1,53.58,181a34.08,34.08,0,0,1,13.49-2.67,33.58,33.58,0,0,1,19,5.85,35.17,35.17,0,0,1,12.48,15.08,15.24,15.24,0,0,1,.58,1.51,4.4,4.4,0,0,1,.15,1.23,5.75,5.75,0,0,1-1.45,3.75,5,5,0,0,1-4,1.74,5.19,5.19,0,0,1-4.91-3.18,24.07,24.07,0,0,0-8.51-10.75,22.19,22.19,0,0,0-13.28-4.26,23,23,0,0,0-9.24,1.88,24.72,24.72,0,0,0-7.5,5,22.42,22.42,0,0,0-5,7.37,22.74,22.74,0,0,0-1.81,9v33.05a22.16,22.16,0,0,0,1.88,9,23.25,23.25,0,0,0,5,7.36A24.61,24.61,0,0,0,58,267a22.59,22.59,0,0,0,9.09,1.88,22.23,22.23,0,0,0,13.57-4.26A24.33,24.33,0,0,0,89,253.7,4,4,0,0,1,91,251.39a6,6,0,0,1,2.81-.72,5,5,0,0,1,4,1.73,5.62,5.62,0,0,1,1.52,3.75,5.39,5.39,0,0,1-.44,2.17,32.29,32.29,0,0,1-5,8.66,36.08,36.08,0,0,1-7.29,6.78,33.21,33.21,0,0,1-9.09,4.48,34.53,34.53,0,0,1-23.67-1.08,34.33,34.33,0,0,1-11-7.37,35.27,35.27,0,0,1-7.43-10.89,32.49,32.49,0,0,1-2.75-13.28Z"/><path class="cls-3" d="M109.21,187a5.21,5.21,0,0,1,1.66-3.9,5.41,5.41,0,0,1,3.83-1.58,5.41,5.41,0,0,1,5.48,5.48v38.1h46.91V187a5.18,5.18,0,0,1,1.66-3.9,5.5,5.5,0,0,1,7.72,0,5.3,5.3,0,0,1,1.59,3.9v84.29a5.21,5.21,0,0,1-1.66,3.9,5.36,5.36,0,0,1-3.83,1.58,5.41,5.41,0,0,1-5.48-5.48V236.09H120.18v35.22a5.18,5.18,0,0,1-1.66,3.9,5.36,5.36,0,0,1-3.82,1.58,5.41,5.41,0,0,1-5.49-5.48Z"/><path class="cls-3" d="M223.52,184.28a5.11,5.11,0,0,1,5-3.32,6.15,6.15,0,0,1,2.17.43,5.35,5.35,0,0,1,2.89,2.89l36.37,85a6.51,6.51,0,0,1,.43,2.31,5.6,5.6,0,0,1-1.44,3.61,4.85,4.85,0,0,1-3.9,1.73,5.1,5.1,0,0,1-5-3.32l-10.25-24H207.36l-10.25,24a5.53,5.53,0,0,1-5.05,3.32,4.82,4.82,0,0,1-3.9-1.73,5.6,5.6,0,0,1-1.44-3.61,6.51,6.51,0,0,1,.43-2.31Zm5,15.87L212,238.69H245Z"/><path class="cls-3" d="M278.37,187a5.4,5.4,0,0,1,5.48-5.48,5.42,5.42,0,0,1,3.83,1.58,5.21,5.21,0,0,1,1.66,3.9v78.81h52.39a5.4,5.4,0,0,1,5.48,5.48,5.38,5.38,0,0,1-1.58,3.82,5.18,5.18,0,0,1-3.9,1.66H283.85a5.34,5.34,0,0,1-3.82-1.58,5.18,5.18,0,0,1-1.66-3.9Z"/><path class="cls-3" d="M354.14,187a5.41,5.41,0,0,1,5.48-5.48,5.41,5.41,0,0,1,3.83,1.58,5.21,5.21,0,0,1,1.66,3.9v78.81H417.5a5.41,5.41,0,0,1,5.49,5.48,5.35,5.35,0,0,1-1.59,3.82,5.18,5.18,0,0,1-3.9,1.66H359.62a5.36,5.36,0,0,1-3.82-1.58,5.18,5.18,0,0,1-1.66-3.9Z"/><path class="cls-3" d="M429.91,187a5.41,5.41,0,0,1,5.49-5.48h57.88a5.45,5.45,0,0,1,3.89,9.3,5.17,5.17,0,0,1-3.89,1.66h-52.4v32.62h30.75a5.43,5.43,0,0,1,5.48,5.49,5.35,5.35,0,0,1-1.59,3.82,5.17,5.17,0,0,1-3.89,1.66H440.88v29.74h52.4a5.41,5.41,0,0,1,5.48,5.48,5.35,5.35,0,0,1-1.59,3.82,5.17,5.17,0,0,1-3.89,1.66H435.4a5.36,5.36,0,0,1-3.83-1.58,5.21,5.21,0,0,1-1.66-3.9Z"/><path class="cls-3" d="M509.58,215.16a32.41,32.41,0,0,1,2.75-13.27,34.77,34.77,0,0,1,18.25-18.19,33.92,33.92,0,0,1,26.71,0,36.14,36.14,0,0,1,11,7.36,34.88,34.88,0,0,1,7.43,10.83,32.4,32.4,0,0,1,2.74,13.27v56.15a5.41,5.41,0,0,1-5.48,5.48,5.36,5.36,0,0,1-3.83-1.58,5.18,5.18,0,0,1-1.66-3.9V215.16a22.16,22.16,0,0,0-1.88-9,23.36,23.36,0,0,0-5.05-7.36,24.74,24.74,0,0,0-7.5-5,23.22,23.22,0,0,0-18.26,0,24.91,24.91,0,0,0-7.43,5,22.38,22.38,0,0,0-5,7.36,22.78,22.78,0,0,0-1.81,9v56.15a5.47,5.47,0,0,1-9.31,3.9,5.21,5.21,0,0,1-1.66-3.9Z"/><path class="cls-3" d="M588.39,212.71a32.49,32.49,0,0,1,2.74-13.28,36.26,36.26,0,0,1,7.36-10.89,33.64,33.64,0,0,1,10.9-7.37,34.08,34.08,0,0,1,13.49-2.67,33,33,0,0,1,10.25,1.59,35.14,35.14,0,0,1,9,4.4,36.05,36.05,0,0,1,7.36,6.72,31.37,31.37,0,0,1,5.13,8.66,6.72,6.72,0,0,1,.43,2.3,5.78,5.78,0,0,1-1.44,3.76,5,5,0,0,1-4,1.73,5.52,5.52,0,0,1-2.81-.79,5.06,5.06,0,0,1-2.09-2.39,25.25,25.25,0,0,0-8.59-10.75,21.88,21.88,0,0,0-13.21-4.26,23,23,0,0,0-9.23,1.88,24.61,24.61,0,0,0-7.51,5,22.28,22.28,0,0,0-5,7.36,23,23,0,0,0-1.8,9v32.91a22.15,22.15,0,0,0,1.87,9,23.27,23.27,0,0,0,5.06,7.36,24.44,24.44,0,0,0,7.5,5,23.11,23.11,0,0,0,18.26,0,24.85,24.85,0,0,0,7.43-5,22.28,22.28,0,0,0,5-7.36,23,23,0,0,0,1.8-9v-7.07H635.15a5.47,5.47,0,0,1-3.9-9.31,5.18,5.18,0,0,1,3.9-1.66h16.6a5.4,5.4,0,0,1,5.48,5.48v12.56a32.49,32.49,0,0,1-2.74,13.28,36.14,36.14,0,0,1-7.36,10.89,33.49,33.49,0,0,1-10.9,7.37,34.71,34.71,0,0,1-26.7,0,34.44,34.44,0,0,1-11-7.37,35.62,35.62,0,0,1-7.43-10.89,32.49,32.49,0,0,1-2.74-13.28Z"/><path class="cls-3" d="M667.91,187a5.41,5.41,0,0,1,5.49-5.48h57.88a5.45,5.45,0,0,1,3.89,9.3,5.17,5.17,0,0,1-3.89,1.66h-52.4v32.62h30.75a5.43,5.43,0,0,1,5.48,5.49,5.35,5.35,0,0,1-1.59,3.82,5.17,5.17,0,0,1-3.89,1.66H678.88v29.74h52.4a5.41,5.41,0,0,1,5.48,5.48,5.35,5.35,0,0,1-1.59,3.82,5.17,5.17,0,0,1-3.89,1.66H673.4a5.36,5.36,0,0,1-3.83-1.58,5.21,5.21,0,0,1-1.66-3.9Z"/><path class="cls-4" d="M1465.48,263.31c-5.42-22.82-36.81-20.47-55.6-22.51a762.49,762.49,0,0,0-81.09-4.07c-41.23-.07-85-1.44-125,11.52C1191,252.39,1179,258.77,1166.23,263c-13.65,4.5-27.44,4.44-41.53,4.15-43.94-.92-86.66,8-129.73,16.67-44.19,8.86-87.86,20.41-132.3,28-41.73,7.1-82.43,14.85-106.81,20.45-15.72,3.61-45.89,15-36.34,19.85H788c44.25-2.37,103-5.73,121.62-5.56q48.24.45,96.49-.23,96.5-1.33,192.86-7.11c60-3.6,120.13-5.64,179.77-13.33,6.5-.83,20.87-1.9,37.44-4.06,35.78-4.67,81.86-14.43,81.5-38C1497.48,270.86,1468.15,274.57,1465.48,263.31Z"/><path class="cls-5" d="M1076.48,300.3c13.39-7.87,41-23.25,59-33.06-2.63,0-5.28,0-7.93-.05-14.42,7.75-35.14,18.95-47,25.78a12,12,0,0,0-3.5,3v0c-.83,1.5-.94,2.62-1.88,4.05C1075.78,300.35,1075.75,300.73,1076.48,300.3Z"/><path class="cls-5" d="M1071.68,285.55c7.55-4.44,19.63-11.26,32-18.13-3.19.14-6.36.33-9.54.56-6.91,3.79-13.39,7.4-18.35,10.24a12.05,12.05,0,0,0-3.5,3v0c-.83,1.5-.93,2.62-1.87,4.05C1071,285.6,1071,286,1071.68,285.55Z"/><path class="cls-5" d="M1401.91,287.24q16.92-21.8,34.73-42.9l-5-.76q-15.37,18.3-30.11,37.12c-.26.79-.51,1.57-.74,2.35-.21,1.7-.48,3.39-.82,5.07A2.19,2.19,0,0,0,1401.91,287.24Z"/><path class="cls-5" d="M1419.64,241.94c-30.11-3.78-59.7-4.65-90.85-5.21-4.4-.08-144.07,36.78-143.52,39.19.11,0-2.34,4.49-2.23,4.5,1.37-.75,3.73-4,4.85-2.88,6.25.71,5,.72,8.26,2.92,4.06-3.11,104.81-20.78,134.1-18.56a3.92,3.92,0,0,1,2.44,6.68c-7.19,7.3-15.28,13.49-23.6,19.4a13.44,13.44,0,0,1,2.78,1c2.35,1.1,4.53,2.94,5.15,5.57a6.13,6.13,0,0,1,.14.84c.7-.21,2.68,2.4,3.64,2,9.6-5.32,63.46-35.49,87.39-48.92-10.21,12.15-28.8,34.34-38.64,46.76a11.86,11.86,0,0,0-2.13,4.11v0c-.21,1.7.11,2.78-.24,4.45.68,0,.79.41,1.31-.26,11.28-14.54,37.18-46.26,49-60.33Z"/><path class="cls-3" d="M1140.53,86.81l14.62,43.43,3.09-24.2c2.51-22.42-4.39-23.19-17-19.47Z"/><path class="cls-3" d="M1138.22,87.88l14.61,43.43-17.09-17.4c-15.56-16.35-10.52-21.13,1.74-25.76Z"/><path class="cls-6" d="M1203.3,278.09a.54.54,0,0,1-.72-.25l-2.36-4.33,2.75-.92.75,4.87A.55.55,0,0,1,1203.3,278.09Z"/><path d="M1197.33,265.25c1,.35,2.33-.89,3.42-1.13l-60-178.23a1.05,1.05,0,0,0-1.33-.66l-1.87.63a1,1,0,0,0-.66,1.33l59.93,178.09A.72.72,0,0,1,1197.33,265.25Z"/><path class="cls-7" d="M1202,270.8a12.2,12.2,0,0,0-1.06-3.17,9.07,9.07,0,0,1-.15-1.84c-.16.1-1.45.82-1.73.92a3.54,3.54,0,0,1-1,.21c.26.86.71,1.65,1,2.48a23.07,23.07,0,0,0,1.16,2.9,1.32,1.32,0,0,0,.39-.06l1.19-.4a1.63,1.63,0,0,0,.56-.36A.76.76,0,0,1,1202,270.8Z"/><path class="cls-6" d="M1198.19,264.19h4.08a0,0,0,0,1,0,0v8a1.52,1.52,0,0,1-1.52,1.52h-1a1.52,1.52,0,0,1-1.52-1.52v-8A0,0,0,0,1,1198.19,264.19Z" transform="translate(-23.12 396.69) rotate(-18.59)"/><path class="cls-3" d="M1153.39,136.2l2.33,6.91c1.3-.41,2.6-.79,3.91-1.15L1157.3,135C1156,135.39,1154.69,135.78,1153.39,136.2Z"/><path class="cls-8" d="M899,207.8l40.87,20.72L925.09,209.1c-13.94-17.75-19.4-13.45-25.75-2Z"/><path class="cls-8" d="M898.08,210.19,939,230.91l-24.39-.42c-22.55-.75-22.32-7.69-16.83-19.59Z"/><path class="cls-9" d="M1077.85,300.17a.55.55,0,0,1-.69.33l-4.72-1.44,1.32-2.58,4,2.94A.55.55,0,0,1,1077.85,300.17Z"/><path d="M1064.59,295.2c1-.45,1-2.27,1.65-3.2L898.5,207a1.06,1.06,0,0,0-1.42.46l-.89,1.76a1.06,1.06,0,0,0,.46,1.42l167.61,84.94A.71.71,0,0,1,1064.59,295.2Z"/><path d="M1071.79,295.9a11.74,11.74,0,0,0-3-1.52,8.77,8.77,0,0,1-1.4-1.21c0,.19-.46,1.61-.59,1.87a3.47,3.47,0,0,1-.53.83c.78.43,1.66.68,2.47,1a24.19,24.19,0,0,0,2.87,1.25,1.24,1.24,0,0,0,.23-.32l.57-1.12a1.46,1.46,0,0,0,.14-.65A.75.75,0,0,1,1071.79,295.9Z"/><path class="cls-9" d="M1067.22,291h4.08a0,0,0,0,1,0,0v8a1.52,1.52,0,0,1-1.52,1.52h-1a1.52,1.52,0,0,1-1.52-1.52v-8A0,0,0,0,1,1067.22,291Z" transform="translate(321.94 1115.79) rotate(-63.12)"/><path class="cls-8" d="M942.77,234l6.51,3.3q1-1.8,2-3.57l-6.53-3.31C944.06,231.6,943.41,232.8,942.77,234Z"/><path class="cls-8" d="M1019.68,108.77l40,36.31-10.7-26.68c-10.28-24.52-17.82-21.34-28.62-10.31Z"/><path class="cls-8" d="M1017.91,111.2l39.95,36.31-27.58-8.11c-25.38-7.9-22.94-15.71-13-27.51C1017.49,111.66,1017.7,111.43,1017.91,111.2Z"/><path class="cls-9" d="M1194,269.63a.65.65,0,0,1-.88.16l-4.92-3.11,2.31-2.52,3.56,4.58A.64.64,0,0,1,1194,269.63Z"/><path d="M1180.47,259.84c1.24-.22,1.9-2.25,2.87-3.12l-163.95-149a1.24,1.24,0,0,0-1.75.08l-1.57,1.72a1.24,1.24,0,0,0,.08,1.75L1180,260.16A.79.79,0,0,1,1180.47,259.84Z"/><path d="M1188.44,262.89c-.74-1.2-1.92-1.74-2.91-2.66a11.65,11.65,0,0,1-1.21-1.81c-.1.2-1,1.68-1.25,1.94a4.33,4.33,0,0,1-.86.77c.75.73,1.67,1.29,2.48,2a28.44,28.44,0,0,0,2.87,2.31,1.35,1.35,0,0,0,.35-.28l1-1.1a1.72,1.72,0,0,0,.37-.69A.91.91,0,0,1,1188.44,262.89Z"/><path class="cls-9" d="M1183.18,256.38H1188a0,0,0,0,1,0,0v9.46a1.79,1.79,0,0,1-1.79,1.79H1185a1.79,1.79,0,0,1-1.79-1.79v-9.46a0,0,0,0,1,0,0Z" transform="translate(194.26 963.09) rotate(-47.73)"/><path class="cls-8" d="M1061.24,152.22l6.36,5.78c1.1-1.16,2.22-2.31,3.36-3.43l-6.38-5.8Q1062.87,150.47,1061.24,152.22Z"/><path class="cls-10" d="M1196.8,280.89l-.65-.43C1195.86,280.68,1196.06,280.83,1196.8,280.89Z"/><path class="cls-2" d="M1376.08,164.18l-1-5.9c9.72-31.37,12-62.94,6.32-89-5.94-27.43-20-46.27-39.74-53.07l-.05,0c-7.33-2.51-31.95-6.51-37.06-6.51h-.4l-1.77,0c-19.62,0-40.92,10.12-60,28.48s-34.86,43.94-44.92,72.4a202.13,202.13,0,0,0-11.29,53.68Z"/><path class="cls-11" d="M1303.6,296.72l17.2.59L1324.63,186a3.85,3.85,0,0,0-3.71-4l-11-.38a3.86,3.86,0,0,0-4,3.72L1302.05,297A3.8,3.8,0,0,1,1303.6,296.72Z"/><path class="cls-12" d="M1303.6,296.72l13,.44,3.9-113.07a2.09,2.09,0,0,0-2-2.16l-10.35-.36a2.09,2.09,0,0,0-2.16,2L1302,297A3.73,3.73,0,0,1,1303.6,296.72Z"/><path class="cls-12" d="M1368.75,259.39l10.86.37c1.82.07,6.43.09,7.09-.21s-5.2-33.38-6.49-41q-4.56-26.9-9.11-53.8-3.11-18.32-6.2-36.63l-.45-2.66c-.36-2.15-2-3.67-3.57-3.41l-15,2.44c-1.61.26-2.62,2.21-2.26,4.35l21.57,127.46A3.76,3.76,0,0,0,1368.75,259.39Z"/><path class="cls-11" d="M1368.75,259.39l13.64.47-22.93-135.45c-.19-1.16-1.06-2-1.93-1.84l-13,2.11a1.92,1.92,0,0,0-1.23,2.36l21.9,129.38a3.61,3.61,0,0,0,3.51,3Z"/><path class="cls-11" d="M1322.72,241.63l1.91-55.71c.08-2.08-1.2-3.82-2.84-3.88L1309,181.6c-1.64,0-3,1.59-3.1,3.68l-2.67,77.29A103.53,103.53,0,0,0,1322.72,241.63Z"/><path class="cls-11" d="M1228.21,175.35l-13.4-5a3.44,3.44,0,0,0-4.42,2.49l-31,102.57a3.92,3.92,0,0,0,3.62,5.05l10.79.37a8,8,0,0,0,7.93-5.68l28.62-94.8A4,4,0,0,0,1228.21,175.35Z"/><path class="cls-11" d="M1372.77,174.59l-8.32-49.16c-.36-2.15-2-3.67-3.57-3.41l-15,2.44c-1.61.26-2.62,2.21-2.26,4.35l14,82.57a217.49,217.49,0,0,0,12.52-28.74Q1371.53,178.61,1372.77,174.59Z"/><path class="cls-12" d="M1225.22,174.23l-11.91-4.48a1.86,1.86,0,0,0-2.4,1.35l-31.72,105a3.31,3.31,0,0,0,3,4.26l12.79.44,31.37-103.91A2.18,2.18,0,0,0,1225.22,174.23Z"/><path class="cls-13" d="M1340,20.88c-6.81-2.34-31.78-6.4-35.7-6.23-3.17.14,3.55.95,3.27,2.4l-.92,4.83c-30.72,10.85-62.07,46.79-79.15,95.11-19.3,54.63-14.33,108,9.62,132.61l-1,5.6c-.3,1.63,4.31,3.58,6.16,4.68,0,0,9,1.65,21.53,2.59l.72.13v0c37.2,4.63,81.39-36.14,103.08-97.51C1391,98.72,1378.67,34.18,1340,20.89Z"/><path class="cls-11" d="M1228.21,175.35l-13.4-5a3.44,3.44,0,0,0-4.42,2.49L1196,220.39c2.65,12,7,22.59,12.83,31.23l21.53-71.31A4,4,0,0,0,1228.21,175.35Z"/><path class="cls-11" d="M1228.33,175.39l-13.64-5.12a3.31,3.31,0,0,0-4.26,2.39l-11.17,37c2.35,13.07,6.43,24.53,12.09,33.64l19.07-63.15A3.88,3.88,0,0,0,1228.33,175.39Z"/><ellipse class="cls-14" cx="1276.13" cy="137.53" rx="127.54" ry="78.15" transform="translate(714.88 1291.84) rotate(-70.22)"/><ellipse class="cls-2" cx="1275.74" cy="137.52" rx="107.45" ry="65.84" transform="translate(714.64 1291.47) rotate(-70.22)"/><ellipse class="cls-14" cx="1274.5" cy="138.09" rx="86.54" ry="53.03" transform="translate(713.28 1290.67) rotate(-70.22)"/><ellipse class="cls-2" cx="1272.61" cy="134.53" rx="57.29" ry="35.11" transform="translate(715.38 1286.54) rotate(-70.22)"/><ellipse class="cls-14" cx="1270.52" cy="132.77" rx="17.56" ry="10.76" transform="matrix(0.34, -0.94, 0.94, 0.34, 715.65, 1283.41)"/><path class="cls-3" d="M1131,7.1l31.61,28.68-8.46-21.07c-8.14-19.36-14.11-16.86-22.65-8.14C1131.36,6.74,1131.19,6.92,1131,7.1Z"/><path class="cls-3" d="M1129.62,9l31.62,28.68-21.82-6.4c-20.09-6.24-18.16-12.41-10.28-21.73Z"/><path class="cls-15" d="M1269,134.16a.51.51,0,0,1-.7.13l-3.89-2.46,1.83-2,2.82,3.61A.5.5,0,0,1,1269,134.16Z"/><path d="M1258.27,126.43c1-.17,1.5-1.78,2.27-2.47L1130.8,6.25a1,1,0,0,0-1.39.06l-1.24,1.36a1,1,0,0,0,.07,1.39l129.64,117.62A.66.66,0,0,1,1258.27,126.43Z"/><path d="M1264.58,128.84a11,11,0,0,0-2.31-2.1,9.33,9.33,0,0,1-1-1.43,17.78,17.78,0,0,1-1,1.53,3.25,3.25,0,0,1-.69.61c.6.58,1.32,1,2,1.55a24.56,24.56,0,0,0,2.27,1.83,1.56,1.56,0,0,0,.28-.23l.79-.87a1.36,1.36,0,0,0,.29-.54A.71.71,0,0,1,1264.58,128.84Z"/><path class="cls-15" d="M1265.94,130.76l-.66.73a1.43,1.43,0,0,1-2,.09l-5.53-5,2.55-2.81,5.54,5A1.41,1.41,0,0,1,1265.94,130.76Z"/><path class="cls-3" d="M1163.91,41.43l5,4.56c.87-.92,1.75-1.83,2.66-2.71l-5-4.58C1165.66,39.59,1164.78,40.5,1163.91,41.43Z"/><path class="cls-10" d="M1268.2,134.56l-.19.05a1,1,0,0,0-1.18-1.05q-37.11,6.78-73.89,15.18-1.05,6.82-1.56,13.48C1219.42,151.47,1269.35,134.23,1268.2,134.56Z"/><path class="cls-8" d="M1216.58,121.85l34.77,41.3-7.06-27.86c-6.93-25.67-14.83-23.52-27-14C1217.05,121.46,1216.81,121.65,1216.58,121.85Z"/><path class="cls-8" d="M1214.5,124l34.77,41.29L1223,153.63c-24.11-11.21-20.65-18.62-9.22-29Z"/><path class="cls-9" d="M1368,304.44a.64.64,0,0,1-.9,0l-4.45-3.73,2.61-2.19,2.93,5A.64.64,0,0,1,1368,304.44Z"/><path d="M1355.88,293c1.26-.05,2.18-2,3.26-2.72L1216.43,120.75a1.24,1.24,0,0,0-1.75-.15l-1.78,1.49a1.25,1.25,0,0,0-.15,1.75l142.6,169.35A.81.81,0,0,1,1355.88,293Z"/><path d="M1363.37,297c-.57-1.28-1.66-2-2.53-3a9.81,9.81,0,0,1-.95-2c-.13.19-1.24,1.54-1.5,1.77a4.22,4.22,0,0,1-1,.64c.65.83,1.48,1.51,2.2,2.28a29.17,29.17,0,0,0,2.53,2.67,1.52,1.52,0,0,0,.4-.24l1.13-1a1.69,1.69,0,0,0,.46-.64A.87.87,0,0,1,1363.37,297Z"/><path class="cls-9" d="M1358.26,290.15h4.81a0,0,0,0,1,0,0v9.46a1.79,1.79,0,0,1-1.79,1.79H1360a1.79,1.79,0,0,1-1.79-1.79v-9.46A0,0,0,0,1,1358.26,290.15Z" transform="translate(129.32 945.91) rotate(-40.1)"/><path class="cls-8" d="M1252,170.44l5.54,6.58q1.88-1.52,3.79-3l-5.55-6.59C1254.49,168.43,1253.23,169.43,1252,170.44Z"/><path class="cls-8" d="M1426.45,88.51,1420.86,134l13.25-20.48c12-19.14,6.06-22.81-6.88-24.89Z"/><path class="cls-8" d="M1423.9,88.48,1418.3,134l-7.89-23.09c-7-21.46-.35-23.59,12.71-22.47Z"/><path class="cls-9" d="M1400.36,288.13c-.33,0-.58-.28-.54-.54l-.25-4.93,2.87.37-1.43,4.71A.55.55,0,0,1,1400.36,288.13Z"/><path d="M1400.53,274c.75.75,2.48.21,3.57.46l23-186.65a1.05,1.05,0,0,0-.92-1.17l-2-.24a1,1,0,0,0-1.17.92l-22.94,186.49A.71.71,0,0,1,1400.53,274Z"/><path d="M1402.32,281c.47-1.1.26-2.17.42-3.31a8.63,8.63,0,0,1,.66-1.73c-.19,0-1.67.12-2,.09a3.46,3.46,0,0,1-1-.23c-.14.88-.08,1.79-.14,2.69a25.14,25.14,0,0,0-.2,3.12,1.18,1.18,0,0,0,.38.1l1.24.16a1.45,1.45,0,0,0,.66-.09A.78.78,0,0,1,1402.32,281Z"/><path class="cls-9" d="M1399.49,273.8h4.08a0,0,0,0,1,0,0v8a1.52,1.52,0,0,1-1.52,1.52h-1a1.52,1.52,0,0,1-1.52-1.52v-8a0,0,0,0,1,0,0Z" transform="translate(44.45 -168.88) rotate(7.01)"/><path class="cls-8" d="M1416.69,138.61l-.89,7.24c1.35.19,2.7.4,4,.64l.9-7.26C1419.39,139,1418,138.79,1416.69,138.61Z"/><path class="cls-3" d="M947.49,127.67,976,163.53l-5.33-23.81c-5.28-21.93-12-20.3-22.58-12.53Z"/><path class="cls-3" d="M945.68,129.47l28.53,35.85-22-10.54C932,144.71,935.12,138.5,945.07,130,945.27,129.8,945.47,129.63,945.68,129.47Z"/><path class="cls-16" d="M1071.64,286.14a.55.55,0,0,1-.76,0l-3.69-3.28,2.27-1.79,2.36,4.31A.55.55,0,0,1,1071.64,286.14Z"/><path d="M1061.66,276.1c1.07,0,1.89-1.62,2.83-2.22L947.39,126.73a1,1,0,0,0-1.47-.17l-1.55,1.23a1.06,1.06,0,0,0-.17,1.48l117,147A.74.74,0,0,1,1061.66,276.1Z"/><path d="M1067.92,279.74a11.71,11.71,0,0,0-2.08-2.62,9,9,0,0,1-.76-1.69,18.93,18.93,0,0,1-1.32,1.46,3.42,3.42,0,0,1-.83.53c.53.72,1.23,1.31,1.82,2a24.44,24.44,0,0,0,2.09,2.33,1.57,1.57,0,0,0,.33-.19l1-.78a1.49,1.49,0,0,0,.4-.54A.73.73,0,0,1,1067.92,279.74Z"/><path class="cls-16" d="M1063.61,273.84h4.08a0,0,0,0,1,0,0v8a1.52,1.52,0,0,1-1.52,1.52h-1a1.52,1.52,0,0,1-1.52-1.52v-8A0,0,0,0,1,1063.61,273.84Z" transform="translate(58.27 724.06) rotate(-38.51)"/><path class="cls-3" d="M976.4,169.73l4.54,5.71c1.08-.83,2.18-1.64,3.29-2.42l-4.56-5.73C978.56,168.08,977.47,168.9,976.4,169.73Z"/></g></g></g></svg>