<svg xmlns="http://www.w3.org/2000/svg" viewBox="0 0 263.47 283.73"><defs><style>.cls-1{fill:#fff;}.cls-2{fill:#ffe600;}.cls-3{font-size:18.24px;font-family:NeoSansArabic, Neo Sans Arabic;}.cls-4{font-size:24.32px;font-family:NeoSansArabic-Medium, Neo Sans Arabic;font-weight:500;}.cls-5{fill:none;stroke:#f58220;stroke-miterlimit:10;stroke-width:2px;}</style></defs><title>Asset 13</title><g id="Layer_2" data-name="Layer 2"><g id="Layer_1-2" data-name="Layer 1"><rect class="cls-1" width="263.47" height="283.73" rx="31.41"/><rect class="cls-2" x="210.77" y="231.04" width="42.56" height="42.56" rx="21" transform="translate(484.37 20.27) rotate(90)"/><path class="cls-1" d="M238.45,253.45,229.94,262a1.6,1.6,0,0,1-2.26-2.26l7.39-7.38-7.39-7.38a1.6,1.6,0,0,1,2.26-2.26l8.51,8.51A1.61,1.61,0,0,1,238.45,253.45Z"/><text class="cls-3" transform="translate(153.92 259.08)">Start</text><text class="cls-4" transform="translate(27.45 52.15)">CX Hero</text><path class="cls-5" d="M106.45,207a3.38,3.38,0,0,1-.77,2.58,11.91,11.91,0,0,1-3.25,1.62,71.66,71.66,0,0,1-10.8,2.58,86.31,86.31,0,0,1-14.25,1.06q-31.17,0-46.28-16.83T16,149.61V134.12q0-31.74,15.11-48.48T77.38,68.91a91.59,91.59,0,0,1,14.53,1,54.7,54.7,0,0,1,10.52,2.58,12.15,12.15,0,0,1,3.25,1.63,3.35,3.35,0,0,1,.77,2.58V107q0,4-3.83,3.45c-2-.26-5-.61-9-1a106.25,106.25,0,0,0-12-.67,35.77,35.77,0,0,0-8.13.86,12.11,12.11,0,0,0-6.31,3.63,18.93,18.93,0,0,0-4,7.75,49.35,49.35,0,0,0-1.43,13.19v15.49a52.42,52.42,0,0,0,1.43,13.68,16.81,16.81,0,0,0,4.11,7.65,12.63,12.63,0,0,0,6.31,3.34,40.13,40.13,0,0,0,8.23.77,96.87,96.87,0,0,0,9.85-.48q4.68-.48,11-1.24a3.51,3.51,0,0,1,3,.38c.57.51.86,1.53.86,3.06Z"/><path class="cls-5" d="M199.2,212.91a5.15,5.15,0,0,1-3.44-.86,14.69,14.69,0,0,1-2.3-3L177,181.17l-14.35,27.92a13.14,13.14,0,0,1-2,3,3.2,3.2,0,0,1-2.39.86H114.86a1.76,1.76,0,0,1-1.91-1.33,3.33,3.33,0,0,1,.19-2.49l38.25-71.53-37.1-62.92a2.63,2.63,0,0,1-.29-2.48,1.93,1.93,0,0,1,2-1.34h47.43A3.28,3.28,0,0,1,166,72.06a17.46,17.46,0,0,1,1.81,2.58l15.5,26.21,12.43-26.21A11.13,11.13,0,0,1,197.58,72a3.31,3.31,0,0,1,2.57-1.15h43.61a1.93,1.93,0,0,1,2,1.34,2.63,2.63,0,0,1-.29,2.48l-37.67,67.9L247,209.09a2.68,2.68,0,0,1,.29,2.49,1.93,1.93,0,0,1-2,1.33Z"/></g></g></svg>