<svg xmlns="http://www.w3.org/2000/svg" viewBox="0 0 37.87 38"><defs><style>.cls-1{fill:#ef4d94;}.cls-2{fill:#fff;}</style></defs><title>Asset 7</title><g id="Layer_2" data-name="Layer 2"><g id="Layer_1-2" data-name="Layer 1"><rect class="cls-1" width="37.87" height="38" rx="10"/><path class="cls-2" d="M26.34,11.16H11.53c-3,0-4.66,1.72-4.66,4.68V25.9a.83.83,0,0,0,.94.94H10.1A.83.83,0,0,0,11,25.9V22.43H26.83V25.9a.83.83,0,0,0,.94.94h2.29A.83.83,0,0,0,31,25.9V15.84C31,12.88,29.34,11.16,26.34,11.16ZM15.73,17.28a1.37,1.37,0,0,1-.73.28c-.47,0-.94,0-1.46,0,0,.27,0,.51,0,.74a8.77,8.77,0,0,1,0,1,.77.77,0,0,1-1.52,0,9.4,9.4,0,0,1-.05-1.06v-.71H10.39a.79.79,0,0,1-.84-.65.81.81,0,0,1,.87-1l1.44,0,.06,0c0-.45,0-.93,0-1.41,0-.66.48-1,1-.87a.83.83,0,0,1,.57.88c0,.48,0,1,0,1.47h1.51a.83.83,0,0,1,.81.48A.68.68,0,0,1,15.73,17.28ZM23.5,20a1.6,1.6,0,1,1,1.61-1.59A1.58,1.58,0,0,1,23.5,20Zm3.24-3.2a1.61,1.61,0,1,1,1.59-1.63A1.64,1.64,0,0,1,26.74,16.78Z"/></g></g></svg>