<svg xmlns="http://www.w3.org/2000/svg" viewBox="0 0 263.47 283.73"><defs><style>.cls-1{fill:#fff;}.cls-2{fill:#ef4d94;}.cls-3{font-size:18.24px;font-family:NeoSansArabic, Neo Sans Arabic;}.cls-4{font-size:24.32px;font-family:NeoSansArabic-Medium, Neo Sans Arabic;font-weight:500;}.cls-5{fill:none;stroke:#ef4d94;stroke-miterlimit:10;stroke-width:2px;}</style></defs><title>Asset 12</title><g id="Layer_2" data-name="Layer 2"><g id="Layer_1-2" data-name="Layer 1"><rect class="cls-1" width="263.47" height="283.73" rx="31.41"/><rect class="cls-2" x="210.77" y="231.04" width="42.56" height="42.56" rx="21" transform="translate(484.37 20.27) rotate(90)"/><path class="cls-1" d="M238.45,253.45,229.94,262a1.6,1.6,0,0,1-2.26-2.26l7.39-7.38-7.39-7.38a1.6,1.6,0,0,1,2.26-2.26l8.51,8.51A1.61,1.61,0,0,1,238.45,253.45Z"/><text class="cls-3" transform="translate(153.92 259.08)">Start</text><text class="cls-4" transform="translate(28.91 52.15)">Games Hub</text><path class="cls-5" d="M198.7,70.93H64.77c-27.16,0-42.16,15.61-42.16,42.36v91q0,8.51,8.52,8.51H51.8q8.51,0,8.51-8.51V172.88H203.16v31.41q0,8.51,8.51,8.51h20.67q8.52,0,8.51-8.51v-91C240.85,86.54,225.86,70.93,198.7,70.93Zm-95.93,55.35a13,13,0,0,1-6.66,2.56c-4.2.4-8.46.12-13.16.12,0,2.42,0,4.55,0,6.69a77.85,77.85,0,0,1-.44,9.3,7,7,0,0,1-13.76,0,87.83,87.83,0,0,1-.42-9.61c-.06-2,0-3.92,0-6.37-4.78,0-9.31.09-13.84,0-4.3-.1-7-2.34-7.6-5.9-.77-4.86,2.38-8.38,7.81-8.55,4.35-.15,8.71-.12,13.06-.18.08,0,.16-.12.57-.47,0-4-.1-8.38,0-12.71.17-6,4.35-9.49,9.44-8,3.22,1,5.07,3.73,5.15,8s0,8.66,0,13.3c4.79,0,9.23-.06,13.66,0,3.22,0,6,1.22,7.32,4.34C105.07,121.46,105,124.45,102.77,126.28Zm70.28,24.41a14.43,14.43,0,1,1,14.51-14.36A14.26,14.26,0,0,1,173.05,150.69Zm29.27-28.93a14.54,14.54,0,1,1,14.39-14.68A14.78,14.78,0,0,1,202.32,121.76Z"/></g></g></svg>