<svg xmlns="http://www.w3.org/2000/svg" viewBox="0 0 263.47 283.73"><defs><style>.cls-1{fill:#fff;}.cls-2{fill:#f58220;}.cls-3{font-size:18.24px;font-family:NeoSansArabic, Neo Sans Arabic;}.cls-4{font-size:24.32px;font-family:NeoSansArabic-Medium, Neo Sans Arabic;font-weight:500;}.cls-5,.cls-6{fill:none;stroke:#f58220;stroke-miterlimit:10;stroke-width:2px;}.cls-6{fill-rule:evenodd;}</style></defs><title>Asset 16</title><g id="Layer_2" data-name="Layer 2"><g id="Layer_1-2" data-name="Layer 1"><rect class="cls-1" width="263.47" height="283.73" rx="31.41"/><rect class="cls-2" x="210.77" y="231.04" width="42.56" height="42.56" rx="21" transform="translate(484.37 20.27) rotate(90)"/><path class="cls-1" d="M238.45,253.45,229.94,262a1.6,1.6,0,0,1-2.26-2.26l7.39-7.38-7.39-7.38a1.6,1.6,0,0,1,2.26-2.26l8.51,8.51A1.61,1.61,0,0,1,238.45,253.45Z"/><text class="cls-3" transform="translate(153.92 259.08)">Start</text><text class="cls-4" transform="translate(27.45 52.15)">Guru Hub</text><circle class="cls-5" cx="129.65" cy="85.58" r="16.68"/><path class="cls-6" d="M198.9,159.94l-23.46-15.63-17.8-29.66a8.33,8.33,0,0,0-3.41-3.17c-18.71-9.35-29.71-9.36-49,0a8.28,8.28,0,0,0-3.54,3.22l-18,30L64,160.37a8.34,8.34,0,1,0,10.42,13l20.84-16.67a8.17,8.17,0,0,0,2-2.23l10.12-16.87,1.49-2v37.53L76.28,194.82a10.92,10.92,0,0,0,6.06,20H107a16.48,16.48,0,0,1-2.32-8.34,16.69,16.69,0,0,1,16.67-16.68H150.5a4.17,4.17,0,0,1,0,8.34H121.31a8.34,8.34,0,0,0,0,16.68H176a11.22,11.22,0,0,0,6.22-20.56l-31.7-21.13V136.38l3.13,4,8.48,14.13a8.39,8.39,0,0,0,2.52,2.65l25,16.67a8.21,8.21,0,0,0,4.61,1.41,8.34,8.34,0,0,0,4.64-15.28Z"/></g></g></svg>