<svg xmlns="http://www.w3.org/2000/svg" xmlns:xlink="http://www.w3.org/1999/xlink" viewBox="0 0 250.52 30.57"><defs><style>.cls-1{fill:url(#New_Gradient_Swatch_copy);}.cls-2{fill:url(#New_Gradient_Swatch_copy-2);}.cls-3{fill:url(#New_Gradient_Swatch_copy-3);}.cls-4{fill:url(#New_Gradient_Swatch_copy-4);}.cls-5{fill:url(#New_Gradient_Swatch_copy-5);}.cls-6{fill:url(#New_Gradient_Swatch_copy-6);}.cls-7{fill:url(#New_Gradient_Swatch_copy-7);}</style><linearGradient id="New_Gradient_Swatch_copy" x1="1563.36" y1="1563.1" x2="-252.73" y2="-252.99" gradientUnits="userSpaceOnUse"><stop offset="0" stop-color="#ffe600"/><stop offset="0.09" stop-color="#ffe200"/><stop offset="0.18" stop-color="#ffd601"/><stop offset="0.27" stop-color="#ffc417"/><stop offset="0.36" stop-color="#ffad2e"/><stop offset="0.45" stop-color="#ff9444"/><stop offset="0.55" stop-color="#ff7c5a"/><stop offset="0.64" stop-color="#ff686d"/><stop offset="0.73" stop-color="#ff597e"/><stop offset="0.82" stop-color="#fe518a"/><stop offset="0.91" stop-color="#f34e91"/><stop offset="1" stop-color="#ef4d94"/></linearGradient><linearGradient id="New_Gradient_Swatch_copy-2" x1="1582.94" y1="1543.52" x2="-233.15" y2="-272.57" xlink:href="#New_Gradient_Swatch_copy"/><linearGradient id="New_Gradient_Swatch_copy-3" x1="1605.66" y1="1520.8" x2="-210.43" y2="-295.29" xlink:href="#New_Gradient_Swatch_copy"/><linearGradient id="New_Gradient_Swatch_copy-4" x1="1625.31" y1="1501.15" x2="-190.78" y2="-314.94" xlink:href="#New_Gradient_Swatch_copy"/><linearGradient id="New_Gradient_Swatch_copy-5" x1="1640.53" y1="1485.93" x2="-175.56" y2="-330.16" xlink:href="#New_Gradient_Swatch_copy"/><linearGradient id="New_Gradient_Swatch_copy-6" x1="1658.18" y1="1468.28" x2="-157.91" y2="-347.81" xlink:href="#New_Gradient_Swatch_copy"/><linearGradient id="New_Gradient_Swatch_copy-7" x1="1672.97" y1="1453.49" x2="-143.12" y2="-362.6" xlink:href="#New_Gradient_Swatch_copy"/></defs><title>Asset 10</title><g id="Layer_2" data-name="Layer 2"><g id="Layer_1-2" data-name="Layer 1"><path class="cls-1" d="M26.82,11.92H13.72a1.62,1.62,0,0,0-1.83,1.83v3.06a1.62,1.62,0,0,0,1.83,1.84h6.82v2.57c0,1.53-.88,2.18-2.54,2.18H11.35a2.9,2.9,0,0,1-3.23-3.23V10.39a2.91,2.91,0,0,1,3.23-3.23H25.43a1.62,1.62,0,0,0,1.83-1.83V1.83A1.62,1.62,0,0,0,25.43,0H9.08C3.23,0,0,3.36,0,9.13V21.44c0,5.76,3.23,9.13,9.08,9.13H19.14c5.85,0,9.52-2.06,9.52-7.82v-9A1.62,1.62,0,0,0,26.82,11.92Z"/><path class="cls-2" d="M71.05,0H42.19c-5.85,0-9.08,3.36-9.08,9.13v19.6a1.62,1.62,0,0,0,1.83,1.84H39.4a1.62,1.62,0,0,0,1.83-1.84V22H72v6.77a1.62,1.62,0,0,0,1.83,1.84h4.45a1.63,1.63,0,0,0,1.84-1.84V9.13C80.13,3.36,76.9,0,71.05,0ZM50.38,11.93a3,3,0,0,1-1.44.55c-.9.08-1.82,0-2.83,0,0,.52,0,1,0,1.44a16.81,16.81,0,0,1-.1,2,1.5,1.5,0,0,1-3,0,17.82,17.82,0,0,1-.1-2.07c0-.42,0-.84,0-1.37-1,0-2,0-3,0a1.52,1.52,0,0,1-1.64-1.27A1.57,1.57,0,0,1,40,9.38c.93,0,1.87,0,2.81,0,0,0,0,0,.12-.1,0-.87,0-1.81,0-2.74,0-1.3.94-2,2-1.71A1.62,1.62,0,0,1,46.1,6.51c0,.93,0,1.87,0,2.87,1,0,2,0,2.94,0a1.6,1.6,0,0,1,1.58.93A1.34,1.34,0,0,1,50.38,11.93Zm15.14,5.26a3.11,3.11,0,1,1,3.13-3.1A3.08,3.08,0,0,1,65.52,17.19ZM71.83,11a3.18,3.18,0,0,1-3.17-3.1,3.14,3.14,0,0,1,6.27-.06A3.19,3.19,0,0,1,71.83,11Z"/><path class="cls-3" d="M109.84,0h0c-3.67,0-6.33,1.35-7.77,3.76C100.57,1.35,98,0,94.28,0h0c-5.85,0-9.08,3.36-9.08,9.13v19.6A1.62,1.62,0,0,0,87,30.57h4.46a1.62,1.62,0,0,0,1.83-1.84V10.39a2.45,2.45,0,1,1,4.69,0V28.73a1.62,1.62,0,0,0,1.83,1.84h4.45a1.63,1.63,0,0,0,1.84-1.84V10.39a2.44,2.44,0,1,1,4.68,0V28.73a1.63,1.63,0,0,0,1.84,1.84h4.45a1.63,1.63,0,0,0,1.84-1.84V9.13C118.93,3.36,115.69,0,109.84,0Z"/><path class="cls-4" d="M149.41,0H132.89c-5.85,0-9.08,3.36-9.08,9.13V21.44c0,5.76,3.23,9.13,9.08,9.13h16.52a1.62,1.62,0,0,0,1.83-1.84V25.24a1.62,1.62,0,0,0-1.83-1.84H135.16a2.9,2.9,0,0,1-3.23-3.23V18.65h14a1.62,1.62,0,0,0,1.83-1.84V13.75a1.62,1.62,0,0,0-1.83-1.83h-14V10.39a2.91,2.91,0,0,1,3.23-3.23h14.25a1.62,1.62,0,0,0,1.83-1.83V1.83A1.62,1.62,0,0,0,149.41,0Z"/><path class="cls-5" d="M182.12,0h-4.45a1.62,1.62,0,0,0-1.83,1.83V11.7H164V1.83A1.62,1.62,0,0,0,162.11,0h-4.45a1.62,1.62,0,0,0-1.84,1.83v26.9a1.63,1.63,0,0,0,1.84,1.84h4.45A1.63,1.63,0,0,0,164,28.73V18.86h11.89v9.87a1.62,1.62,0,0,0,1.83,1.84h4.45A1.63,1.63,0,0,0,184,28.73V1.83A1.62,1.62,0,0,0,182.12,0Z"/><path class="cls-6" d="M215.49,0H211a1.62,1.62,0,0,0-1.83,1.83V20.17A2.91,2.91,0,0,1,206,23.4h-5.42a2.91,2.91,0,0,1-3.24-3.23V1.83A1.62,1.62,0,0,0,195.48,0H191a1.62,1.62,0,0,0-1.84,1.83V21.44c0,5.76,3.23,9.13,9.09,9.13h10c5.86,0,9.09-3.37,9.09-9.13V1.83A1.62,1.62,0,0,0,215.49,0Z"/><path class="cls-7" d="M246,15.24c2.66-1.09,4.14-3.23,4.14-7V7.82c0-5.77-3.45-7.82-9.3-7.82H224.39a1.62,1.62,0,0,0-1.83,1.83v26.9a1.62,1.62,0,0,0,1.83,1.84h16.83c5.85,0,9.3-2.05,9.3-7.82v-.4C250.52,18.43,248.91,16.24,246,15.24ZM230.68,7.16h8.84c1.66,0,2.53.66,2.53,2.18v.4c0,1.52-.87,2.18-2.53,2.18h-8.84ZM242.4,21.22c0,1.53-.87,2.18-2.53,2.18h-9.19V18.64h9.19c1.66,0,2.53.66,2.53,2.19Z"/></g></g></svg>