<svg xmlns="http://www.w3.org/2000/svg" viewBox="0 0 263.47 283.73"><defs><style>.cls-1{fill:#fff;}.cls-2{fill:#4dbeee;}.cls-3{font-size:18.24px;font-family:NeoSansArabic, Neo Sans Arabic;}.cls-4{font-size:24.32px;font-family:NeoSansArabic-Medium, Neo Sans Arabic;font-weight:500;}.cls-5{fill:none;stroke:#4dbeee;stroke-miterlimit:10;stroke-width:2px;}</style></defs><title>Asset 14</title><g id="Layer_2" data-name="Layer 2"><g id="Layer_1-2" data-name="Layer 1"><rect class="cls-1" width="263.47" height="283.73" rx="31.41"/><rect class="cls-2" x="210.77" y="231.04" width="42.56" height="42.56" rx="21" transform="translate(484.37 20.27) rotate(90)"/><path class="cls-1" d="M238.45,253.45,229.94,262a1.6,1.6,0,0,1-2.26-2.26l7.39-7.38-7.39-7.38a1.6,1.6,0,0,1,2.26-2.26l8.51,8.51A1.61,1.61,0,0,1,238.45,253.45Z"/><text class="cls-3" transform="translate(153.92 259.08)">Start</text><text class="cls-4" transform="translate(27.15 52.15)">Productivity</text><path class="cls-5" d="M191.25,68.91h-119A17.3,17.3,0,0,0,54.93,86.19v80.64a17.31,17.31,0,0,0,17.28,17.28h35.72l-2.4,19.2H91.41a5.76,5.76,0,1,0,0,11.52h80.64a5.76,5.76,0,1,0,0-11.52H157.94l-2.4-19.2h35.71a17.3,17.3,0,0,0,17.28-17.28V86.19A17.3,17.3,0,0,0,191.25,68.91ZM131.73,173.12a4.06,4.06,0,1,1-4,4A4.05,4.05,0,0,1,131.73,173.12Zm14.6,30.19H117.14l2.4-19.2h24.39Zm41.74-33.58H76.41a9,9,0,0,1-9-9V90.6a9,9,0,0,1,9-9H188.07a9,9,0,0,1,9,9v70.11A9,9,0,0,1,188.07,169.73Z"/></g></g></svg>