<svg xmlns="http://www.w3.org/2000/svg" viewBox="0 0 37.87 38"><defs><style>.cls-1{fill:#f58220;}.cls-2{fill:#fff;}</style></defs><title>Asset 6</title><g id="Layer_2" data-name="Layer 2"><g id="Layer_1-2" data-name="Layer 1"><rect class="cls-1" width="37.87" height="38" rx="10"/><path class="cls-2" d="M25.66,12.72a2.49,2.49,0,0,0,1.38.41,2.52,2.52,0,1,0-2.52-2.51,2.75,2.75,0,0,0,.13.76l-4.34,3.29a2.5,2.5,0,0,0-1.38-.42,2.54,2.54,0,0,0-1.66.64l-4-2.19a2.71,2.71,0,0,0,0-.41,2.55,2.55,0,1,0-.86,1.88l4,2.19a2.71,2.71,0,0,0,0,.4,2.52,2.52,0,1,0,5,0,2.36,2.36,0,0,0-.13-.75Z"/><path class="cls-2" d="M10.83,17.6a2.51,2.51,0,0,0-2.51,2.52v7.26a2.52,2.52,0,1,0,5,0V20.12A2.52,2.52,0,0,0,10.83,17.6Z"/><path class="cls-2" d="M27,15.93a2.51,2.51,0,0,0-2.52,2.51v8.94a2.52,2.52,0,1,0,5,0V18.44A2.51,2.51,0,0,0,27,15.93Z"/><path class="cls-2" d="M18.93,22.07a2.52,2.52,0,0,0-2.51,2.52v2.79a2.52,2.52,0,1,0,5,0V24.59A2.52,2.52,0,0,0,18.93,22.07Z"/></g></g></svg>