<svg xmlns="http://www.w3.org/2000/svg" viewBox="0 0 263.47 283.73"><defs><style>.cls-1{fill:#fff;}.cls-2{fill:#7f3f98;}.cls-3{font-size:18.24px;font-family:NeoSansArabic, Neo Sans Arabic;}.cls-4{font-size:24.32px;font-family:NeoSansArabic-Medium, Neo Sans Arabic;font-weight:500;}.cls-5{fill:none;stroke:#7f3f98;stroke-miterlimit:10;stroke-width:2px;}</style></defs><title>Asset 15</title><g id="Layer_2" data-name="Layer 2"><g id="Layer_1-2" data-name="Layer 1"><rect class="cls-1" width="263.47" height="283.73" rx="31.41"/><rect class="cls-2" x="210.77" y="231.04" width="42.56" height="42.56" rx="21" transform="translate(484.37 20.27) rotate(90)"/><path class="cls-1" d="M238.45,253.45,229.94,262a1.6,1.6,0,0,1-2.26-2.26l7.39-7.38-7.39-7.38a1.6,1.6,0,0,1,2.26-2.26l8.51,8.51A1.61,1.61,0,0,1,238.45,253.45Z"/><text class="cls-3" transform="translate(153.92 259.08)">Start</text><text class="cls-4" transform="translate(27.45 52.15)">Quiz Night</text><path class="cls-5" d="M63.91,164.32h0Z"/><path class="cls-5" d="M81.23,157.1c-.15-.25-.16.3,1.25-3.56,4.66-12.86,12.91-48,8.38-58.73-4.29-10.08-21.24-9.75-26.77,9.26-2,7,.75,1.94-4.23,5.46C42.07,122.1,40.45,166,57.7,174c6,2.84,12.84,1.58,18.81-7.75,1.29-2,0-1.43,3.64,2.24,3.26,3.27,8.31-1.36,5.37-4.89C84.2,162,84.3,162.19,81.23,157.1Zm-6-9a71.45,71.45,0,0,0-4.79-5.76c-3.39-3.77-9.18,1.18-6,5.11,2.14,2.62,4.33,5.23,6.84,8.74-4.12,7.14-6.62,8.07-7.23,8.17.3.09-4.56,1.45-3.73-18.07.39-8.07,1.46-17.11,4.88-24.46a17.84,17.84,0,0,0,2.33,3.48c3.93,4.77,11.42-.37,8.35-5.76a13.49,13.49,0,0,1-2.14-5.84c-.4-5.18,3.24-14.39,6.94-14.48C82.36,99.14,84.35,125.22,75.19,148.05Z"/><path class="cls-5" d="M64,164.31h0Z"/><path class="cls-5" d="M91,126c-2.18,12.3-2.35,18.23.48,24,3.46,7.1,9.72,8.88,14.06,7.27,5.61-2.07,8.23-8.61,10-14.4,3.85-12,6.79-29.14,8-39.09.72-5.86-8.18-7-8.84-.91-2.46,22.62-9.17,41.4-10.5,41.4-2.23,0,5.34-39.45,5.85-41.48,1.22-6.67-8-9.74-11-3.67C95.88,105.37,92.43,117.8,91,126Z"/><path class="cls-5" d="M129.7,98.63A5.19,5.19,0,0,1,140,100.16c-.76,7.17-4.52,27.54-6.61,47.17a7.11,7.11,0,1,1-14.06-2C123,125.71,128.44,105.28,129.7,98.63Z"/><path class="cls-5" d="M132.89,87.06c.69-3.84.68-5.63,1.64-12.91a6.26,6.26,0,0,1,12.41,1.64c-.11.85-3.83,11.33-5,14C139.7,94.91,131.9,92.59,132.89,87.06Z"/><path class="cls-5" d="M175.06,87c1.5,3.72-1.66,5.3-14.62,35-3,7-2.75,6-1.85,5.32,22.16-16.49,32.55-14.76,35-10.12,3.92,7.29-7.81,10.13-19.28,16.33-7.5,4.08-26.73,16.09-29.51,18.09a5,5,0,0,1-7.72-5.18c3.3-14.11,19.91-42.26,24.1-48.44-1.61.56-11.32,4-12.52,4.69a4.92,4.92,0,0,1-5.57-8.08C148.48,89.86,172.3,80.19,175.06,87Z"/><path class="cls-5" d="M75.92,206.6c-.85,3.45-.83,5.46-3.66,5.7-1.25.11-1.93-.67-2.4-1.78-.07-.14-1.87-4.85-4.16-15.4-1.21,7.67-2,12.16-2.71,16a4.76,4.76,0,1,1-9.24-2.21c2.47-8.36,4.18-14.87,7.46-27a3.27,3.27,0,0,1,6.42.7c4.61,16.89,2,17,5-6.31a5.34,5.34,0,1,1,10.59,1.36C83.09,178.5,84.09,173.55,75.92,206.6Z"/><path class="cls-5" d="M91.92,185.31c-.21.9-4.81,20-5.29,21.89a3.69,3.69,0,0,1-6,1.8c-1.78-1.65-1.51-1.59,2.25-25.31a4.6,4.6,0,1,1,9,1.62Z"/><path class="cls-5" d="M98.24,162.85c-.42,1.76.32-2-4.82,13.56-1.32,4-7.35,2.59-6.74-1.56.18-1.27,1.18-9.51,2.13-13.63C90.53,154,99.66,156.89,98.24,162.85Z"/><path class="cls-5" d="M124.1,184c-.3,4.34-7.81,29.26-18.57,30.58-6.26.77-12.69-5.09-13.36-13.62-1.21-15.14,7-46.1,22.71-45.78,6,.13,9,4.32,8.77,9.84,0,0,.36,3.77-4.24,11.56a2.82,2.82,0,0,1-5.11-2.3,30.77,30.77,0,0,0,2-7.73c.52-8.9-10.68,1.28-13.19,32.57-1.16,14.55,9.08,4.37,15.61-12.18-4.42,1.4-6.83,3.43-8.21,3.95a3.5,3.5,0,0,1-3.28-6.14c1.57-1,7.88-3.51,14.94-3A2.13,2.13,0,0,1,124.1,184Z"/><path class="cls-5" d="M157.94,177.08a3.51,3.51,0,0,0-7,.74c.24,5.21-4,13.41-6.9,15.64-1.32-11.46,6.45-23.83-1.16-26.69a5.55,5.55,0,0,0-3.81-.1c-.67.24,0,.43.75-7.74a5.5,5.5,0,0,0-10.93-1.15c-1.56,14.16-3.87,21.72-4.8,43.8-.2,4.7,6.69,5.57,7.62.92,5.29-26.15,4.9-27.8,6.53-29.86.43-.56,1.44-1.57,2.08-1.44s.57.32.46,1.06c-.48,3.53-6.85,17.61-3.92,25.28,2.13,5.54,9.7,7,15.85-1.59C156.15,191.19,159.11,183.1,157.94,177.08Z"/><path class="cls-5" d="M217.8,133.27c-1.25-13.4-16.68-14.63-25.4-6.42-4.83,4.77-6.14,10.88-4,14.63,2.54,4.6,8.9,1.84,8.17-1.84a7.36,7.36,0,0,1,.24-5c1.64-3.85,11.72-8,13.08-1.41.55,2.65-1,6.36-5.79,9.49-9.44,6.14-20.31,7.91-30.19,9.82.42-1.67,1.36-5.35,2-7.81,1.3-5.34-6.4-7.72-8.41-2.7-1.61,4.07-3.51,9-4.79,13.11-6,1.81-11.7,4.43-14.41,10.07-1.68,3.57,2.5,5,3.76,2.56,1.79-3.47,5.18-5.05,8.94-6.22A103.71,103.71,0,0,0,159,184.28c.66,10.11,6.81,14.22,13.15,12.68,14.31-3.48,19.69-36.73,9.29-34.91a4.13,4.13,0,0,0-3.36,4.78c1.31,7.47-3.61,16.56-6.86,19.06-1.23-4.87-.47-18.7,1.14-26.69,7.81-1.15,15.93-2.06,23-4.37C206.47,151.24,218.89,144.92,217.8,133.27Z"/></g></g></svg>