<svg xmlns="http://www.w3.org/2000/svg" viewBox="0 0 304 37.09"><defs><style>.cls-1{fill:#f58220;}</style></defs><title>GamehubLogo</title><g id="Layer_2" data-name="Layer 2"><g id="Layer_1-2" data-name="Layer 1"><path class="cls-1" d="M32.55,14.47H16.65a2,2,0,0,0-2.22,2.22V20.4a2,2,0,0,0,2.22,2.23h8.27v3.12c0,1.86-1.06,2.65-3.07,2.65H13.78c-2.55,0-3.92-1.38-3.92-3.92V12.61c0-2.54,1.37-3.92,3.92-3.92H30.85a2,2,0,0,0,2.23-2.23V2.23A2,2,0,0,0,30.85,0H11C3.92,0,0,4.08,0,11.07V26c0,7,3.92,11.07,11,11.07h12.2c7.1,0,11.56-2.49,11.56-9.48V16.69A2,2,0,0,0,32.55,14.47Z"/><path class="cls-1" d="M86.21,0h-35c-7.1,0-11,4.08-11,11.07v23.8a2,2,0,0,0,2.23,2.22h5.4A2,2,0,0,0,50,34.87V26.65H87.38v8.22a2,2,0,0,0,2.22,2.22H95a2,2,0,0,0,2.22-2.22V11.07C97.23,4.08,93.31,0,86.21,0ZM61.13,14.47a3.39,3.39,0,0,1-1.74.67c-1.1.11-2.21,0-3.44,0,0,.63,0,1.19,0,1.75a21.85,21.85,0,0,1-.12,2.43,1.83,1.83,0,0,1-3.6,0c-.11-.83-.08-1.68-.11-2.52,0-.51,0-1,0-1.66-1.25,0-2.43,0-3.62,0a1.84,1.84,0,0,1-2-1.54,1.89,1.89,0,0,1,2-2.24c1.13,0,2.27,0,3.41,0,0,0,0,0,.15-.13,0-1.05,0-2.19,0-3.32,0-1.58,1.14-2.48,2.47-2.08A2,2,0,0,1,55.94,7.9c0,1.13,0,2.26,0,3.48,1.25,0,2.41,0,3.57,0a1.93,1.93,0,0,1,1.91,1.14A1.59,1.59,0,0,1,61.13,14.47Zm18.38,6.38A3.77,3.77,0,1,1,83.3,17.1,3.73,3.73,0,0,1,79.51,20.85Zm7.65-7.56a3.87,3.87,0,0,1-3.84-3.77,3.8,3.8,0,0,1,7.6-.07A3.86,3.86,0,0,1,87.16,13.29Z"/><path class="cls-1" d="M133.29,0h0c-4.45,0-7.68,1.64-9.43,4.56C122,1.64,118.86,0,114.41,0h0c-7.1,0-11,4.08-11,11.07v23.8a2,2,0,0,0,2.23,2.22H111a2,2,0,0,0,2.23-2.22V12.61c0-2.15,1-3.46,2.84-3.81,1.85.35,2.84,1.66,2.84,3.81V34.87a2,2,0,0,0,2.23,2.22h5.4a2,2,0,0,0,2.23-2.22V12.61c0-2.15,1-3.46,2.84-3.81,1.85.35,2.85,1.66,2.85,3.81V34.87a2,2,0,0,0,2.22,2.22h5.41a2,2,0,0,0,2.22-2.22V11.07C144.31,4.08,140.39,0,133.29,0Z"/><path class="cls-1" d="M181.3,0h-20c-7.1,0-11,4.08-11,11.07V26c0,7,3.92,11.07,11,11.07h20a2,2,0,0,0,2.23-2.22V30.63a2,2,0,0,0-2.23-2.23H164c-2.54,0-3.92-1.38-3.92-3.92V22.63h17a2,2,0,0,0,2.23-2.23V16.69a2,2,0,0,0-2.23-2.22h-17V12.61c0-2.54,1.38-3.92,3.92-3.92H181.3a2,2,0,0,0,2.23-2.23V2.23A2,2,0,0,0,181.3,0Z"/><path class="cls-1" d="M221,0h-5.4a2,2,0,0,0-2.23,2.23v12H198.94v-12A2,2,0,0,0,196.72,0h-5.41a2,2,0,0,0-2.22,2.23V34.87a2,2,0,0,0,2.22,2.22h5.41a2,2,0,0,0,2.22-2.22v-12h14.43v12a2,2,0,0,0,2.23,2.22H221a2,2,0,0,0,2.23-2.22V2.23A2,2,0,0,0,221,0Z"/><path class="cls-1" d="M261.49,0h-5.4a2,2,0,0,0-2.23,2.23V24.48c0,2.54-1.37,3.92-3.92,3.92h-6.59c-2.54,0-3.92-1.38-3.92-3.92V2.23A2,2,0,0,0,237.21,0H231.8a2,2,0,0,0-2.22,2.23V26c0,7,3.92,11.07,11,11.07h12.1c7.1,0,11-4.08,11-11.07V2.23A2,2,0,0,0,261.49,0Z"/><path class="cls-1" d="M298.54,18.49c3.23-1.32,5-3.92,5-8.53V9.48c0-7-4.19-9.48-11.29-9.48h-20a2,2,0,0,0-2.22,2.23V34.86a2,2,0,0,0,2.22,2.23h20.42c7.1,0,11.29-2.49,11.29-9.49v-.47C304,22.36,302,19.71,298.54,18.49Zm-18.62-9.8h10.73c2,0,3.07.79,3.07,2.65v.47c0,1.86-1.06,2.65-3.07,2.65H279.92Zm14.23,17.06c0,1.85-1.06,2.65-3.08,2.65H279.92V22.62h11.15c2,0,3.08.8,3.08,2.65Z"/></g></g></svg>